NotoSansYi-Regular.ufo
<glyph name="uni3001" format="2">
  <advance width="1000"/>
  <unicode hex="3001"/>
  <outline>
    <contour>
      <point x="200" y="-39" type="curve"/>
      <point x="271" y="10" type="line"/>
      <point x="253" y="52"/>
      <point x="155" y="171"/>
      <point x="74" y="204" type="curve"/>
      <point x="49" y="172" type="line"/>
      <point x="108" y="131"/>
      <point x="170" y="34"/>
    </contour>
  </outline>
</glyph>
<glyph name="uni3002" format="2">
  <advance width="1000"/>
  <unicode hex="3002"/>
  <outline>
    <contour>
      <point x="187" y="-10" type="curve" smooth="yes"/>
      <point x="264" y="-10"/>
      <point x="326" y="51"/>
      <point x="326" y="128" type="curve" smooth="yes"/>
      <point x="326" y="206"/>
      <point x="264" y="267"/>
      <point x="187" y="267" type="curve" smooth="yes"/>
      <point x="110" y="267"/>
      <point x="49" y="206"/>
      <point x="49" y="128" type="curve" smooth="yes"/>
      <point x="49" y="51"/>
      <point x="110" y="-10"/>
    </contour>
    <contour>
      <point x="187" y="44" type="curve" smooth="yes"/>
      <point x="140" y="44"/>
      <point x="103" y="82"/>
      <point x="103" y="128" type="curve" smooth="yes"/>
      <point x="103" y="176"/>
      <point x="140" y="213"/>
      <point x="187" y="213" type="curve" smooth="yes"/>
      <point x="234" y="213"/>
      <point x="272" y="175"/>
      <point x="272" y="128" type="curve" smooth="yes"/>
      <point x="272" y="82"/>
      <point x="234" y="44"/>
    </contour>
  </outline>
</glyph>
<glyph name="uni3008" format="2">
  <advance width="586"/>
  <unicode hex="3008"/>
  <note>
uni3008
</note>
  <outline>
    <contour>
      <point x="442" y="-129" type="line"/>
      <point x="522" y="-129" type="line"/>
      <point x="338" y="307" type="line"/>
      <point x="507" y="714" type="line"/>
      <point x="427" y="714" type="line"/>
      <point x="259" y="307" type="line"/>
    </contour>
  </outline>
</glyph>
<glyph name="uni3009" format="2">
  <advance width="586"/>
  <unicode hex="3009"/>
  <note>
uni3009
</note>
  <outline>
    <contour>
      <point x="63" y="-129" type="line"/>
      <point x="144" y="-129" type="line"/>
      <point x="327" y="307" type="line"/>
      <point x="159" y="714" type="line"/>
      <point x="79" y="714" type="line"/>
      <point x="248" y="307" type="line"/>
    </contour>
  </outline>
</glyph>
<glyph name="uni300A" format="2">
  <advance width="679"/>
  <unicode hex="300A"/>
  <note>
uni300A
</note>
  <outline>
    <contour>
      <point x="549" y="-129" type="line"/>
      <point x="630" y="-129" type="line"/>
      <point x="445" y="307" type="line"/>
      <point x="615" y="714" type="line"/>
      <point x="534" y="714" type="line"/>
      <point x="366" y="307" type="line"/>
    </contour>
    <contour>
      <point x="393" y="-129" type="line"/>
      <point x="474" y="-129" type="line"/>
      <point x="289" y="307" type="line"/>
      <point x="458" y="714" type="line"/>
      <point x="378" y="714" type="line"/>
      <point x="210" y="307" type="line"/>
    </contour>
  </outline>
</glyph>
<glyph name="uni300B" format="2">
  <advance width="679"/>
  <unicode hex="300B"/>
  <note>
uni300B
</note>
  <outline>
    <contour>
      <point x="205" y="-129" type="line"/>
      <point x="286" y="-129" type="line"/>
      <point x="469" y="307" type="line"/>
      <point x="301" y="714" type="line"/>
      <point x="220" y="714" type="line"/>
      <point x="390" y="307" type="line"/>
    </contour>
    <contour>
      <point x="49" y="-129" type="line"/>
      <point x="129" y="-129" type="line"/>
      <point x="313" y="307" type="line"/>
      <point x="145" y="714" type="line"/>
      <point x="64" y="714" type="line"/>
      <point x="233" y="307" type="line"/>
    </contour>
  </outline>
</glyph>
<glyph name="uni300C" format="2">
  <advance width="586"/>
  <unicode hex="300C"/>
  <note>
uni300C
</note>
  <outline>
    <contour>
      <point x="293" y="-98" type="line"/>
      <point x="367" y="-98" type="line"/>
      <point x="367" y="644" type="line"/>
      <point x="532" y="644" type="line"/>
      <point x="532" y="714" type="line"/>
      <point x="293" y="714" type="line"/>
    </contour>
  </outline>
</glyph>
<glyph name="uni300D" format="2">
  <advance width="586"/>
  <unicode hex="300D"/>
  <note>
uni300D
</note>
  <outline>
    <contour>
      <point x="54" y="-98" type="line"/>
      <point x="293" y="-98" type="line"/>
      <point x="293" y="714" type="line"/>
      <point x="219" y="714" type="line"/>
      <point x="219" y="-27" type="line"/>
      <point x="54" y="-27" type="line"/>
    </contour>
  </outline>
</glyph>
<glyph name="uni300E" format="2">
  <advance width="610"/>
  <unicode hex="300E"/>
  <note>
uni300E
</note>
  <outline>
    <contour>
      <point x="244" y="-98" type="line"/>
      <point x="422" y="-98" type="line"/>
      <point x="422" y="548" type="line"/>
      <point x="562" y="548" type="line"/>
      <point x="562" y="714" type="line"/>
      <point x="244" y="714" type="line"/>
    </contour>
    <contour>
      <point x="305" y="-42" type="line"/>
      <point x="305" y="658" type="line"/>
      <point x="500" y="658" type="line"/>
      <point x="500" y="604" type="line"/>
      <point x="361" y="604" type="line"/>
      <point x="361" y="-42" type="line"/>
    </contour>
  </outline>
</glyph>
<glyph name="uni300F" format="2">
  <advance width="610"/>
  <unicode hex="300F"/>
  <note>
uni300F
</note>
  <outline>
    <contour>
      <point x="49" y="-98" type="line"/>
      <point x="366" y="-98" type="line"/>
      <point x="366" y="714" type="line"/>
      <point x="188" y="714" type="line"/>
      <point x="188" y="68" type="line"/>
      <point x="49" y="68" type="line"/>
    </contour>
    <contour>
      <point x="110" y="-42" type="line"/>
      <point x="110" y="12" type="line"/>
      <point x="249" y="12" type="line"/>
      <point x="249" y="658" type="line"/>
      <point x="305" y="658" type="line"/>
      <point x="305" y="-42" type="line"/>
    </contour>
  </outline>
</glyph>
<glyph name="uni3010" format="2">
  <advance width="586"/>
  <unicode hex="3010"/>
  <note>
uni3010
</note>
  <outline>
    <contour>
      <point x="244" y="-98" type="line"/>
      <point x="530" y="-98" type="line"/>
      <point x="405" y="24"/>
      <point x="343" y="163"/>
      <point x="343" y="320" type="curve" smooth="yes"/>
      <point x="343" y="475"/>
      <point x="414" y="620"/>
      <point x="537" y="714" type="curve"/>
      <point x="244" y="714" type="line"/>
    </contour>
  </outline>
</glyph>
<glyph name="uni3011" format="2">
  <advance width="586"/>
  <unicode hex="3011"/>
  <note>
uni3011
</note>
  <outline>
    <contour>
      <point x="56" y="-98" type="curve"/>
      <point x="342" y="-98" type="line"/>
      <point x="342" y="714" type="line"/>
      <point x="49" y="714" type="line"/>
      <point x="172" y="620"/>
      <point x="243" y="475"/>
      <point x="243" y="320" type="curve" smooth="yes"/>
      <point x="243" y="163"/>
      <point x="181" y="24"/>
    </contour>
  </outline>
</glyph>
<glyph name="uni3014" format="2">
  <advance width="586"/>
  <unicode hex="3014"/>
  <note>
uni3014
</note>
  <outline>
    <contour>
      <point x="495" y="-98" type="line"/>
      <point x="522" y="-32" type="line"/>
      <point x="367" y="43" type="line"/>
      <point x="367" y="573" type="line"/>
      <point x="522" y="648" type="line"/>
      <point x="495" y="714" type="line"/>
      <point x="293" y="614" type="line"/>
      <point x="293" y="2" type="line"/>
    </contour>
  </outline>
</glyph>
<glyph name="uni3015" format="2">
  <advance width="586"/>
  <unicode hex="3015"/>
  <note>
uni3015
</note>
  <outline>
    <contour>
      <point x="91" y="-98" type="line"/>
      <point x="293" y="2" type="line"/>
      <point x="293" y="614" type="line"/>
      <point x="91" y="714" type="line"/>
      <point x="63" y="648" type="line"/>
      <point x="219" y="573" type="line"/>
      <point x="219" y="43" type="line"/>
      <point x="63" y="-32" type="line"/>
    </contour>
  </outline>
</glyph>
<glyph name="uni3016" format="2">
  <advance width="610"/>
  <unicode hex="3016"/>
  <note>
uni3016
</note>
  <outline>
    <contour>
      <point x="244" y="-98" type="line"/>
      <point x="550" y="-98" type="line"/>
      <point x="471" y="-12"/>
      <point x="420" y="142"/>
      <point x="420" y="296" type="curve" smooth="yes"/>
      <point x="420" y="454"/>
      <point x="479" y="626"/>
      <point x="562" y="714" type="curve"/>
      <point x="244" y="714" type="line"/>
    </contour>
    <contour>
      <point x="303" y="-42" type="line"/>
      <point x="303" y="658" type="line"/>
      <point x="451" y="658" type="line"/>
      <point x="395" y="572"/>
      <point x="359" y="425"/>
      <point x="359" y="295" type="curve" smooth="yes"/>
      <point x="359" y="170"/>
      <point x="392" y="33"/>
      <point x="441" y="-42" type="curve"/>
    </contour>
  </outline>
</glyph>
<glyph name="uni3017" format="2">
  <advance width="610"/>
  <unicode hex="3017"/>
  <note>
uni3017
</note>
  <outline>
    <contour>
      <point x="60" y="-98" type="curve"/>
      <point x="366" y="-98" type="line"/>
      <point x="366" y="714" type="line"/>
      <point x="49" y="714" type="line"/>
      <point x="131" y="626"/>
      <point x="190" y="454"/>
      <point x="190" y="296" type="curve" smooth="yes"/>
      <point x="190" y="142"/>
      <point x="140" y="-12"/>
    </contour>
    <contour>
      <point x="169" y="-42" type="line"/>
      <point x="218" y="33"/>
      <point x="251" y="170"/>
      <point x="251" y="295" type="curve" smooth="yes"/>
      <point x="251" y="425"/>
      <point x="215" y="572"/>
      <point x="159" y="658" type="curve"/>
      <point x="308" y="658" type="line"/>
      <point x="308" y="-42" type="line"/>
    </contour>
  </outline>
</glyph>
<glyph name="uni3018" format="2">
  <advance width="586"/>
  <unicode hex="3018"/>
  <note>
uni3018
</note>
  <outline>
    <contour>
      <point x="481" y="-98" type="line"/>
      <point x="513" y="-49" type="line"/>
      <point x="445" y="-10" type="line"/>
      <point x="445" y="626" type="line"/>
      <point x="513" y="665" type="line"/>
      <point x="481" y="714" type="line"/>
      <point x="269" y="594" type="line"/>
      <point x="269" y="22" type="line"/>
    </contour>
    <contour>
      <point x="387" y="23" type="line"/>
      <point x="327" y="54" type="line"/>
      <point x="327" y="562" type="line"/>
      <point x="387" y="593" type="line"/>
    </contour>
  </outline>
</glyph>
<glyph name="uni3019" format="2">
  <advance width="586"/>
  <unicode hex="3019"/>
  <note>
uni3019
</note>
  <outline>
    <contour>
      <point x="104" y="-98" type="line"/>
      <point x="317" y="22" type="line"/>
      <point x="317" y="594" type="line"/>
      <point x="104" y="714" type="line"/>
      <point x="73" y="665" type="line"/>
      <point x="141" y="626" type="line"/>
      <point x="141" y="-10" type="line"/>
      <point x="73" y="-49" type="line"/>
    </contour>
    <contour>
      <point x="199" y="23" type="line"/>
      <point x="199" y="593" type="line"/>
      <point x="259" y="562" type="line"/>
      <point x="259" y="54" type="line"/>
    </contour>
  </outline>
</glyph>
<glyph name="uni301A" format="2">
  <advance width="586"/>
  <unicode hex="301A"/>
  <note>
uni301A
</note>
  <outline>
    <contour>
      <point x="244" y="-98" type="line"/>
      <point x="518" y="-98" type="line"/>
      <point x="518" y="-34" type="line"/>
      <point x="422" y="-34" type="line"/>
      <point x="422" y="650" type="line"/>
      <point x="518" y="650" type="line"/>
      <point x="518" y="714" type="line"/>
      <point x="244" y="714" type="line"/>
    </contour>
    <contour>
      <point x="305" y="-34" type="line"/>
      <point x="305" y="650" type="line"/>
      <point x="361" y="650" type="line"/>
      <point x="361" y="-34" type="line"/>
    </contour>
  </outline>
</glyph>
<glyph name="uni301B" format="2">
  <advance width="586"/>
  <unicode hex="301B"/>
  <note>
uni301B
</note>
  <outline>
    <contour>
      <point x="68" y="-98" type="line"/>
      <point x="342" y="-98" type="line"/>
      <point x="342" y="714" type="line"/>
      <point x="68" y="714" type="line"/>
      <point x="68" y="650" type="line"/>
      <point x="164" y="650" type="line"/>
      <point x="164" y="-34" type="line"/>
      <point x="68" y="-34" type="line"/>
    </contour>
    <contour>
      <point x="225" y="-34" type="line"/>
      <point x="225" y="650" type="line"/>
      <point x="281" y="650" type="line"/>
      <point x="281" y="-34" type="line"/>
    </contour>
  </outline>
</glyph>
<glyph name="uni30FB" format="2">
  <advance width="1000"/>
  <unicode hex="30FB"/>
  <note>
uni30FB
</note>
  <outline>
    <contour>
      <point x="500" y="246" type="curve" smooth="yes"/>
      <point x="561" y="246"/>
      <point x="611" y="294"/>
      <point x="611" y="356" type="curve" smooth="yes"/>
      <point x="611" y="418"/>
      <point x="562" y="468"/>
      <point x="500" y="468" type="curve" smooth="yes"/>
      <point x="438" y="468"/>
      <point x="389" y="417"/>
      <point x="389" y="356" type="curve" smooth="yes"/>
      <point x="389" y="295"/>
      <point x="438" y="246"/>
    </contour>
  </outline>
</glyph>
<glyph name="uniA000" format="2">
  <advance width="617"/>
  <unicode hex="A000"/>
  <outline>
    <contour>
      <point x="337" y="-13" type="curve" smooth="yes"/>
      <point x="473" y="-13"/>
      <point x="529" y="69"/>
      <point x="529" y="182" type="curve" smooth="yes"/>
      <point x="529" y="714" type="line"/>
      <point x="461" y="714" type="line"/>
      <point x="461" y="559" type="line"/>
      <point x="215" y="559" type="line"/>
      <point x="215" y="714" type="line"/>
      <point x="146" y="714" type="line"/>
      <point x="146" y="332" type="line"/>
      <point x="49" y="332" type="line"/>
      <point x="49" y="273" type="line"/>
      <point x="146" y="273" type="line"/>
      <point x="146" y="182" type="line" smooth="yes"/>
      <point x="146" y="69"/>
      <point x="203" y="-13"/>
    </contour>
    <contour>
      <point x="338" y="46" type="curve" smooth="yes"/>
      <point x="274" y="46"/>
      <point x="215" y="76"/>
      <point x="215" y="181" type="curve" smooth="yes"/>
      <point x="215" y="273" type="line"/>
      <point x="317" y="273" type="line"/>
      <point x="317" y="332" type="line"/>
      <point x="215" y="332" type="line"/>
      <point x="215" y="500" type="line"/>
      <point x="461" y="500" type="line"/>
      <point x="461" y="181" type="line" smooth="yes"/>
      <point x="461" y="77"/>
      <point x="401" y="46"/>
    </contour>
  </outline>
</glyph>
<glyph name="uniA002" format="2">
  <advance width="617"/>
  <unicode hex="A002"/>
  <outline>
    <contour>
      <point x="337" y="-13" type="curve" smooth="yes"/>
      <point x="473" y="-13"/>
      <point x="529" y="69"/>
      <point x="529" y="182" type="curve" smooth="yes"/>
      <point x="529" y="714" type="line"/>
      <point x="461" y="714" type="line"/>
      <point x="461" y="559" type="line"/>
      <point x="215" y="559" type="line"/>
      <point x="215" y="714" type="line"/>
      <point x="146" y="714" type="line"/>
      <point x="146" y="428" type="line"/>
      <point x="115" y="433"/>
      <point x="84" y="434"/>
      <point x="59" y="435" type="curve"/>
      <point x="59" y="376" type="line"/>
      <point x="85" y="375"/>
      <point x="116" y="374"/>
      <point x="146" y="371" type="curve"/>
      <point x="146" y="182" type="line" smooth="yes"/>
      <point x="146" y="174"/>
      <point x="146" y="167"/>
      <point x="147" y="160" type="curve"/>
      <point x="120" y="156"/>
      <point x="90" y="154"/>
      <point x="59" y="154" type="curve"/>
      <point x="59" y="96" type="line"/>
      <point x="92" y="96"/>
      <point x="125" y="99"/>
      <point x="157" y="104" type="curve"/>
      <point x="179" y="34"/>
      <point x="236" y="-13"/>
    </contour>
    <contour>
      <point x="215" y="177" type="curve"/>
      <point x="215" y="357" type="line"/>
      <point x="262" y="342"/>
      <point x="297" y="315"/>
      <point x="297" y="265" type="curve" smooth="yes"/>
      <point x="297" y="225"/>
      <point x="265" y="195"/>
    </contour>
    <contour>
      <point x="338" y="46" type="curve" smooth="yes"/>
      <point x="289" y="46"/>
      <point x="242" y="64"/>
      <point x="223" y="122" type="curve"/>
      <point x="304" y="149"/>
      <point x="361" y="198"/>
      <point x="361" y="265" type="curve" smooth="yes"/>
      <point x="361" y="351"/>
      <point x="293" y="394"/>
      <point x="215" y="415" type="curve"/>
      <point x="215" y="500" type="line"/>
      <point x="461" y="500" type="line"/>
      <point x="461" y="181" type="line" smooth="yes"/>
      <point x="461" y="77"/>
      <point x="401" y="46"/>
    </contour>
  </outline>
</glyph>
<glyph name="uniA003" format="2">
  <advance width="641"/>
  <unicode hex="A003"/>
  <outline>
    <contour>
      <point x="384" y="0" type="curve" smooth="yes"/>
      <point x="469" y="0" type="line"/>
      <point x="469" y="619" type="line"/>
      <point x="582" y="560" type="line"/>
      <point x="602" y="619" type="line"/>
      <point x="401" y="729" type="line"/>
      <point x="401" y="468" type="line"/>
      <point x="373" y="468" type="line" smooth="yes"/>
      <point x="306" y="468"/>
      <point x="244" y="454"/>
      <point x="194" y="427" type="curve"/>
      <point x="152" y="444"/>
      <point x="102" y="453"/>
      <point x="49" y="453" type="curve"/>
      <point x="49" y="395" type="line"/>
      <point x="80" y="395"/>
      <point x="109" y="391"/>
      <point x="136" y="383" type="curve"/>
      <point x="100" y="346"/>
      <point x="78" y="295"/>
      <point x="78" y="231" type="curve" smooth="yes"/>
      <point x="78" y="169"/>
      <point x="97" y="120"/>
      <point x="132" y="83" type="curve"/>
      <point x="106" y="76"/>
      <point x="78" y="73"/>
      <point x="49" y="73" type="curve"/>
      <point x="49" y="15" type="line"/>
      <point x="98" y="15"/>
      <point x="147" y="23"/>
      <point x="189" y="40" type="curve"/>
      <point x="241" y="13"/>
      <point x="307" y="0"/>
    </contour>
    <contour>
      <point x="198" y="111" type="curve"/>
      <point x="166" y="140"/>
      <point x="146" y="180"/>
      <point x="146" y="231" type="curve" smooth="yes"/>
      <point x="146" y="284"/>
      <point x="167" y="325"/>
      <point x="200" y="355" type="curve"/>
      <point x="240" y="328"/>
      <point x="265" y="287"/>
      <point x="265" y="231" type="curve" smooth="yes"/>
      <point x="265" y="177"/>
      <point x="239" y="137"/>
    </contour>
    <contour>
      <point x="362" y="59" type="line" smooth="yes"/>
      <point x="324" y="59"/>
      <point x="288" y="64"/>
      <point x="256" y="77" type="curve"/>
      <point x="303" y="113"/>
      <point x="333" y="165"/>
      <point x="333" y="231" type="curve" smooth="yes"/>
      <point x="333" y="301"/>
      <point x="305" y="354"/>
      <point x="259" y="391" type="curve"/>
      <point x="290" y="403"/>
      <point x="325" y="409"/>
      <point x="362" y="409" type="curve" smooth="yes"/>
      <point x="401" y="409" type="line"/>
      <point x="401" y="59" type="line"/>
    </contour>
  </outline>
</glyph>
<glyph name="uniA004" format="2">
  <advance width="615"/>
  <unicode hex="A004"/>
  <outline>
    <contour>
      <point x="308" y="-13" type="curve" smooth="yes"/>
      <point x="449" y="-13"/>
      <point x="503" y="142"/>
      <point x="503" y="358" type="curve" smooth="yes"/>
      <point x="503" y="416"/>
      <point x="500" y="469"/>
      <point x="491" y="517" type="curve"/>
      <point x="530" y="566"/>
      <point x="553" y="630"/>
      <point x="566" y="697" type="curve"/>
      <point x="502" y="697" type="line"/>
      <point x="494" y="661"/>
      <point x="483" y="628"/>
      <point x="469" y="599" type="curve"/>
      <point x="438" y="679"/>
      <point x="387" y="727"/>
      <point x="308" y="727" type="curve" smooth="yes"/>
      <point x="229" y="727"/>
      <point x="177" y="679"/>
      <point x="146" y="599" type="curve"/>
      <point x="131" y="629"/>
      <point x="120" y="663"/>
      <point x="113" y="697" type="curve"/>
      <point x="49" y="697" type="line"/>
      <point x="62" y="630"/>
      <point x="85" y="566"/>
      <point x="124" y="517" type="curve"/>
      <point x="115" y="471"/>
      <point x="111" y="418"/>
      <point x="111" y="362" type="curve" smooth="yes"/>
      <point x="111" y="334"/>
      <point x="112" y="308"/>
      <point x="114" y="283" type="curve"/>
      <point x="63" y="283" type="line"/>
      <point x="63" y="225" type="line"/>
      <point x="121" y="225" type="line"/>
      <point x="142" y="83"/>
      <point x="201" y="-13"/>
    </contour>
    <contour>
      <point x="307" y="46" type="curve" smooth="yes"/>
      <point x="236" y="46"/>
      <point x="201" y="117"/>
      <point x="188" y="225" type="curve"/>
      <point x="282" y="225" type="line"/>
      <point x="282" y="283" type="line"/>
      <point x="182" y="283" type="line"/>
      <point x="180" y="308"/>
      <point x="180" y="334"/>
      <point x="180" y="362" type="curve" smooth="yes"/>
      <point x="180" y="398"/>
      <point x="181" y="432"/>
      <point x="184" y="463" type="curve"/>
      <point x="217" y="442"/>
      <point x="258" y="430"/>
      <point x="307" y="430" type="curve" smooth="yes"/>
      <point x="356" y="430"/>
      <point x="397" y="442"/>
      <point x="431" y="463" type="curve"/>
      <point x="434" y="431"/>
      <point x="435" y="395"/>
      <point x="435" y="358" type="curve" smooth="yes"/>
      <point x="435" y="178"/>
      <point x="405" y="46"/>
    </contour>
    <contour>
      <point x="305" y="488" type="curve" smooth="yes"/>
      <point x="258" y="488"/>
      <point x="222" y="505"/>
      <point x="193" y="533" type="curve"/>
      <point x="210" y="617"/>
      <point x="245" y="668"/>
      <point x="307" y="668" type="curve" smooth="yes"/>
      <point x="369" y="668"/>
      <point x="404" y="616"/>
      <point x="421" y="532" type="curve"/>
      <point x="391" y="504"/>
      <point x="353" y="488"/>
    </contour>
  </outline>
</glyph>
<glyph name="uniA006" format="2">
  <advance width="568"/>
  <unicode hex="A006"/>
  <outline>
    <contour>
      <point x="318" y="-13" type="line"/>
      <point x="318" y="196" type="line"/>
      <point x="454" y="208"/>
      <point x="507" y="295"/>
      <point x="507" y="368" type="curve" smooth="yes"/>
      <point x="507" y="440"/>
      <point x="454" y="528"/>
      <point x="318" y="541" type="curve"/>
      <point x="318" y="641" type="line"/>
      <point x="487" y="575" type="line"/>
      <point x="510" y="631" type="line"/>
      <point x="250" y="729" type="line"/>
      <point x="250" y="541" type="line"/>
      <point x="115" y="528"/>
      <point x="62" y="440"/>
      <point x="62" y="368" type="curve" smooth="yes"/>
      <point x="62" y="292"/>
      <point x="115" y="208"/>
      <point x="250" y="196" type="curve"/>
      <point x="250" y="75" type="line"/>
      <point x="81" y="141" type="line"/>
      <point x="59" y="85" type="line"/>
    </contour>
    <contour>
      <point x="285" y="253" type="curve" smooth="yes"/>
      <point x="169" y="253"/>
      <point x="130" y="305"/>
      <point x="130" y="368" type="curve" smooth="yes"/>
      <point x="130" y="432"/>
      <point x="169" y="483"/>
      <point x="285" y="483" type="curve" smooth="yes"/>
      <point x="400" y="483"/>
      <point x="438" y="432"/>
      <point x="438" y="368" type="curve" smooth="yes"/>
      <point x="438" y="305"/>
      <point x="400" y="253"/>
    </contour>
  </outline>
</glyph>
<glyph name="uniA007" format="2">
  <advance width="630"/>
  <unicode hex="A007"/>
  <outline>
    <contour>
      <point x="250" y="-13" type="curve" smooth="yes"/>
      <point x="338" y="-13"/>
      <point x="389" y="29"/>
      <point x="413" y="107" type="curve"/>
      <point x="438" y="99"/>
      <point x="465" y="93"/>
      <point x="493" y="91" type="curve"/>
      <point x="493" y="0" type="line"/>
      <point x="562" y="0" type="line"/>
      <point x="562" y="218" type="line"/>
      <point x="493" y="218" type="line"/>
      <point x="493" y="149" type="line"/>
      <point x="469" y="151"/>
      <point x="447" y="156"/>
      <point x="425" y="164" type="curve"/>
      <point x="430" y="193"/>
      <point x="432" y="226"/>
      <point x="432" y="261" type="curve" smooth="yes"/>
      <point x="432" y="458" type="line" smooth="yes"/>
      <point x="432" y="491"/>
      <point x="430" y="522"/>
      <point x="426" y="550" type="curve"/>
      <point x="447" y="557"/>
      <point x="470" y="562"/>
      <point x="493" y="564" type="curve"/>
      <point x="493" y="496" type="line"/>
      <point x="562" y="496" type="line"/>
      <point x="562" y="714" type="line"/>
      <point x="493" y="714" type="line"/>
      <point x="493" y="623" type="line"/>
      <point x="465" y="620"/>
      <point x="439" y="615"/>
      <point x="414" y="606" type="curve"/>
      <point x="390" y="686"/>
      <point x="339" y="727"/>
      <point x="250" y="727" type="curve" smooth="yes"/>
      <point x="115" y="727"/>
      <point x="68" y="633"/>
      <point x="68" y="458" type="curve"/>
      <point x="68" y="261" type="line" smooth="yes"/>
      <point x="68" y="85"/>
      <point x="115" y="-13"/>
    </contour>
    <contour>
      <point x="250" y="46" type="curve" smooth="yes"/>
      <point x="160" y="46"/>
      <point x="137" y="113"/>
      <point x="137" y="251" type="curve" smooth="yes"/>
      <point x="137" y="462" type="line"/>
      <point x="137" y="601"/>
      <point x="160" y="668"/>
      <point x="250" y="668" type="curve" smooth="yes"/>
      <point x="309" y="668"/>
      <point x="339" y="639"/>
      <point x="353" y="581" type="curve"/>
      <point x="273" y="536"/>
      <point x="219" y="459"/>
      <point x="219" y="360" type="curve" smooth="yes"/>
      <point x="219" y="256"/>
      <point x="273" y="179"/>
      <point x="353" y="133" type="curve"/>
      <point x="339" y="75"/>
      <point x="309" y="46"/>
    </contour>
    <contour>
      <point x="362" y="199" type="curve"/>
      <point x="313" y="236"/>
      <point x="283" y="292"/>
      <point x="283" y="360" type="curve" smooth="yes"/>
      <point x="283" y="426"/>
      <point x="314" y="479"/>
      <point x="362" y="516" type="curve"/>
      <point x="363" y="499"/>
      <point x="363" y="481"/>
      <point x="363" y="462" type="curve" smooth="yes"/>
      <point x="363" y="251" type="line" smooth="yes"/>
      <point x="363" y="232"/>
      <point x="363" y="215"/>
    </contour>
  </outline>
</glyph>
<glyph name="uniA008" format="2">
  <advance width="525"/>
  <unicode hex="A008"/>
  <outline>
    <contour>
      <point x="233" y="0" type="line"/>
      <point x="302" y="0" type="line"/>
      <point x="302" y="533" type="line"/>
      <point x="467" y="427" type="line"/>
      <point x="467" y="714" type="line"/>
      <point x="403" y="714" type="line"/>
      <point x="403" y="535" type="line"/>
      <point x="233" y="641" type="line"/>
      <point x="233" y="369" type="line"/>
      <point x="81" y="520" type="line"/>
      <point x="39" y="475" type="line"/>
      <point x="233" y="286" type="line"/>
    </contour>
  </outline>
</glyph>
<glyph name="uniA00A" format="2">
  <advance width="543"/>
  <unicode hex="A00A"/>
  <outline>
    <contour>
      <point x="284" y="-13" type="line"/>
      <point x="284" y="595" type="line"/>
      <point x="387" y="513" type="line"/>
      <point x="387" y="0" type="line"/>
      <point x="455" y="0" type="line"/>
      <point x="455" y="714" type="line"/>
      <point x="387" y="714" type="line"/>
      <point x="387" y="590" type="line"/>
      <point x="216" y="727" type="line"/>
      <point x="216" y="397" type="line"/>
      <point x="79" y="508" type="line"/>
      <point x="42" y="458" type="line"/>
      <point x="216" y="319" type="line"/>
      <point x="216" y="97" type="line"/>
      <point x="69" y="169" type="line"/>
      <point x="39" y="115" type="line"/>
    </contour>
  </outline>
</glyph>
<glyph name="uniA00B" format="2">
  <advance width="562"/>
  <unicode hex="A00B"/>
  <outline>
    <contour>
      <point x="284" y="-13" type="line"/>
      <point x="284" y="624" type="line"/>
      <point x="369" y="579" type="line"/>
      <point x="366" y="563"/>
      <point x="364" y="546"/>
      <point x="364" y="528" type="curve" smooth="yes"/>
      <point x="364" y="442"/>
      <point x="414" y="366"/>
      <point x="470" y="331" type="curve"/>
      <point x="513" y="381" type="line"/>
      <point x="466" y="410"/>
      <point x="433" y="470"/>
      <point x="433" y="528" type="curve" smooth="yes"/>
      <point x="433" y="594"/>
      <point x="468" y="656"/>
      <point x="512" y="683" type="curve"/>
      <point x="471" y="731" type="line"/>
      <point x="439" y="712"/>
      <point x="409" y="680"/>
      <point x="389" y="638" type="curve"/>
      <point x="216" y="727" type="line"/>
      <point x="216" y="397" type="line"/>
      <point x="79" y="508" type="line"/>
      <point x="42" y="458" type="line"/>
      <point x="216" y="319" type="line"/>
      <point x="216" y="97" type="line"/>
      <point x="69" y="169" type="line"/>
      <point x="39" y="115" type="line"/>
    </contour>
  </outline>
</glyph>
<glyph name="uniA00D" format="2">
  <advance width="593"/>
  <unicode hex="A00D"/>
  <outline>
    <contour>
      <point x="88" y="0" type="line"/>
      <point x="156" y="0" type="line"/>
      <point x="156" y="342" type="line"/>
      <point x="437" y="342" type="line"/>
      <point x="437" y="0" type="line"/>
      <point x="505" y="0" type="line"/>
      <point x="505" y="714" type="line"/>
      <point x="437" y="714" type="line"/>
      <point x="437" y="400" type="line"/>
      <point x="156" y="400" type="line"/>
      <point x="156" y="714" type="line"/>
      <point x="88" y="714" type="line"/>
    </contour>
    <contour>
      <point x="265" y="85" type="line"/>
      <point x="328" y="85" type="line"/>
      <point x="328" y="250" type="line"/>
      <point x="265" y="250" type="line"/>
    </contour>
    <contour>
      <point x="265" y="474" type="line"/>
      <point x="328" y="474" type="line"/>
      <point x="328" y="638" type="line"/>
      <point x="265" y="638" type="line"/>
    </contour>
  </outline>
</glyph>
<glyph name="uniA00E" format="2">
  <advance width="573"/>
  <unicode hex="A00E"/>
  <outline>
    <contour>
      <point x="287" y="-13" type="curve" smooth="yes"/>
      <point x="428" y="-13"/>
      <point x="468" y="151"/>
      <point x="468" y="368" type="curve" smooth="yes"/>
      <point x="468" y="395"/>
      <point x="467" y="411"/>
      <point x="466" y="430" type="curve"/>
      <point x="515" y="448"/>
      <point x="534" y="502"/>
      <point x="534" y="571" type="curve" smooth="yes"/>
      <point x="534" y="657"/>
      <point x="505" y="727"/>
      <point x="425" y="727" type="curve" smooth="yes"/>
      <point x="343" y="727"/>
      <point x="314" y="658"/>
      <point x="314" y="571" type="curve" smooth="yes"/>
      <point x="314" y="495"/>
      <point x="336" y="438"/>
      <point x="398" y="426" type="curve"/>
      <point x="399" y="405"/>
      <point x="399" y="385"/>
      <point x="399" y="358" type="curve" smooth="yes"/>
      <point x="399" y="178"/>
      <point x="384" y="46"/>
      <point x="286" y="46" type="curve" smooth="yes"/>
      <point x="188" y="46"/>
      <point x="173" y="183"/>
      <point x="173" y="362" type="curve" smooth="yes"/>
      <point x="173" y="387"/>
      <point x="173" y="406"/>
      <point x="174" y="426" type="curve"/>
      <point x="236" y="438"/>
      <point x="259" y="495"/>
      <point x="259" y="571" type="curve" smooth="yes"/>
      <point x="259" y="658"/>
      <point x="229" y="727"/>
      <point x="147" y="727" type="curve" smooth="yes"/>
      <point x="68" y="727"/>
      <point x="39" y="657"/>
      <point x="39" y="571" type="curve" smooth="yes"/>
      <point x="39" y="502"/>
      <point x="58" y="448"/>
      <point x="106" y="430" type="curve"/>
      <point x="105" y="413"/>
      <point x="105" y="396"/>
      <point x="105" y="372" type="curve" smooth="yes"/>
      <point x="105" y="148"/>
      <point x="148" y="-13"/>
    </contour>
    <contour>
      <point x="150" y="477" type="curve" smooth="yes"/>
      <point x="110" y="477"/>
      <point x="98" y="512"/>
      <point x="98" y="571" type="curve" smooth="yes"/>
      <point x="98" y="629"/>
      <point x="104" y="672"/>
      <point x="147" y="672" type="curve" smooth="yes"/>
      <point x="193" y="672"/>
      <point x="201" y="631"/>
      <point x="201" y="571" type="curve" smooth="yes"/>
      <point x="201" y="513"/>
      <point x="188" y="477"/>
    </contour>
    <contour>
      <point x="422" y="477" type="curve" smooth="yes"/>
      <point x="384" y="477"/>
      <point x="372" y="513"/>
      <point x="372" y="571" type="curve" smooth="yes"/>
      <point x="372" y="631"/>
      <point x="380" y="672"/>
      <point x="425" y="672" type="curve" smooth="yes"/>
      <point x="468" y="672"/>
      <point x="475" y="629"/>
      <point x="475" y="571" type="curve" smooth="yes"/>
      <point x="475" y="512"/>
      <point x="463" y="477"/>
    </contour>
  </outline>
</glyph>
<glyph name="uniA00F" format="2">
  <advance width="582"/>
  <unicode hex="A00F"/>
  <outline>
    <contour>
      <point x="241" y="-10" type="curve" smooth="yes"/>
      <point x="264" y="-10"/>
      <point x="327" y="-7"/>
      <point x="353" y="0" type="curve"/>
      <point x="334" y="57" type="line"/>
      <point x="306" y="51"/>
      <point x="270" y="49"/>
      <point x="242" y="49" type="curve" smooth="yes"/>
      <point x="189" y="49"/>
      <point x="141" y="63"/>
      <point x="141" y="100" type="curve" smooth="yes"/>
      <point x="141" y="142"/>
      <point x="185" y="155"/>
      <point x="299" y="158" type="curve"/>
      <point x="299" y="213" type="line"/>
      <point x="187" y="213"/>
      <point x="162" y="233"/>
      <point x="162" y="265" type="curve" smooth="yes"/>
      <point x="162" y="310"/>
      <point x="224" y="315"/>
      <point x="317" y="315" type="curve" smooth="yes"/>
      <point x="324" y="315" type="line"/>
      <point x="324" y="406" type="line"/>
      <point x="461" y="416"/>
      <point x="523" y="484"/>
      <point x="523" y="566" type="curve" smooth="yes"/>
      <point x="523" y="654"/>
      <point x="452" y="727"/>
      <point x="292" y="727" type="curve" smooth="yes"/>
      <point x="131" y="727"/>
      <point x="59" y="654"/>
      <point x="59" y="566" type="curve" smooth="yes"/>
      <point x="59" y="484"/>
      <point x="122" y="415"/>
      <point x="261" y="406" type="curve"/>
      <point x="261" y="373" type="line"/>
      <point x="149" y="367"/>
      <point x="93" y="328"/>
      <point x="93" y="272" type="curve" smooth="yes"/>
      <point x="93" y="247"/>
      <point x="103" y="213"/>
      <point x="149" y="194" type="curve"/>
      <point x="103" y="179"/>
      <point x="73" y="151"/>
      <point x="73" y="100" type="curve" smooth="yes"/>
      <point x="73" y="-3"/>
      <point x="187" y="-10"/>
    </contour>
    <contour>
      <point x="261" y="460" type="line"/>
      <point x="167" y="467"/>
      <point x="122" y="509"/>
      <point x="122" y="566" type="curve" smooth="yes"/>
      <point x="122" y="624"/>
      <point x="167" y="665"/>
      <point x="261" y="671" type="curve"/>
    </contour>
    <contour>
      <point x="324" y="460" type="curve"/>
      <point x="324" y="671" type="line"/>
      <point x="417" y="664"/>
      <point x="460" y="623"/>
      <point x="460" y="566" type="curve" smooth="yes"/>
      <point x="460" y="509"/>
      <point x="417" y="468"/>
    </contour>
  </outline>
</glyph>
<glyph name="uniA011" format="2">
  <advance width="685"/>
  <unicode hex="A011"/>
  <outline>
    <contour>
      <point x="459" y="-13" type="curve" smooth="yes"/>
      <point x="601" y="-13"/>
      <point x="617" y="161"/>
      <point x="617" y="358" type="curve" smooth="yes"/>
      <point x="617" y="564"/>
      <point x="602" y="727"/>
      <point x="460" y="727" type="curve" smooth="yes"/>
      <point x="367" y="727"/>
      <point x="328" y="654"/>
      <point x="312" y="545" type="curve"/>
      <point x="158" y="670" type="line"/>
      <point x="158" y="179" type="line"/>
      <point x="63" y="227" type="line"/>
      <point x="39" y="172" type="line"/>
      <point x="222" y="87" type="line"/>
      <point x="222" y="542" type="line"/>
      <point x="305" y="474" type="line"/>
      <point x="303" y="438"/>
      <point x="303" y="401"/>
      <point x="303" y="362" type="curve" smooth="yes"/>
      <point x="303" y="158"/>
      <point x="318" y="-13"/>
    </contour>
    <contour>
      <point x="459" y="46" type="curve" smooth="yes"/>
      <point x="376" y="46"/>
      <point x="371" y="183"/>
      <point x="371" y="362" type="curve" smooth="yes"/>
      <point x="371" y="543"/>
      <point x="376" y="668"/>
      <point x="459" y="668" type="curve" smooth="yes"/>
      <point x="543" y="668"/>
      <point x="548" y="539"/>
      <point x="548" y="358" type="curve" smooth="yes"/>
      <point x="548" y="178"/>
      <point x="543" y="46"/>
    </contour>
    <contour>
      <point x="428" y="269" type="line"/>
      <point x="492" y="269" type="line"/>
      <point x="492" y="462" type="line"/>
      <point x="428" y="462" type="line"/>
    </contour>
  </outline>
</glyph>
<glyph name="uniA014" format="2">
  <advance width="578"/>
  <unicode hex="A014"/>
  <outline>
    <contour>
      <point x="389" y="-13" type="line"/>
      <point x="389" y="624" type="line"/>
      <point x="509" y="561" type="line"/>
      <point x="539" y="615" type="line"/>
      <point x="321" y="727" type="line"/>
      <point x="321" y="459" type="line"/>
      <point x="194" y="459" type="line"/>
      <point x="208" y="479"/>
      <point x="216" y="502"/>
      <point x="216" y="526" type="curve" smooth="yes"/>
      <point x="216" y="597"/>
      <point x="161" y="668"/>
      <point x="39" y="670" type="curve"/>
      <point x="39" y="617" type="line"/>
      <point x="122" y="608"/>
      <point x="148" y="573"/>
      <point x="148" y="521" type="curve" smooth="yes"/>
      <point x="148" y="490"/>
      <point x="133" y="459"/>
      <point x="103" y="445" type="curve"/>
      <point x="103" y="418" type="line"/>
      <point x="105" y="417" type="line" smooth="yes"/>
      <point x="134" y="403"/>
      <point x="148" y="373"/>
      <point x="148" y="343" type="curve" smooth="yes"/>
      <point x="148" y="291"/>
      <point x="122" y="256"/>
      <point x="39" y="247" type="curve"/>
      <point x="39" y="194" type="line"/>
      <point x="161" y="196"/>
      <point x="216" y="267"/>
      <point x="216" y="338" type="curve" smooth="yes"/>
      <point x="216" y="362"/>
      <point x="208" y="385"/>
      <point x="193" y="406" type="curve"/>
      <point x="321" y="406" type="line"/>
      <point x="321" y="99" type="line"/>
      <point x="201" y="163" type="line"/>
      <point x="171" y="108" type="line"/>
    </contour>
  </outline>
</glyph>
<glyph name="uniA018" format="2">
  <advance width="532"/>
  <unicode hex="A018"/>
  <outline>
    <contour>
      <point x="88" y="0" type="line"/>
      <point x="156" y="0" type="line"/>
      <point x="156" y="339" type="line"/>
      <point x="227" y="339" type="line"/>
      <point x="234" y="189"/>
      <point x="330" y="78"/>
      <point x="466" y="28" type="curve"/>
      <point x="493" y="82" type="line"/>
      <point x="380" y="123"/>
      <point x="302" y="215"/>
      <point x="295" y="339" type="curve"/>
      <point x="466" y="339" type="line"/>
      <point x="466" y="397" type="line"/>
      <point x="297" y="397" type="line"/>
      <point x="311" y="509"/>
      <point x="383" y="591"/>
      <point x="487" y="630" type="curve"/>
      <point x="466" y="686" type="line"/>
      <point x="336" y="639"/>
      <point x="243" y="536"/>
      <point x="228" y="397" type="curve"/>
      <point x="156" y="397" type="line"/>
      <point x="156" y="714" type="line"/>
      <point x="88" y="714" type="line"/>
    </contour>
  </outline>
</glyph>
<glyph name="uniA019" format="2">
  <advance width="532"/>
  <unicode hex="A019"/>
  <outline>
    <contour>
      <point x="88" y="0" type="line"/>
      <point x="156" y="0" type="line"/>
      <point x="156" y="238" type="line"/>
      <point x="193" y="238" type="line"/>
      <point x="211" y="145"/>
      <point x="320" y="82"/>
      <point x="464" y="81" type="curve"/>
      <point x="464" y="139" type="line"/>
      <point x="348" y="139"/>
      <point x="275" y="179"/>
      <point x="258" y="238" type="curve"/>
      <point x="474" y="238" type="line"/>
      <point x="474" y="296" type="line"/>
      <point x="258" y="296" type="line"/>
      <point x="279" y="371"/>
      <point x="380" y="388"/>
      <point x="464" y="391" type="curve"/>
      <point x="464" y="449" type="line"/>
      <point x="362" y="448"/>
      <point x="215" y="415"/>
      <point x="193" y="296" type="curve"/>
      <point x="156" y="296" type="line"/>
      <point x="156" y="593" type="line"/>
      <point x="433" y="485" type="line"/>
      <point x="433" y="714" type="line"/>
      <point x="365" y="714" type="line"/>
      <point x="365" y="574" type="line"/>
      <point x="88" y="685" type="line"/>
    </contour>
  </outline>
</glyph>
<glyph name="uniA01A" format="2">
  <advance width="675"/>
  <unicode hex="A01A"/>
  <outline>
    <contour>
      <point x="229" y="-13" type="curve" smooth="yes"/>
      <point x="366" y="-13"/>
      <point x="391" y="150"/>
      <point x="392" y="339" type="curve"/>
      <point x="432" y="339" type="line"/>
      <point x="439" y="217"/>
      <point x="503" y="115"/>
      <point x="605" y="59" type="curve"/>
      <point x="636" y="112" type="line"/>
      <point x="556" y="159"/>
      <point x="507" y="231"/>
      <point x="500" y="339" type="curve"/>
      <point x="574" y="339" type="line"/>
      <point x="574" y="397" type="line"/>
      <point x="501" y="397" type="line"/>
      <point x="510" y="496"/>
      <point x="556" y="564"/>
      <point x="636" y="614" type="curve"/>
      <point x="605" y="667" type="line"/>
      <point x="501" y="606"/>
      <point x="443" y="508"/>
      <point x="433" y="397" type="curve"/>
      <point x="392" y="397" type="line"/>
      <point x="389" y="584"/>
      <point x="363" y="727"/>
      <point x="230" y="727" type="curve" smooth="yes"/>
      <point x="92" y="727"/>
      <point x="68" y="566"/>
      <point x="68" y="362" type="curve" smooth="yes"/>
      <point x="68" y="158"/>
      <point x="88" y="-13"/>
    </contour>
    <contour>
      <point x="229" y="46" type="curve" smooth="yes"/>
      <point x="147" y="46"/>
      <point x="137" y="183"/>
      <point x="137" y="362" type="curve" smooth="yes"/>
      <point x="137" y="543"/>
      <point x="147" y="668"/>
      <point x="229" y="668" type="curve" smooth="yes"/>
      <point x="313" y="668"/>
      <point x="324" y="539"/>
      <point x="324" y="358" type="curve" smooth="yes"/>
      <point x="324" y="178"/>
      <point x="313" y="46"/>
    </contour>
  </outline>
</glyph>
<glyph name="uniA01C" format="2">
  <advance width="584"/>
  <unicode hex="A01C"/>
  <outline>
    <contour>
      <point x="250" y="-13" type="curve" smooth="yes"/>
      <point x="385" y="-13"/>
      <point x="432" y="85"/>
      <point x="432" y="261" type="curve" smooth="yes"/>
      <point x="432" y="458" type="line" smooth="yes"/>
      <point x="432" y="484"/>
      <point x="430" y="509"/>
      <point x="428" y="532" type="curve"/>
      <point x="545" y="676" type="line"/>
      <point x="500" y="714" type="line"/>
      <point x="414" y="607" type="line"/>
      <point x="390" y="686"/>
      <point x="339" y="727"/>
      <point x="250" y="727" type="curve" smooth="yes"/>
      <point x="115" y="727"/>
      <point x="68" y="633"/>
      <point x="68" y="458" type="curve"/>
      <point x="68" y="261" type="line" smooth="yes"/>
      <point x="68" y="85"/>
      <point x="115" y="-13"/>
    </contour>
    <contour>
      <point x="250" y="46" type="curve" smooth="yes"/>
      <point x="178" y="46"/>
      <point x="148" y="89"/>
      <point x="140" y="178" type="curve"/>
      <point x="363" y="453" type="line"/>
      <point x="363" y="251" type="line" smooth="yes"/>
      <point x="363" y="113"/>
      <point x="340" y="46"/>
    </contour>
    <contour>
      <point x="137" y="267" type="line"/>
      <point x="137" y="462" type="line"/>
      <point x="137" y="601"/>
      <point x="160" y="668"/>
      <point x="250" y="668" type="curve" smooth="yes"/>
      <point x="321" y="668"/>
      <point x="350" y="626"/>
      <point x="359" y="541" type="curve"/>
    </contour>
  </outline>
</glyph>
<glyph name="uniA01D" format="2">
  <advance width="627"/>
  <unicode hex="A01D"/>
  <outline>
    <contour>
      <point x="229" y="-13" type="curve" smooth="yes"/>
      <point x="366" y="-13"/>
      <point x="390" y="148"/>
      <point x="392" y="336" type="curve"/>
      <point x="396" y="336" type="line" smooth="yes"/>
      <point x="454" y="336"/>
      <point x="495" y="284"/>
      <point x="495" y="220" type="curve" smooth="yes"/>
      <point x="495" y="164"/>
      <point x="480" y="125"/>
      <point x="434" y="89" type="curve"/>
      <point x="472" y="45" type="line"/>
      <point x="546" y="103"/>
      <point x="564" y="163"/>
      <point x="564" y="220" type="curve" smooth="yes"/>
      <point x="564" y="272"/>
      <point x="536" y="331"/>
      <point x="488" y="362" type="curve"/>
      <point x="534" y="394"/>
      <point x="564" y="448"/>
      <point x="564" y="503" type="curve" smooth="yes"/>
      <point x="564" y="551"/>
      <point x="557" y="615"/>
      <point x="479" y="678" type="curve"/>
      <point x="435" y="636" type="line"/>
      <point x="487" y="598"/>
      <point x="496" y="545"/>
      <point x="496" y="505" type="curve" smooth="yes"/>
      <point x="496" y="443"/>
      <point x="456" y="390"/>
      <point x="396" y="390" type="curve" smooth="yes"/>
      <point x="392" y="390" type="line"/>
      <point x="390" y="580"/>
      <point x="365" y="727"/>
      <point x="230" y="727" type="curve" smooth="yes"/>
      <point x="92" y="727"/>
      <point x="68" y="566"/>
      <point x="68" y="362" type="curve" smooth="yes"/>
      <point x="68" y="158"/>
      <point x="88" y="-13"/>
    </contour>
    <contour>
      <point x="229" y="46" type="curve" smooth="yes"/>
      <point x="147" y="46"/>
      <point x="137" y="183"/>
      <point x="137" y="362" type="curve" smooth="yes"/>
      <point x="137" y="543"/>
      <point x="147" y="668"/>
      <point x="229" y="668" type="curve" smooth="yes"/>
      <point x="313" y="668"/>
      <point x="324" y="539"/>
      <point x="324" y="358" type="curve" smooth="yes"/>
      <point x="324" y="178"/>
      <point x="313" y="46"/>
    </contour>
  </outline>
</glyph>
<glyph name="uniA01E" format="2">
  <advance width="514"/>
  <unicode hex="A01E"/>
  <outline>
    <contour>
      <point x="75" y="361" type="line"/>
      <point x="144" y="361" type="line"/>
      <point x="144" y="513" type="line"/>
      <point x="370" y="513" type="line"/>
      <point x="370" y="361" type="line"/>
      <point x="438" y="361" type="line"/>
      <point x="438" y="714" type="line"/>
      <point x="370" y="714" type="line"/>
      <point x="370" y="571" type="line"/>
      <point x="144" y="571" type="line"/>
      <point x="144" y="714" type="line"/>
      <point x="75" y="714" type="line"/>
    </contour>
    <contour>
      <point x="257" y="-13" type="curve" smooth="yes"/>
      <point x="387" y="-13"/>
      <point x="431" y="81"/>
      <point x="431" y="165" type="curve" smooth="yes"/>
      <point x="431" y="248"/>
      <point x="388" y="353"/>
      <point x="257" y="353" type="curve" smooth="yes"/>
      <point x="126" y="353"/>
      <point x="83" y="246"/>
      <point x="83" y="165" type="curve" smooth="yes"/>
      <point x="83" y="81"/>
      <point x="128" y="-13"/>
    </contour>
    <contour>
      <point x="257" y="42" type="curve" smooth="yes"/>
      <point x="167" y="42"/>
      <point x="146" y="107"/>
      <point x="146" y="165" type="curve" smooth="yes"/>
      <point x="146" y="224"/>
      <point x="168" y="299"/>
      <point x="257" y="299" type="curve" smooth="yes"/>
      <point x="352" y="299"/>
      <point x="367" y="219"/>
      <point x="367" y="165" type="curve" smooth="yes"/>
      <point x="367" y="112"/>
      <point x="350" y="42"/>
    </contour>
  </outline>
</glyph>
<glyph name="uniA020" format="2">
  <advance width="637"/>
  <unicode hex="A020"/>
  <outline>
    <contour>
      <point x="206" y="-13" type="curve" smooth="yes"/>
      <point x="259" y="-13"/>
      <point x="293" y="9"/>
      <point x="318" y="47" type="curve"/>
      <point x="343" y="9"/>
      <point x="378" y="-13"/>
      <point x="431" y="-13" type="curve" smooth="yes"/>
      <point x="563" y="-13"/>
      <point x="568" y="111"/>
      <point x="568" y="220" type="curve" smooth="yes"/>
      <point x="568" y="284" type="line"/>
      <point x="500" y="284" type="line"/>
      <point x="500" y="230" type="line" smooth="yes"/>
      <point x="500" y="93"/>
      <point x="491" y="46"/>
      <point x="426" y="46" type="curve" smooth="yes"/>
      <point x="382" y="46"/>
      <point x="353" y="78"/>
      <point x="353" y="164" type="curve" smooth="yes"/>
      <point x="353" y="284" type="line"/>
      <point x="284" y="284" type="line"/>
      <point x="284" y="164" type="line" smooth="yes"/>
      <point x="284" y="78"/>
      <point x="255" y="46"/>
      <point x="210" y="46" type="curve" smooth="yes"/>
      <point x="146" y="46"/>
      <point x="137" y="93"/>
      <point x="137" y="230" type="curve" smooth="yes"/>
      <point x="137" y="284" type="line"/>
      <point x="68" y="284" type="line"/>
      <point x="68" y="220" type="line" smooth="yes"/>
      <point x="68" y="111"/>
      <point x="74" y="-13"/>
    </contour>
    <contour>
      <point x="146" y="325" type="line"/>
      <point x="215" y="325" type="line"/>
      <point x="215" y="496" type="line"/>
      <point x="422" y="496" type="line"/>
      <point x="422" y="325" type="line"/>
      <point x="490" y="325" type="line"/>
      <point x="490" y="714" type="line"/>
      <point x="422" y="714" type="line"/>
      <point x="422" y="554" type="line"/>
      <point x="215" y="554" type="line"/>
      <point x="215" y="714" type="line"/>
      <point x="146" y="714" type="line"/>
    </contour>
  </outline>
</glyph>
<glyph name="uniA021" format="2">
  <advance width="605"/>
  <unicode hex="A021"/>
  <outline>
    <contour>
      <point x="131" y="325" type="line"/>
      <point x="199" y="325" type="line"/>
      <point x="199" y="496" type="line"/>
      <point x="406" y="496" type="line"/>
      <point x="406" y="325" type="line"/>
      <point x="475" y="325" type="line"/>
      <point x="475" y="714" type="line"/>
      <point x="406" y="714" type="line"/>
      <point x="406" y="554" type="line"/>
      <point x="199" y="554" type="line"/>
      <point x="199" y="714" type="line"/>
      <point x="131" y="714" type="line"/>
    </contour>
    <contour>
      <point x="112" y="-12" type="line"/>
      <point x="272" y="239" type="line"/>
      <point x="219" y="273" type="line"/>
      <point x="59" y="22" type="line"/>
    </contour>
    <contour>
      <point x="494" y="-12" type="line"/>
      <point x="547" y="22" type="line"/>
      <point x="386" y="273" type="line"/>
      <point x="333" y="239" type="line"/>
    </contour>
  </outline>
</glyph>
<glyph name="uniA024" format="2">
  <advance width="449"/>
  <unicode hex="A024"/>
  <outline>
    <contour>
      <point x="59" y="0" type="line"/>
      <point x="391" y="0" type="line"/>
      <point x="391" y="59" type="line"/>
      <point x="259" y="59" type="line"/>
      <point x="259" y="655" type="line"/>
      <point x="391" y="655" type="line"/>
      <point x="391" y="714" type="line"/>
      <point x="59" y="714" type="line"/>
      <point x="59" y="655" type="line"/>
      <point x="190" y="655" type="line"/>
      <point x="190" y="59" type="line"/>
      <point x="59" y="59" type="line"/>
    </contour>
  </outline>
</glyph>
<glyph name="uniA025" format="2">
  <advance width="601"/>
  <unicode hex="A025"/>
  <outline>
    <contour>
      <point x="542" y="0" type="curve"/>
      <point x="542" y="58" type="line"/>
      <point x="423" y="58"/>
      <point x="351" y="101"/>
      <point x="351" y="189" type="curve" smooth="yes"/>
      <point x="351" y="298"/>
      <point x="460" y="331"/>
      <point x="542" y="332" type="curve"/>
      <point x="542" y="382" type="line"/>
      <point x="460" y="383"/>
      <point x="351" y="417"/>
      <point x="351" y="525" type="curve" smooth="yes"/>
      <point x="351" y="613"/>
      <point x="423" y="656"/>
      <point x="542" y="656" type="curve"/>
      <point x="542" y="714" type="line"/>
      <point x="417" y="712"/>
      <point x="323" y="668"/>
      <point x="293" y="586" type="curve"/>
      <point x="242" y="574"/>
      <point x="198" y="551"/>
      <point x="165" y="518" type="curve"/>
      <point x="81" y="604" type="line"/>
      <point x="39" y="565" type="line"/>
      <point x="130" y="473" type="line"/>
      <point x="111" y="440"/>
      <point x="101" y="400"/>
      <point x="101" y="355" type="curve" smooth="yes"/>
      <point x="101" y="310"/>
      <point x="112" y="271"/>
      <point x="131" y="239" type="curve"/>
      <point x="39" y="146" type="line"/>
      <point x="81" y="107" type="line"/>
      <point x="167" y="195" type="line"/>
      <point x="200" y="163"/>
      <point x="244" y="141"/>
      <point x="292" y="129" type="curve"/>
      <point x="322" y="45"/>
      <point x="416" y="1"/>
    </contour>
    <contour>
      <point x="283" y="195" type="curve"/>
      <point x="255" y="206"/>
      <point x="231" y="221"/>
      <point x="212" y="241" type="curve"/>
      <point x="258" y="287" type="line"/>
      <point x="217" y="326" type="line"/>
      <point x="181" y="289" type="line"/>
      <point x="173" y="309"/>
      <point x="169" y="331"/>
      <point x="169" y="355" type="curve" smooth="yes"/>
      <point x="169" y="379"/>
      <point x="173" y="401"/>
      <point x="181" y="421" type="curve"/>
      <point x="217" y="385" type="line"/>
      <point x="258" y="424" type="line"/>
      <point x="212" y="470" type="line"/>
      <point x="231" y="491"/>
      <point x="255" y="507"/>
      <point x="283" y="518" type="curve"/>
      <point x="285" y="430"/>
      <point x="340" y="381"/>
      <point x="406" y="357" type="curve"/>
      <point x="340" y="332"/>
      <point x="285" y="283"/>
    </contour>
  </outline>
</glyph>
<glyph name="uniA027" format="2">
  <advance width="520"/>
  <unicode hex="A027"/>
  <outline>
    <contour>
      <point x="260" y="-13" type="curve" smooth="yes"/>
      <point x="395" y="-13"/>
      <point x="451" y="120"/>
      <point x="451" y="295" type="curve" smooth="yes"/>
      <point x="451" y="418" type="line" smooth="yes"/>
      <point x="451" y="594"/>
      <point x="395" y="727"/>
      <point x="260" y="727" type="curve" smooth="yes"/>
      <point x="125" y="727"/>
      <point x="68" y="594"/>
      <point x="68" y="418" type="curve"/>
      <point x="68" y="295" type="line" smooth="yes"/>
      <point x="68" y="120"/>
      <point x="125" y="-13"/>
    </contour>
    <contour>
      <point x="260" y="46" type="curve" smooth="yes"/>
      <point x="170" y="46"/>
      <point x="137" y="152"/>
      <point x="137" y="291" type="curve" smooth="yes"/>
      <point x="137" y="423" type="line"/>
      <point x="137" y="562"/>
      <point x="170" y="668"/>
      <point x="260" y="668" type="curve" smooth="yes"/>
      <point x="350" y="668"/>
      <point x="383" y="562"/>
      <point x="383" y="423" type="curve" smooth="yes"/>
      <point x="383" y="291" type="line" smooth="yes"/>
      <point x="383" y="152"/>
      <point x="350" y="46"/>
    </contour>
    <contour>
      <point x="174" y="181" type="line"/>
      <point x="345" y="181" type="line"/>
      <point x="345" y="234" type="line"/>
      <point x="292" y="234" type="line"/>
      <point x="292" y="498" type="line"/>
      <point x="345" y="498" type="line"/>
      <point x="345" y="552" type="line"/>
      <point x="174" y="552" type="line"/>
      <point x="174" y="498" type="line"/>
      <point x="228" y="498" type="line"/>
      <point x="228" y="234" type="line"/>
      <point x="174" y="234" type="line"/>
    </contour>
  </outline>
</glyph>
<glyph name="uniA028" format="2">
  <advance width="518"/>
  <unicode hex="A028"/>
  <outline>
    <contour>
      <point x="49" y="396" type="line"/>
      <point x="469" y="396" type="line"/>
      <point x="469" y="455" type="line"/>
      <point x="293" y="455" type="line"/>
      <point x="293" y="655" type="line"/>
      <point x="449" y="655" type="line"/>
      <point x="449" y="714" type="line"/>
      <point x="68" y="714" type="line"/>
      <point x="68" y="655" type="line"/>
      <point x="225" y="655" type="line"/>
      <point x="225" y="455" type="line"/>
      <point x="49" y="455" type="line"/>
    </contour>
    <contour>
      <point x="49" y="0" type="line"/>
      <point x="469" y="0" type="line"/>
      <point x="469" y="59" type="line"/>
      <point x="293" y="59" type="line"/>
      <point x="293" y="259" type="line"/>
      <point x="449" y="259" type="line"/>
      <point x="449" y="317" type="line"/>
      <point x="68" y="317" type="line"/>
      <point x="68" y="259" type="line"/>
      <point x="225" y="259" type="line"/>
      <point x="225" y="59" type="line"/>
      <point x="49" y="59" type="line"/>
    </contour>
  </outline>
</glyph>
<glyph name="uniA02A" format="2">
  <advance width="612"/>
  <unicode hex="A02A"/>
  <outline>
    <contour>
      <point x="272" y="415" type="line"/>
      <point x="340" y="415" type="line"/>
      <point x="340" y="550" type="line" smooth="yes"/>
      <point x="340" y="636"/>
      <point x="370" y="668"/>
      <point x="414" y="668" type="curve" smooth="yes"/>
      <point x="469" y="668"/>
      <point x="488" y="640"/>
      <point x="488" y="503" type="curve"/>
      <point x="554" y="503" type="line"/>
      <point x="554" y="612"/>
      <point x="541" y="727"/>
      <point x="419" y="727" type="curve" smooth="yes"/>
      <point x="366" y="727"/>
      <point x="331" y="705"/>
      <point x="306" y="667" type="curve"/>
      <point x="281" y="705"/>
      <point x="247" y="727"/>
      <point x="193" y="727" type="curve" smooth="yes"/>
      <point x="72" y="727"/>
      <point x="59" y="612"/>
      <point x="59" y="503" type="curve"/>
      <point x="125" y="503" type="line"/>
      <point x="125" y="640"/>
      <point x="144" y="668"/>
      <point x="198" y="668" type="curve" smooth="yes"/>
      <point x="243" y="668"/>
      <point x="272" y="636"/>
      <point x="272" y="550" type="curve" smooth="yes"/>
    </contour>
    <contour>
      <point x="303" y="-13" type="curve" smooth="yes"/>
      <point x="418" y="-13"/>
      <point x="480" y="90"/>
      <point x="494" y="244" type="curve"/>
      <point x="427" y="244" type="line"/>
      <point x="419" y="125"/>
      <point x="378" y="46"/>
      <point x="302" y="46" type="curve" smooth="yes"/>
      <point x="227" y="46"/>
      <point x="187" y="126"/>
      <point x="178" y="244" type="curve"/>
      <point x="112" y="244" type="line"/>
      <point x="127" y="92"/>
      <point x="191" y="-13"/>
    </contour>
    <contour>
      <point x="274" y="193" type="line"/>
      <point x="338" y="193" type="line"/>
      <point x="338" y="354" type="line"/>
      <point x="274" y="354" type="line"/>
    </contour>
  </outline>
</glyph>
<glyph name="uniA02B" format="2">
  <advance width="449"/>
  <unicode hex="A02B"/>
  <outline>
    <contour>
      <point x="59" y="0" type="line"/>
      <point x="391" y="0" type="line"/>
      <point x="391" y="59" type="line"/>
      <point x="259" y="59" type="line"/>
      <point x="259" y="298" type="line"/>
      <point x="355" y="200" type="line"/>
      <point x="396" y="240" type="line"/>
      <point x="264" y="374" type="line"/>
      <point x="396" y="508" type="line"/>
      <point x="354" y="546" type="line"/>
      <point x="259" y="449" type="line"/>
      <point x="259" y="655" type="line"/>
      <point x="391" y="655" type="line"/>
      <point x="391" y="714" type="line"/>
      <point x="59" y="714" type="line"/>
      <point x="59" y="655" type="line"/>
      <point x="190" y="655" type="line"/>
      <point x="190" y="449" type="line"/>
      <point x="95" y="546" type="line"/>
      <point x="54" y="508" type="line"/>
      <point x="185" y="374" type="line"/>
      <point x="54" y="240" type="line"/>
      <point x="94" y="200" type="line"/>
      <point x="190" y="298" type="line"/>
      <point x="190" y="59" type="line"/>
      <point x="59" y="59" type="line"/>
    </contour>
  </outline>
</glyph>
<glyph name="uniA02C" format="2">
  <advance width="572"/>
  <unicode hex="A02C"/>
  <outline>
    <contour>
      <point x="252" y="0" type="line"/>
      <point x="321" y="0" type="line"/>
      <point x="321" y="333" type="line"/>
      <point x="451" y="347"/>
      <point x="514" y="438"/>
      <point x="514" y="529" type="curve" smooth="yes"/>
      <point x="514" y="626"/>
      <point x="452" y="727"/>
      <point x="287" y="727" type="curve" smooth="yes"/>
      <point x="122" y="727"/>
      <point x="59" y="625"/>
      <point x="59" y="529" type="curve" smooth="yes"/>
      <point x="59" y="438"/>
      <point x="122" y="347"/>
      <point x="252" y="333" type="curve"/>
    </contour>
    <contour>
      <point x="400" y="151" type="line"/>
      <point x="463" y="151" type="line"/>
      <point x="463" y="311" type="line"/>
      <point x="400" y="311" type="line"/>
    </contour>
    <contour>
      <point x="287" y="391" type="curve" smooth="yes"/>
      <point x="167" y="391"/>
      <point x="127" y="461"/>
      <point x="127" y="529" type="curve" smooth="yes"/>
      <point x="127" y="598"/>
      <point x="168" y="668"/>
      <point x="287" y="668" type="curve" smooth="yes"/>
      <point x="410" y="668"/>
      <point x="445" y="598"/>
      <point x="445" y="529" type="curve" smooth="yes"/>
      <point x="445" y="461"/>
      <point x="409" y="391"/>
    </contour>
  </outline>
</glyph>
<glyph name="uniA02E" format="2">
  <advance width="524"/>
  <unicode hex="A02E"/>
  <outline>
    <contour>
      <point x="289" y="-13" type="line"/>
      <point x="289" y="714" type="line"/>
      <point x="221" y="714" type="line"/>
      <point x="221" y="99" type="line"/>
      <point x="66" y="181" type="line"/>
      <point x="39" y="126" type="line"/>
    </contour>
    <contour>
      <point x="393" y="53" type="line"/>
      <point x="456" y="53" type="line"/>
      <point x="456" y="424" type="line"/>
      <point x="393" y="424" type="line"/>
    </contour>
  </outline>
</glyph>
<glyph name="uniA02F" format="2">
  <advance width="495"/>
  <unicode hex="A02F"/>
  <outline>
    <contour>
      <point x="436" y="0" type="curve"/>
      <point x="436" y="59" type="line"/>
      <point x="319" y="59"/>
      <point x="137" y="153"/>
      <point x="137" y="362" type="curve" smooth="yes"/>
      <point x="137" y="572"/>
      <point x="319" y="655"/>
      <point x="436" y="655" type="curve"/>
      <point x="436" y="714" type="line"/>
      <point x="277" y="704"/>
      <point x="68" y="596"/>
      <point x="68" y="362" type="curve" smooth="yes"/>
      <point x="68" y="129"/>
      <point x="277" y="10"/>
    </contour>
    <contour>
      <point x="408" y="178" type="curve"/>
      <point x="408" y="232" type="line"/>
      <point x="318" y="232"/>
      <point x="288" y="302"/>
      <point x="288" y="360" type="curve" smooth="yes"/>
      <point x="288" y="419"/>
      <point x="319" y="499"/>
      <point x="408" y="499" type="curve"/>
      <point x="408" y="553" type="line"/>
      <point x="277" y="553"/>
      <point x="224" y="441"/>
      <point x="224" y="360" type="curve" smooth="yes"/>
      <point x="224" y="276"/>
      <point x="279" y="178"/>
    </contour>
  </outline>
</glyph>
<glyph name="uniA031" format="2">
  <advance width="606"/>
  <unicode hex="A031"/>
  <outline>
    <contour>
      <point x="259" y="-13" type="curve" smooth="yes"/>
      <point x="393" y="-13"/>
      <point x="426" y="127"/>
      <point x="431" y="252" type="curve"/>
      <point x="529" y="252" type="line"/>
      <point x="529" y="311" type="line"/>
      <point x="432" y="311" type="line"/>
      <point x="432" y="423" type="line"/>
      <point x="529" y="423" type="line"/>
      <point x="529" y="482" type="line"/>
      <point x="432" y="482" type="line"/>
      <point x="432" y="564" type="line" smooth="yes"/>
      <point x="432" y="605"/>
      <point x="433" y="668"/>
      <point x="482" y="668" type="curve" smooth="yes"/>
      <point x="505" y="668"/>
      <point x="518" y="658"/>
      <point x="535" y="645" type="curve"/>
      <point x="557" y="698" type="line"/>
      <point x="537" y="714"/>
      <point x="511" y="727"/>
      <point x="481" y="727" type="curve" smooth="yes"/>
      <point x="396" y="727"/>
      <point x="363" y="664"/>
      <point x="363" y="566" type="curve" smooth="yes"/>
      <point x="363" y="482" type="line"/>
      <point x="266" y="482" type="line"/>
      <point x="266" y="423" type="line"/>
      <point x="363" y="423" type="line"/>
      <point x="363" y="311" type="line"/>
      <point x="266" y="311" type="line"/>
      <point x="266" y="252" type="line"/>
      <point x="363" y="252" type="line"/>
      <point x="359" y="140"/>
      <point x="332" y="46"/>
      <point x="260" y="46" type="curve" smooth="yes"/>
      <point x="187" y="46"/>
      <point x="156" y="154"/>
      <point x="156" y="279" type="curve" smooth="yes"/>
      <point x="156" y="714" type="line"/>
      <point x="88" y="714" type="line"/>
      <point x="88" y="284" type="line" smooth="yes"/>
      <point x="88" y="152"/>
      <point x="115" y="-13"/>
    </contour>
  </outline>
</glyph>
<glyph name="uniA032" format="2">
  <advance width="547"/>
  <unicode hex="A032"/>
  <outline>
    <contour>
      <point x="277" y="-13" type="line"/>
      <point x="277" y="174" type="line"/>
      <point x="327" y="196"/>
      <point x="372" y="231"/>
      <point x="407" y="277" type="curve"/>
      <point x="417" y="242"/>
      <point x="423" y="204"/>
      <point x="423" y="162" type="curve"/>
      <point x="489" y="170" type="line"/>
      <point x="488" y="233"/>
      <point x="474" y="292"/>
      <point x="449" y="344" type="curve"/>
      <point x="474" y="395"/>
      <point x="488" y="454"/>
      <point x="489" y="518" type="curve"/>
      <point x="423" y="525" type="line"/>
      <point x="423" y="483"/>
      <point x="417" y="445"/>
      <point x="407" y="410" type="curve"/>
      <point x="372" y="456"/>
      <point x="327" y="491"/>
      <point x="277" y="514" type="curve"/>
      <point x="277" y="631" type="line"/>
      <point x="420" y="577" type="line"/>
      <point x="441" y="637" type="line"/>
      <point x="208" y="727" type="line"/>
      <point x="208" y="99" type="line"/>
      <point x="88" y="163" type="line"/>
      <point x="59" y="108" type="line"/>
    </contour>
    <contour>
      <point x="277" y="241" type="curve"/>
      <point x="277" y="446" type="line"/>
      <point x="320" y="420"/>
      <point x="354" y="386"/>
      <point x="379" y="344" type="curve"/>
      <point x="354" y="301"/>
      <point x="320" y="267"/>
    </contour>
  </outline>
</glyph>
<glyph name="uniA034" format="2">
  <advance width="539"/>
  <unicode hex="A034"/>
  <outline>
    <contour>
      <point x="277" y="-13" type="line"/>
      <point x="277" y="219" type="line"/>
      <point x="455" y="116" type="line"/>
      <point x="480" y="167" type="line"/>
      <point x="343" y="245" type="line"/>
      <point x="480" y="323" type="line"/>
      <point x="480" y="342" type="line"/>
      <point x="343" y="420" type="line"/>
      <point x="480" y="498" type="line"/>
      <point x="455" y="549" type="line"/>
      <point x="277" y="446" type="line"/>
      <point x="277" y="631" type="line"/>
      <point x="448" y="574" type="line"/>
      <point x="469" y="634" type="line"/>
      <point x="208" y="727" type="line"/>
      <point x="208" y="99" type="line"/>
      <point x="88" y="163" type="line"/>
      <point x="59" y="108" type="line"/>
    </contour>
    <contour>
      <point x="277" y="268" type="line"/>
      <point x="277" y="396" type="line"/>
      <point x="388" y="333" type="line"/>
    </contour>
  </outline>
</glyph>
<glyph name="uniA035" format="2">
  <advance width="602"/>
  <unicode hex="A035"/>
  <outline>
    <contour>
      <point x="365" y="0" type="line"/>
      <point x="433" y="0" type="line"/>
      <point x="433" y="619" type="line"/>
      <point x="538" y="564" type="line"/>
      <point x="563" y="621" type="line"/>
      <point x="365" y="729" type="line"/>
      <point x="365" y="613" type="line"/>
      <point x="160" y="694" type="line"/>
      <point x="160" y="423" type="line"/>
      <point x="62" y="423" type="line"/>
      <point x="62" y="365" type="line"/>
      <point x="160" y="365" type="line"/>
      <point x="160" y="190" type="line"/>
      <point x="228" y="190" type="line"/>
      <point x="228" y="365" type="line"/>
      <point x="326" y="365" type="line"/>
      <point x="326" y="423" type="line"/>
      <point x="228" y="423" type="line"/>
      <point x="228" y="600" type="line"/>
      <point x="365" y="543" type="line"/>
    </contour>
    <contour>
      <point x="194" y="-13" type="curve" smooth="yes"/>
      <point x="282" y="-13"/>
      <point x="333" y="54"/>
      <point x="339" y="200" type="curve"/>
      <point x="282" y="200" type="line"/>
      <point x="273" y="82"/>
      <point x="250" y="46"/>
      <point x="194" y="46" type="curve" smooth="yes"/>
      <point x="124" y="46"/>
      <point x="115" y="104"/>
      <point x="106" y="200" type="curve"/>
      <point x="49" y="200" type="line"/>
      <point x="54" y="91"/>
      <point x="82" y="-13"/>
    </contour>
  </outline>
</glyph>
<glyph name="uniA037" format="2">
  <advance width="705"/>
  <unicode hex="A037"/>
  <outline>
    <contour>
      <point x="365" y="0" type="curve" smooth="yes"/>
      <point x="533" y="0" type="line"/>
      <point x="533" y="619" type="line"/>
      <point x="646" y="560" type="line"/>
      <point x="666" y="619" type="line"/>
      <point x="464" y="729" type="line"/>
      <point x="464" y="468" type="line"/>
      <point x="353" y="468" type="line" smooth="yes"/>
      <point x="193" y="468"/>
      <point x="59" y="390"/>
      <point x="59" y="231" type="curve" smooth="yes"/>
      <point x="59" y="73"/>
      <point x="182" y="0"/>
    </contour>
    <contour>
      <point x="182" y="147" type="line"/>
      <point x="234" y="147" type="line"/>
      <point x="234" y="204" type="line"/>
      <point x="182" y="204" type="line"/>
    </contour>
    <contour>
      <point x="271" y="66" type="line"/>
      <point x="188" y="85"/>
      <point x="127" y="140"/>
      <point x="127" y="231" type="curve" smooth="yes"/>
      <point x="127" y="323"/>
      <point x="188" y="380"/>
      <point x="271" y="400" type="curve"/>
    </contour>
    <contour>
      <point x="182" y="261" type="line"/>
      <point x="234" y="261" type="line"/>
      <point x="234" y="318" type="line"/>
      <point x="182" y="318" type="line"/>
    </contour>
    <contour>
      <point x="375" y="108" type="line"/>
      <point x="427" y="108" type="line"/>
      <point x="427" y="204" type="line"/>
      <point x="375" y="204" type="line"/>
    </contour>
    <contour>
      <point x="333" y="59" type="line"/>
      <point x="333" y="409" type="line"/>
      <point x="464" y="409" type="line"/>
      <point x="464" y="59" type="line"/>
    </contour>
    <contour>
      <point x="375" y="261" type="line"/>
      <point x="427" y="261" type="line"/>
      <point x="427" y="357" type="line"/>
      <point x="375" y="357" type="line"/>
    </contour>
  </outline>
</glyph>
<glyph name="uniA038" format="2">
  <advance width="607"/>
  <unicode hex="A038"/>
  <outline>
    <contour>
      <point x="365" y="0" type="curve" smooth="yes"/>
      <point x="435" y="0" type="line"/>
      <point x="435" y="619" type="line"/>
      <point x="548" y="560" type="line"/>
      <point x="568" y="619" type="line"/>
      <point x="367" y="729" type="line"/>
      <point x="367" y="468" type="line"/>
      <point x="353" y="468" type="line" smooth="yes"/>
      <point x="193" y="468"/>
      <point x="59" y="390"/>
      <point x="59" y="231" type="curve" smooth="yes"/>
      <point x="59" y="73"/>
      <point x="182" y="0"/>
    </contour>
    <contour>
      <point x="343" y="59" type="line"/>
      <point x="261" y="59"/>
      <point x="188" y="86"/>
      <point x="151" y="144" type="curve"/>
      <point x="367" y="144" type="line"/>
      <point x="367" y="59" type="line"/>
    </contour>
    <contour>
      <point x="130" y="197" type="line"/>
      <point x="128" y="208"/>
      <point x="127" y="219"/>
      <point x="127" y="231" type="curve" smooth="yes"/>
      <point x="127" y="247"/>
      <point x="128" y="262"/>
      <point x="132" y="275" type="curve"/>
      <point x="367" y="275" type="line"/>
      <point x="367" y="197" type="line"/>
    </contour>
    <contour>
      <point x="157" y="329" type="line"/>
      <point x="195" y="382"/>
      <point x="265" y="409"/>
      <point x="343" y="409" type="curve" smooth="yes"/>
      <point x="367" y="409" type="line"/>
      <point x="367" y="329" type="line"/>
    </contour>
  </outline>
</glyph>
<glyph name="uniA03A" format="2">
  <advance width="622"/>
  <unicode hex="A03A"/>
  <outline>
    <contour>
      <point x="372" y="-13" type="curve" smooth="yes"/>
      <point x="506" y="-13"/>
      <point x="553" y="85"/>
      <point x="553" y="261" type="curve" smooth="yes"/>
      <point x="553" y="458" type="line" smooth="yes"/>
      <point x="553" y="633"/>
      <point x="506" y="727"/>
      <point x="372" y="727" type="curve" smooth="yes"/>
      <point x="237" y="727"/>
      <point x="190" y="633"/>
      <point x="190" y="458" type="curve"/>
      <point x="190" y="352" type="line"/>
      <point x="122" y="340" type="line"/>
      <point x="122" y="607" type="line"/>
      <point x="59" y="607" type="line"/>
      <point x="59" y="269" type="line"/>
      <point x="190" y="293" type="line"/>
      <point x="190" y="261" type="line" smooth="yes"/>
      <point x="190" y="85"/>
      <point x="237" y="-13"/>
    </contour>
    <contour>
      <point x="372" y="46" type="curve" smooth="yes"/>
      <point x="282" y="46"/>
      <point x="258" y="113"/>
      <point x="258" y="251" type="curve" smooth="yes"/>
      <point x="258" y="305" type="line"/>
      <point x="485" y="347" type="line"/>
      <point x="485" y="251" type="line" smooth="yes"/>
      <point x="485" y="113"/>
      <point x="461" y="46"/>
    </contour>
    <contour>
      <point x="258" y="364" type="line"/>
      <point x="258" y="462" type="line"/>
      <point x="258" y="601"/>
      <point x="282" y="668"/>
      <point x="372" y="668" type="curve" smooth="yes"/>
      <point x="461" y="668"/>
      <point x="485" y="601"/>
      <point x="485" y="462" type="curve" smooth="yes"/>
      <point x="485" y="403" type="line"/>
    </contour>
  </outline>
</glyph>
<glyph name="uniA03B" format="2">
  <advance width="572"/>
  <unicode hex="A03B"/>
  <outline>
    <contour>
      <point x="39" y="0" type="line"/>
      <point x="103" y="0" type="line"/>
      <point x="207" y="273" type="line"/>
      <point x="311" y="0" type="line"/>
      <point x="375" y="0" type="line"/>
      <point x="239" y="357" type="line"/>
      <point x="375" y="714" type="line"/>
      <point x="311" y="714" type="line"/>
      <point x="207" y="441" type="line"/>
      <point x="103" y="714" type="line"/>
      <point x="39" y="714" type="line"/>
      <point x="175" y="357" type="line"/>
    </contour>
    <contour>
      <point x="345" y="242" type="line"/>
      <point x="409" y="242" type="line"/>
      <point x="409" y="530" type="line"/>
      <point x="345" y="530" type="line"/>
    </contour>
    <contour>
      <point x="450" y="242" type="line"/>
      <point x="514" y="242" type="line"/>
      <point x="514" y="530" type="line"/>
      <point x="450" y="530" type="line"/>
    </contour>
  </outline>
</glyph>
<glyph name="uniA03D" format="2">
  <advance width="667"/>
  <unicode hex="A03D"/>
  <outline>
    <contour>
      <point x="229" y="-13" type="curve" smooth="yes"/>
      <point x="371" y="-13"/>
      <point x="392" y="161"/>
      <point x="392" y="358" type="curve" smooth="yes"/>
      <point x="392" y="564"/>
      <point x="372" y="727"/>
      <point x="230" y="727" type="curve" smooth="yes"/>
      <point x="92" y="727"/>
      <point x="68" y="566"/>
      <point x="68" y="362" type="curve" smooth="yes"/>
      <point x="68" y="158"/>
      <point x="88" y="-13"/>
    </contour>
    <contour>
      <point x="229" y="46" type="curve" smooth="yes"/>
      <point x="150" y="46"/>
      <point x="138" y="171"/>
      <point x="137" y="339" type="curve"/>
      <point x="324" y="339" type="line"/>
      <point x="323" y="168"/>
      <point x="311" y="46"/>
    </contour>
    <contour>
      <point x="137" y="397" type="line"/>
      <point x="138" y="559"/>
      <point x="152" y="668"/>
      <point x="229" y="668" type="curve" smooth="yes"/>
      <point x="307" y="668"/>
      <point x="322" y="557"/>
      <point x="323" y="397" type="curve"/>
    </contour>
    <contour>
      <point x="435" y="213" type="line"/>
      <point x="498" y="213" type="line"/>
      <point x="498" y="560" type="line"/>
      <point x="435" y="560" type="line"/>
    </contour>
    <contour>
      <point x="540" y="213" type="line"/>
      <point x="603" y="213" type="line"/>
      <point x="603" y="560" type="line"/>
      <point x="540" y="560" type="line"/>
    </contour>
  </outline>
</glyph>
<glyph name="uniA03E" format="2">
  <advance width="612"/>
  <unicode hex="A03E"/>
  <outline>
    <contour>
      <point x="193" y="-13" type="curve" smooth="yes"/>
      <point x="247" y="-13"/>
      <point x="281" y="9"/>
      <point x="306" y="47" type="curve"/>
      <point x="331" y="9"/>
      <point x="366" y="-13"/>
      <point x="419" y="-13" type="curve" smooth="yes"/>
      <point x="541" y="-13"/>
      <point x="554" y="102"/>
      <point x="554" y="211" type="curve"/>
      <point x="488" y="211" type="line"/>
      <point x="488" y="74"/>
      <point x="469" y="46"/>
      <point x="414" y="46" type="curve" smooth="yes"/>
      <point x="370" y="46"/>
      <point x="340" y="78"/>
      <point x="340" y="164" type="curve" smooth="yes"/>
      <point x="340" y="319" type="line"/>
      <point x="454" y="333"/>
      <point x="495" y="422"/>
      <point x="495" y="517" type="curve" smooth="yes"/>
      <point x="495" y="619"/>
      <point x="447" y="727"/>
      <point x="307" y="727" type="curve" smooth="yes"/>
      <point x="166" y="727"/>
      <point x="118" y="618"/>
      <point x="118" y="517" type="curve" smooth="yes"/>
      <point x="118" y="420"/>
      <point x="159" y="334"/>
      <point x="272" y="319" type="curve"/>
      <point x="272" y="164" type="line" smooth="yes"/>
      <point x="272" y="78"/>
      <point x="243" y="46"/>
      <point x="198" y="46" type="curve" smooth="yes"/>
      <point x="144" y="46"/>
      <point x="125" y="74"/>
      <point x="125" y="211" type="curve"/>
      <point x="59" y="211" type="line"/>
      <point x="59" y="102"/>
      <point x="72" y="-13"/>
    </contour>
    <contour>
      <point x="307" y="372" type="curve" smooth="yes"/>
      <point x="211" y="372"/>
      <point x="181" y="439"/>
      <point x="181" y="517" type="curve" smooth="yes"/>
      <point x="181" y="595"/>
      <point x="208" y="673"/>
      <point x="307" y="673" type="curve" smooth="yes"/>
      <point x="411" y="673"/>
      <point x="431" y="590"/>
      <point x="431" y="517" type="curve" smooth="yes"/>
      <point x="431" y="444"/>
      <point x="404" y="372"/>
    </contour>
    <contour>
      <point x="274" y="458" type="line"/>
      <point x="338" y="458" type="line"/>
      <point x="338" y="589" type="line"/>
      <point x="274" y="589" type="line"/>
    </contour>
  </outline>
</glyph>
<glyph name="uniA03F" format="2">
  <advance width="593"/>
  <unicode hex="A03F"/>
  <outline>
    <contour>
      <point x="88" y="0" type="line"/>
      <point x="156" y="0" type="line"/>
      <point x="156" y="342" type="line"/>
      <point x="437" y="342" type="line"/>
      <point x="437" y="0" type="line"/>
      <point x="505" y="0" type="line"/>
      <point x="505" y="714" type="line"/>
      <point x="437" y="714" type="line"/>
      <point x="437" y="400" type="line"/>
      <point x="156" y="400" type="line"/>
      <point x="156" y="714" type="line"/>
      <point x="88" y="714" type="line"/>
    </contour>
  </outline>
</glyph>
<glyph name="uniA042" format="2">
  <advance width="623"/>
  <unicode hex="A042"/>
  <outline>
    <contour>
      <point x="250" y="-13" type="curve" smooth="yes"/>
      <point x="375" y="-13"/>
      <point x="412" y="69"/>
      <point x="412" y="182" type="curve" smooth="yes"/>
      <point x="412" y="383" type="line"/>
      <point x="481" y="383" type="line"/>
      <point x="481" y="127" type="line"/>
      <point x="544" y="127" type="line"/>
      <point x="544" y="659" type="line"/>
      <point x="481" y="659" type="line"/>
      <point x="481" y="442" type="line"/>
      <point x="412" y="442" type="line"/>
      <point x="412" y="714" type="line"/>
      <point x="344" y="714" type="line"/>
      <point x="344" y="181" type="line" smooth="yes"/>
      <point x="344" y="77"/>
      <point x="313" y="46"/>
      <point x="250" y="46" type="curve" smooth="yes"/>
      <point x="187" y="46"/>
      <point x="156" y="76"/>
      <point x="156" y="181" type="curve" smooth="yes"/>
      <point x="156" y="714" type="line"/>
      <point x="88" y="714" type="line"/>
      <point x="88" y="182" type="line" smooth="yes"/>
      <point x="88" y="69"/>
      <point x="125" y="-13"/>
    </contour>
  </outline>
</glyph>
<glyph name="uniA044" format="2">
  <advance width="573"/>
  <unicode hex="A044"/>
  <outline>
    <contour>
      <point x="311" y="0" type="line"/>
      <point x="379" y="0" type="line"/>
      <point x="379" y="359" type="line"/>
      <point x="503" y="359" type="line"/>
      <point x="503" y="417" type="line"/>
      <point x="319" y="417" type="line" smooth="yes"/>
      <point x="211" y="417"/>
      <point x="153" y="452"/>
      <point x="140" y="510" type="curve"/>
      <point x="504" y="510" type="line"/>
      <point x="504" y="563" type="line"/>
      <point x="139" y="563" type="line"/>
      <point x="152" y="621"/>
      <point x="210" y="655"/>
      <point x="319" y="655" type="curve" smooth="yes"/>
      <point x="503" y="655" type="line"/>
      <point x="503" y="714" type="line"/>
      <point x="336" y="714" type="line" smooth="yes"/>
      <point x="170" y="714"/>
      <point x="68" y="651"/>
      <point x="68" y="537" type="curve" smooth="yes"/>
      <point x="68" y="424"/>
      <point x="159" y="365"/>
      <point x="311" y="359" type="curve"/>
    </contour>
    <contour>
      <point x="82" y="83" type="line"/>
      <point x="145" y="83" type="line"/>
      <point x="145" y="283" type="line"/>
      <point x="82" y="283" type="line"/>
    </contour>
    <contour>
      <point x="196" y="83" type="line"/>
      <point x="260" y="83" type="line"/>
      <point x="260" y="283" type="line"/>
      <point x="196" y="283" type="line"/>
    </contour>
    <contour>
      <point x="430" y="83" type="line"/>
      <point x="493" y="83" type="line"/>
      <point x="493" y="283" type="line"/>
      <point x="430" y="283" type="line"/>
    </contour>
  </outline>
</glyph>
<glyph name="uniA045" format="2">
  <advance width="589"/>
  <unicode hex="A045"/>
  <outline>
    <contour>
      <point x="293" y="-10" type="curve" smooth="yes"/>
      <point x="418" y="-10"/>
      <point x="501" y="39"/>
      <point x="501" y="169" type="curve" smooth="yes"/>
      <point x="501" y="714" type="line"/>
      <point x="309" y="714" type="line" smooth="yes"/>
      <point x="160" y="714"/>
      <point x="63" y="617"/>
      <point x="63" y="494" type="curve" smooth="yes"/>
      <point x="63" y="360"/>
      <point x="165" y="266"/>
      <point x="309" y="266" type="curve" smooth="yes"/>
      <point x="433" y="266" type="line"/>
      <point x="433" y="171" type="line" smooth="yes"/>
      <point x="433" y="61"/>
      <point x="361" y="49"/>
      <point x="291" y="49" type="curve" smooth="yes"/>
      <point x="236" y="49"/>
      <point x="164" y="59"/>
      <point x="113" y="135" type="curve"/>
      <point x="64" y="99" type="line"/>
      <point x="106" y="29"/>
      <point x="182" y="-10"/>
    </contour>
    <contour>
      <point x="262" y="328" type="line"/>
      <point x="184" y="342"/>
      <point x="145" y="393"/>
      <point x="134" y="458" type="curve"/>
      <point x="262" y="458" type="line"/>
    </contour>
    <contour>
      <point x="326" y="324" type="line"/>
      <point x="326" y="458" type="line"/>
      <point x="433" y="458" type="line"/>
      <point x="433" y="324" type="line"/>
    </contour>
    <contour>
      <point x="133" y="516" type="line"/>
      <point x="139" y="583"/>
      <point x="176" y="638"/>
      <point x="262" y="652" type="curve"/>
      <point x="262" y="516" type="line"/>
    </contour>
    <contour>
      <point x="326" y="516" type="line"/>
      <point x="326" y="655" type="line"/>
      <point x="433" y="655" type="line"/>
      <point x="433" y="516" type="line"/>
    </contour>
  </outline>
</glyph>
<glyph name="uniA046" format="2">
  <advance width="620"/>
  <unicode hex="A046"/>
  <outline>
    <contour>
      <point x="247" y="-13" type="curve" smooth="yes"/>
      <point x="382" y="-13"/>
      <point x="385" y="146"/>
      <point x="385" y="331" type="curve" smooth="yes"/>
      <point x="385" y="336" type="line"/>
      <point x="389" y="336" type="line" smooth="yes"/>
      <point x="447" y="336"/>
      <point x="488" y="284"/>
      <point x="488" y="220" type="curve" smooth="yes"/>
      <point x="488" y="164"/>
      <point x="473" y="125"/>
      <point x="426" y="89" type="curve"/>
      <point x="465" y="45" type="line"/>
      <point x="539" y="103"/>
      <point x="557" y="163"/>
      <point x="557" y="220" type="curve" smooth="yes"/>
      <point x="557" y="272"/>
      <point x="528" y="331"/>
      <point x="480" y="362" type="curve"/>
      <point x="527" y="394"/>
      <point x="557" y="448"/>
      <point x="557" y="503" type="curve" smooth="yes"/>
      <point x="557" y="551"/>
      <point x="549" y="615"/>
      <point x="472" y="678" type="curve"/>
      <point x="428" y="636" type="line"/>
      <point x="479" y="598"/>
      <point x="488" y="545"/>
      <point x="488" y="505" type="curve" smooth="yes"/>
      <point x="488" y="443"/>
      <point x="449" y="390"/>
      <point x="389" y="390" type="curve" smooth="yes"/>
      <point x="385" y="390" type="line"/>
      <point x="385" y="394" type="line" smooth="yes"/>
      <point x="385" y="583"/>
      <point x="381" y="727"/>
      <point x="248" y="727" type="curve" smooth="yes"/>
      <point x="136" y="727"/>
      <point x="115" y="628"/>
      <point x="111" y="488" type="curve"/>
      <point x="39" y="488" type="line"/>
      <point x="39" y="429" type="line"/>
      <point x="110" y="429" type="line"/>
      <point x="110" y="302" type="line"/>
      <point x="39" y="302" type="line"/>
      <point x="39" y="244" type="line"/>
      <point x="110" y="244" type="line"/>
      <point x="114" y="96"/>
      <point x="134" y="-13"/>
    </contour>
    <contour>
      <point x="247" y="46" type="curve" smooth="yes"/>
      <point x="185" y="46"/>
      <point x="178" y="122"/>
      <point x="178" y="234" type="curve" smooth="yes"/>
      <point x="178" y="244" type="line"/>
      <point x="259" y="244" type="line"/>
      <point x="259" y="302" type="line"/>
      <point x="178" y="302" type="line"/>
      <point x="178" y="429" type="line"/>
      <point x="259" y="429" type="line"/>
      <point x="259" y="488" type="line"/>
      <point x="178" y="488" type="line"/>
      <point x="178" y="599"/>
      <point x="185" y="668"/>
      <point x="247" y="668" type="curve" smooth="yes"/>
      <point x="310" y="668"/>
      <point x="316" y="596"/>
      <point x="316" y="484" type="curve" smooth="yes"/>
      <point x="316" y="232" type="line" smooth="yes"/>
      <point x="316" y="120"/>
      <point x="310" y="46"/>
    </contour>
  </outline>
</glyph>
<glyph name="uniA048" format="2">
  <advance width="639"/>
  <unicode hex="A048"/>
  <outline>
    <contour>
      <point x="319" y="332" type="curve" smooth="yes"/>
      <point x="474" y="332"/>
      <point x="569" y="463"/>
      <point x="580" y="674" type="curve"/>
      <point x="511" y="674" type="line"/>
      <point x="502" y="521"/>
      <point x="450" y="412"/>
      <point x="351" y="394" type="curve"/>
      <point x="351" y="714" type="line"/>
      <point x="288" y="714" type="line"/>
      <point x="288" y="393" type="line"/>
      <point x="181" y="412"/>
      <point x="134" y="527"/>
      <point x="127" y="674" type="curve"/>
      <point x="59" y="674" type="line"/>
      <point x="68" y="480"/>
      <point x="145" y="332"/>
    </contour>
    <contour>
      <point x="115" y="0" type="line"/>
      <point x="535" y="0" type="line"/>
      <point x="535" y="59" type="line"/>
      <point x="115" y="59" type="line"/>
    </contour>
    <contour>
      <point x="125" y="186" type="line"/>
      <point x="525" y="186" type="line"/>
      <point x="525" y="244" type="line"/>
      <point x="125" y="244" type="line"/>
    </contour>
  </outline>
</glyph>
<glyph name="uniA049" format="2">
  <advance width="563"/>
  <unicode hex="A049"/>
  <outline>
    <contour>
      <point x="264" y="0" type="line"/>
      <point x="332" y="0" type="line"/>
      <point x="332" y="104" type="line"/>
      <point x="498" y="104" type="line"/>
      <point x="498" y="163" type="line"/>
      <point x="332" y="163" type="line"/>
      <point x="332" y="231" type="line"/>
      <point x="483" y="231" type="line"/>
      <point x="483" y="290" type="line"/>
      <point x="332" y="290" type="line"/>
      <point x="332" y="359" type="line"/>
      <point x="498" y="359" type="line"/>
      <point x="498" y="417" type="line"/>
      <point x="314" y="417" type="line" smooth="yes"/>
      <point x="206" y="417"/>
      <point x="148" y="452"/>
      <point x="135" y="510" type="curve"/>
      <point x="500" y="510" type="line"/>
      <point x="500" y="563" type="line"/>
      <point x="134" y="563" type="line"/>
      <point x="147" y="621"/>
      <point x="206" y="655"/>
      <point x="314" y="655" type="curve" smooth="yes"/>
      <point x="498" y="655" type="line"/>
      <point x="498" y="714" type="line"/>
      <point x="331" y="714" type="line" smooth="yes"/>
      <point x="166" y="714"/>
      <point x="63" y="651"/>
      <point x="63" y="537" type="curve" smooth="yes"/>
      <point x="63" y="436"/>
      <point x="138" y="377"/>
      <point x="264" y="362" type="curve"/>
      <point x="264" y="290" type="line"/>
      <point x="112" y="290" type="line"/>
      <point x="112" y="231" type="line"/>
      <point x="264" y="231" type="line"/>
      <point x="264" y="163" type="line"/>
      <point x="98" y="163" type="line"/>
      <point x="98" y="104" type="line"/>
      <point x="264" y="104" type="line"/>
    </contour>
  </outline>
</glyph>
<glyph name="uniA04A" format="2">
  <advance width="501"/>
  <unicode hex="A04A"/>
  <outline>
    <contour>
      <point x="365" y="0" type="line"/>
      <point x="433" y="0" type="line"/>
      <point x="433" y="263" type="line"/>
      <point x="156" y="155" type="line"/>
      <point x="156" y="559" type="line"/>
      <point x="433" y="451" type="line"/>
      <point x="433" y="714" type="line"/>
      <point x="365" y="714" type="line"/>
      <point x="365" y="540" type="line"/>
      <point x="88" y="650" type="line"/>
      <point x="88" y="63" type="line"/>
      <point x="365" y="174" type="line"/>
    </contour>
  </outline>
</glyph>
<glyph name="uniA04C" format="2">
  <advance width="580"/>
  <unicode hex="A04C"/>
  <outline>
    <contour>
      <point x="368" y="0" type="curve" smooth="yes"/>
      <point x="492" y="0" type="line"/>
      <point x="492" y="714" type="line"/>
      <point x="377" y="714" type="line" smooth="yes"/>
      <point x="212" y="714"/>
      <point x="63" y="700"/>
      <point x="63" y="576" type="curve" smooth="yes"/>
      <point x="63" y="521"/>
      <point x="94" y="487"/>
      <point x="143" y="466" type="curve"/>
      <point x="94" y="446"/>
      <point x="63" y="413"/>
      <point x="63" y="358" type="curve" smooth="yes"/>
      <point x="63" y="302"/>
      <point x="95" y="268"/>
      <point x="145" y="248" type="curve"/>
      <point x="95" y="228"/>
      <point x="63" y="193"/>
      <point x="63" y="138" type="curve" smooth="yes"/>
      <point x="63" y="14"/>
      <point x="201" y="0"/>
    </contour>
    <contour>
      <point x="351" y="59" type="line" smooth="yes"/>
      <point x="227" y="59"/>
      <point x="132" y="64"/>
      <point x="132" y="138" type="curve" smooth="yes"/>
      <point x="132" y="211"/>
      <point x="227" y="221"/>
      <point x="351" y="221" type="curve" smooth="yes"/>
      <point x="423" y="221" type="line"/>
      <point x="423" y="59" type="line"/>
    </contour>
    <contour>
      <point x="335" y="275" type="line" smooth="yes"/>
      <point x="216" y="275"/>
      <point x="132" y="287"/>
      <point x="132" y="358" type="curve" smooth="yes"/>
      <point x="132" y="429"/>
      <point x="216" y="439"/>
      <point x="335" y="439" type="curve" smooth="yes"/>
      <point x="423" y="439" type="line"/>
      <point x="423" y="275" type="line"/>
    </contour>
    <contour>
      <point x="333" y="493" type="line" smooth="yes"/>
      <point x="214" y="494"/>
      <point x="132" y="506"/>
      <point x="132" y="576" type="curve" smooth="yes"/>
      <point x="132" y="650"/>
      <point x="227" y="655"/>
      <point x="351" y="655" type="curve" smooth="yes"/>
      <point x="423" y="655" type="line"/>
      <point x="423" y="493" type="line"/>
    </contour>
  </outline>
</glyph>
<glyph name="uniA04D" format="2">
  <advance width="597"/>
  <unicode hex="A04D"/>
  <outline>
    <contour>
      <point x="407" y="-15" type="line"/>
      <point x="407" y="630" type="line"/>
      <point x="537" y="567" type="line"/>
      <point x="558" y="623" type="line"/>
      <point x="339" y="729" type="line"/>
      <point x="339" y="604" type="line"/>
      <point x="185" y="601"/>
      <point x="59" y="530"/>
      <point x="59" y="391" type="curve" smooth="yes"/>
      <point x="59" y="253"/>
      <point x="170" y="188"/>
      <point x="339" y="182" type="curve"/>
      <point x="339" y="83" type="line"/>
      <point x="136" y="168" type="line"/>
      <point x="115" y="112" type="line"/>
    </contour>
    <contour>
      <point x="339" y="240" type="line"/>
      <point x="224" y="240"/>
      <point x="127" y="275"/>
      <point x="127" y="391" type="curve" smooth="yes"/>
      <point x="127" y="505"/>
      <point x="224" y="545"/>
      <point x="339" y="546" type="curve"/>
    </contour>
    <contour>
      <point x="215" y="336" type="line"/>
      <point x="279" y="336" type="line"/>
      <point x="279" y="452" type="line"/>
      <point x="215" y="452" type="line"/>
    </contour>
  </outline>
</glyph>
<glyph name="uniA04F" format="2">
  <advance width="623"/>
  <unicode hex="A04F"/>
  <outline>
    <contour>
      <point x="205" y="-13" type="curve" smooth="yes"/>
      <point x="340" y="-13"/>
      <point x="343" y="146"/>
      <point x="343" y="331" type="curve" smooth="yes"/>
      <point x="343" y="339" type="line"/>
      <point x="386" y="339" type="line"/>
      <point x="386" y="149" type="line"/>
      <point x="449" y="149" type="line"/>
      <point x="449" y="339" type="line"/>
      <point x="491" y="339" type="line"/>
      <point x="491" y="149" type="line"/>
      <point x="554" y="149" type="line"/>
      <point x="554" y="599" type="line"/>
      <point x="491" y="599" type="line"/>
      <point x="491" y="397" type="line"/>
      <point x="449" y="397" type="line"/>
      <point x="449" y="599" type="line"/>
      <point x="386" y="599" type="line"/>
      <point x="386" y="397" type="line"/>
      <point x="343" y="397" type="line"/>
      <point x="343" y="584"/>
      <point x="338" y="727"/>
      <point x="206" y="727" type="curve" smooth="yes"/>
      <point x="72" y="727"/>
      <point x="68" y="584"/>
      <point x="68" y="397" type="curve" smooth="yes"/>
      <point x="68" y="326" type="line" smooth="yes"/>
      <point x="68" y="139"/>
      <point x="72" y="-13"/>
    </contour>
    <contour>
      <point x="205" y="46" type="curve" smooth="yes"/>
      <point x="144" y="46"/>
      <point x="137" y="122"/>
      <point x="137" y="234" type="curve" smooth="yes"/>
      <point x="137" y="489" type="line" smooth="yes"/>
      <point x="137" y="599"/>
      <point x="144" y="668"/>
      <point x="205" y="668" type="curve" smooth="yes"/>
      <point x="268" y="668"/>
      <point x="275" y="596"/>
      <point x="275" y="484" type="curve" smooth="yes"/>
      <point x="275" y="232" type="line"/>
      <point x="275" y="120"/>
      <point x="268" y="46"/>
    </contour>
    <contour>
      <point x="174" y="269" type="line"/>
      <point x="238" y="269" type="line"/>
      <point x="238" y="462" type="line"/>
      <point x="174" y="462" type="line"/>
    </contour>
  </outline>
</glyph>
<glyph name="uniA052" format="2">
  <advance width="643"/>
  <unicode hex="A052"/>
  <outline>
    <contour>
      <point x="88" y="0" type="line"/>
      <point x="144" y="0" type="line"/>
      <point x="321" y="293" type="line"/>
      <point x="499" y="0" type="line"/>
      <point x="555" y="0" type="line"/>
      <point x="555" y="714" type="line"/>
      <point x="499" y="714" type="line"/>
      <point x="321" y="420" type="line"/>
      <point x="144" y="714" type="line"/>
      <point x="88" y="714" type="line"/>
    </contour>
    <contour>
      <point x="156" y="138" type="line"/>
      <point x="156" y="576" type="line"/>
      <point x="285" y="357" type="line"/>
    </contour>
    <contour>
      <point x="486" y="138" type="line"/>
      <point x="357" y="356" type="line"/>
      <point x="486" y="576" type="line"/>
    </contour>
    <contour>
      <point x="411" y="309" type="line"/>
      <point x="457" y="309" type="line"/>
      <point x="457" y="405" type="line"/>
      <point x="411" y="405" type="line"/>
    </contour>
  </outline>
</glyph>
<glyph name="uniA053" format="2">
  <advance width="611"/>
  <unicode hex="A053"/>
  <outline>
    <contour>
      <point x="365" y="0" type="line"/>
      <point x="433" y="0" type="line"/>
      <point x="433" y="619" type="line"/>
      <point x="538" y="564" type="line"/>
      <point x="563" y="621" type="line"/>
      <point x="365" y="729" type="line"/>
      <point x="365" y="614" type="line"/>
      <point x="162" y="694" type="line"/>
      <point x="162" y="423" type="line"/>
      <point x="62" y="423" type="line"/>
      <point x="62" y="365" type="line"/>
      <point x="162" y="365" type="line"/>
      <point x="162" y="190" type="line"/>
      <point x="226" y="190" type="line"/>
      <point x="226" y="365" type="line"/>
      <point x="326" y="365" type="line"/>
      <point x="326" y="423" type="line"/>
      <point x="226" y="423" type="line"/>
      <point x="226" y="600" type="line"/>
      <point x="365" y="546" type="line"/>
    </contour>
    <contour>
      <point x="194" y="-13" type="curve" smooth="yes"/>
      <point x="282" y="-13"/>
      <point x="333" y="54"/>
      <point x="339" y="200" type="curve"/>
      <point x="282" y="200" type="line"/>
      <point x="273" y="82"/>
      <point x="250" y="46"/>
      <point x="194" y="46" type="curve" smooth="yes"/>
      <point x="124" y="46"/>
      <point x="115" y="104"/>
      <point x="106" y="200" type="curve"/>
      <point x="49" y="200" type="line"/>
      <point x="54" y="91"/>
      <point x="82" y="-13"/>
    </contour>
    <contour>
      <point x="488" y="239" type="line"/>
      <point x="552" y="239" type="line"/>
      <point x="552" y="415" type="line"/>
      <point x="488" y="415" type="line"/>
    </contour>
  </outline>
</glyph>
<glyph name="uniA056" format="2">
  <advance width="612"/>
  <unicode hex="A056"/>
  <outline>
    <contour>
      <point x="193" y="-13" type="curve" smooth="yes"/>
      <point x="247" y="-13"/>
      <point x="281" y="9"/>
      <point x="306" y="47" type="curve"/>
      <point x="331" y="9"/>
      <point x="366" y="-13"/>
      <point x="419" y="-13" type="curve" smooth="yes"/>
      <point x="541" y="-13"/>
      <point x="554" y="102"/>
      <point x="554" y="211" type="curve"/>
      <point x="488" y="211" type="line"/>
      <point x="488" y="74"/>
      <point x="469" y="46"/>
      <point x="414" y="46" type="curve" smooth="yes"/>
      <point x="370" y="46"/>
      <point x="340" y="78"/>
      <point x="340" y="164" type="curve" smooth="yes"/>
      <point x="340" y="192" type="line"/>
      <point x="448" y="208"/>
      <point x="520" y="299"/>
      <point x="520" y="459" type="curve" smooth="yes"/>
      <point x="520" y="635"/>
      <point x="432" y="727"/>
      <point x="306" y="727" type="curve" smooth="yes"/>
      <point x="182" y="727"/>
      <point x="93" y="636"/>
      <point x="93" y="461" type="curve" smooth="yes"/>
      <point x="93" y="297"/>
      <point x="166" y="208"/>
      <point x="272" y="192" type="curve"/>
      <point x="272" y="164" type="line" smooth="yes"/>
      <point x="272" y="78"/>
      <point x="243" y="46"/>
      <point x="198" y="46" type="curve" smooth="yes"/>
      <point x="144" y="46"/>
      <point x="125" y="74"/>
      <point x="125" y="211" type="curve"/>
      <point x="59" y="211" type="line"/>
      <point x="59" y="102"/>
      <point x="72" y="-13"/>
    </contour>
    <contour>
      <point x="305" y="249" type="curve" smooth="yes"/>
      <point x="249" y="249"/>
      <point x="198" y="277"/>
      <point x="175" y="354" type="curve"/>
      <point x="438" y="354" type="line"/>
      <point x="415" y="279"/>
      <point x="366" y="249"/>
    </contour>
    <contour>
      <point x="164" y="407" type="line"/>
      <point x="162" y="423"/>
      <point x="161" y="441"/>
      <point x="161" y="461" type="curve" smooth="yes"/>
      <point x="161" y="475"/>
      <point x="162" y="489"/>
      <point x="163" y="501" type="curve"/>
      <point x="449" y="501" type="line"/>
      <point x="450" y="488"/>
      <point x="451" y="473"/>
      <point x="451" y="458" type="curve" smooth="yes"/>
      <point x="451" y="439"/>
      <point x="450" y="423"/>
      <point x="448" y="407" type="curve"/>
    </contour>
    <contour>
      <point x="172" y="555" type="line"/>
      <point x="194" y="636"/>
      <point x="246" y="668"/>
      <point x="305" y="668" type="curve" smooth="yes"/>
      <point x="368" y="668"/>
      <point x="418" y="635"/>
      <point x="440" y="555" type="curve"/>
    </contour>
  </outline>
</glyph>
<glyph name="uniA058" format="2">
  <advance width="582"/>
  <unicode hex="A058"/>
  <outline>
    <contour>
      <point x="256" y="0" type="line"/>
      <point x="325" y="0" type="line"/>
      <point x="325" y="306" type="line"/>
      <point x="503" y="140" type="line"/>
      <point x="543" y="183" type="line"/>
      <point x="334" y="377" type="line"/>
      <point x="543" y="571" type="line"/>
      <point x="504" y="615" type="line"/>
      <point x="325" y="448" type="line"/>
      <point x="325" y="714" type="line"/>
      <point x="256" y="714" type="line"/>
      <point x="256" y="449" type="line"/>
      <point x="78" y="615" type="line"/>
      <point x="39" y="571" type="line"/>
      <point x="248" y="377" type="line"/>
      <point x="39" y="183" type="line"/>
      <point x="79" y="140" type="line"/>
      <point x="256" y="305" type="line"/>
    </contour>
  </outline>
</glyph>
<glyph name="uniA059" format="2">
  <advance width="592"/>
  <unicode hex="A059"/>
  <outline>
    <contour>
      <point x="296" y="-13" type="curve" smooth="yes"/>
      <point x="356" y="-13"/>
      <point x="404" y="10"/>
      <point x="440" y="51" type="curve"/>
      <point x="459" y="33"/>
      <point x="480" y="16"/>
      <point x="504" y="0" type="curve"/>
      <point x="535" y="53" type="line"/>
      <point x="512" y="69"/>
      <point x="492" y="85"/>
      <point x="475" y="103" type="curve"/>
      <point x="508" y="167"/>
      <point x="524" y="256"/>
      <point x="524" y="358" type="curve" smooth="yes"/>
      <point x="524" y="462"/>
      <point x="507" y="552"/>
      <point x="472" y="616" type="curve"/>
      <point x="490" y="635"/>
      <point x="511" y="652"/>
      <point x="535" y="667" type="curve"/>
      <point x="504" y="720" type="line"/>
      <point x="479" y="703"/>
      <point x="457" y="685"/>
      <point x="437" y="667" type="curve"/>
      <point x="402" y="705"/>
      <point x="355" y="727"/>
      <point x="296" y="727" type="curve" smooth="yes"/>
      <point x="240" y="727"/>
      <point x="194" y="706"/>
      <point x="159" y="669" type="curve"/>
      <point x="140" y="687"/>
      <point x="119" y="704"/>
      <point x="95" y="720" type="curve"/>
      <point x="64" y="667" type="line"/>
      <point x="87" y="653"/>
      <point x="106" y="638"/>
      <point x="123" y="621" type="curve"/>
      <point x="86" y="557"/>
      <point x="68" y="467"/>
      <point x="68" y="362" type="curve" smooth="yes"/>
      <point x="68" y="257"/>
      <point x="85" y="166"/>
      <point x="121" y="99" type="curve"/>
      <point x="104" y="83"/>
      <point x="86" y="67"/>
      <point x="64" y="53" type="curve"/>
      <point x="95" y="0" type="line"/>
      <point x="118" y="15"/>
      <point x="138" y="31"/>
      <point x="156" y="48" type="curve"/>
      <point x="191" y="9"/>
      <point x="238" y="-13"/>
    </contour>
    <contour>
      <point x="165" y="156" type="curve"/>
      <point x="145" y="210"/>
      <point x="137" y="282"/>
      <point x="137" y="362" type="curve" smooth="yes"/>
      <point x="137" y="441"/>
      <point x="146" y="510"/>
      <point x="167" y="562" type="curve"/>
      <point x="196" y="510"/>
      <point x="208" y="445"/>
      <point x="208" y="363" type="curve" smooth="yes"/>
      <point x="208" y="276"/>
      <point x="195" y="210"/>
    </contour>
    <contour>
      <point x="295" y="46" type="curve" smooth="yes"/>
      <point x="253" y="46"/>
      <point x="221" y="63"/>
      <point x="197" y="94" type="curve"/>
      <point x="250" y="166"/>
      <point x="271" y="255"/>
      <point x="271" y="363" type="curve" smooth="yes"/>
      <point x="271" y="465"/>
      <point x="253" y="550"/>
      <point x="201" y="622" type="curve"/>
      <point x="225" y="651"/>
      <point x="256" y="668"/>
      <point x="295" y="668" type="curve" smooth="yes"/>
      <point x="338" y="668"/>
      <point x="371" y="650"/>
      <point x="396" y="618" type="curve"/>
      <point x="346" y="547"/>
      <point x="328" y="463"/>
      <point x="328" y="363" type="curve" smooth="yes"/>
      <point x="328" y="258"/>
      <point x="349" y="171"/>
      <point x="398" y="100" type="curve"/>
      <point x="373" y="65"/>
      <point x="339" y="46"/>
    </contour>
    <contour>
      <point x="430" y="165" type="curve"/>
      <point x="403" y="217"/>
      <point x="392" y="281"/>
      <point x="392" y="363" type="curve" smooth="yes"/>
      <point x="392" y="441"/>
      <point x="402" y="503"/>
      <point x="429" y="555" type="curve"/>
      <point x="447" y="502"/>
      <point x="456" y="435"/>
      <point x="456" y="358" type="curve" smooth="yes"/>
      <point x="456" y="283"/>
      <point x="447" y="217"/>
    </contour>
  </outline>
</glyph>
<glyph name="uniA05A" format="2">
  <advance width="627"/>
  <unicode hex="A05A"/>
  <outline>
    <contour>
      <point x="201" y="222" type="curve" smooth="yes"/>
      <point x="254" y="222"/>
      <point x="288" y="244"/>
      <point x="313" y="281" type="curve"/>
      <point x="338" y="244"/>
      <point x="373" y="222"/>
      <point x="426" y="222" type="curve" smooth="yes"/>
      <point x="558" y="222"/>
      <point x="563" y="346"/>
      <point x="563" y="455" type="curve" smooth="yes"/>
      <point x="563" y="468" type="line"/>
      <point x="495" y="468" type="line"/>
      <point x="495" y="464" type="line" smooth="yes"/>
      <point x="495" y="328"/>
      <point x="486" y="280"/>
      <point x="421" y="280" type="curve" smooth="yes"/>
      <point x="377" y="280"/>
      <point x="348" y="313"/>
      <point x="348" y="398" type="curve" smooth="yes"/>
      <point x="348" y="430" type="line"/>
      <point x="432" y="443"/>
      <point x="490" y="504"/>
      <point x="490" y="577" type="curve" smooth="yes"/>
      <point x="490" y="659"/>
      <point x="415" y="727"/>
      <point x="312" y="727" type="curve" smooth="yes"/>
      <point x="209" y="727"/>
      <point x="137" y="659"/>
      <point x="137" y="577" type="curve" smooth="yes"/>
      <point x="137" y="503"/>
      <point x="194" y="442"/>
      <point x="279" y="430" type="curve"/>
      <point x="279" y="398" type="line" smooth="yes"/>
      <point x="279" y="313"/>
      <point x="250" y="280"/>
      <point x="206" y="280" type="curve" smooth="yes"/>
      <point x="141" y="280"/>
      <point x="132" y="328"/>
      <point x="132" y="464" type="curve" smooth="yes"/>
      <point x="132" y="468" type="line"/>
      <point x="63" y="468" type="line"/>
      <point x="63" y="455" type="line" smooth="yes"/>
      <point x="63" y="346"/>
      <point x="69" y="222"/>
    </contour>
    <contour>
      <point x="284" y="0" type="line"/>
      <point x="353" y="0" type="line"/>
      <point x="353" y="194" type="line"/>
      <point x="284" y="194" type="line"/>
    </contour>
    <contour>
      <point x="312" y="481" type="curve" smooth="yes"/>
      <point x="243" y="481"/>
      <point x="200" y="523"/>
      <point x="200" y="578" type="curve" smooth="yes"/>
      <point x="200" y="631"/>
      <point x="243" y="673"/>
      <point x="312" y="673" type="curve" smooth="yes"/>
      <point x="381" y="673"/>
      <point x="427" y="634"/>
      <point x="427" y="578" type="curve" smooth="yes"/>
      <point x="427" y="521"/>
      <point x="381" y="481"/>
    </contour>
  </outline>
</glyph>
<glyph name="uniA05C" format="2">
  <advance width="571"/>
  <unicode hex="A05C"/>
  <outline>
    <contour>
      <point x="207" y="-15" type="line"/>
      <point x="207" y="438" type="line"/>
      <point x="256" y="396" type="line"/>
      <point x="255" y="384"/>
      <point x="255" y="371"/>
      <point x="255" y="357" type="curve" smooth="yes"/>
      <point x="255" y="197"/>
      <point x="318" y="77"/>
      <point x="446" y="-5" type="curve"/>
      <point x="481" y="48" type="line"/>
      <point x="375" y="119"/>
      <point x="323" y="207"/>
      <point x="323" y="357" type="curve" smooth="yes"/>
      <point x="323" y="505"/>
      <point x="376" y="600"/>
      <point x="481" y="667" type="curve"/>
      <point x="446" y="720" type="line"/>
      <point x="345" y="653"/>
      <point x="288" y="570"/>
      <point x="266" y="468" type="curve"/>
      <point x="144" y="572" type="line"/>
      <point x="144" y="103" type="line"/>
      <point x="70" y="153" type="line"/>
      <point x="39" y="104" type="line"/>
    </contour>
    <contour>
      <point x="469" y="147" type="curve"/>
      <point x="513" y="189" type="line"/>
      <point x="477" y="230"/>
      <point x="455" y="274"/>
      <point x="450" y="333" type="curve"/>
      <point x="498" y="333" type="line"/>
      <point x="498" y="392" type="line"/>
      <point x="451" y="392" type="line"/>
      <point x="459" y="463"/>
      <point x="491" y="500"/>
      <point x="513" y="526" type="curve"/>
      <point x="469" y="568" type="line"/>
      <point x="435" y="535"/>
      <point x="394" y="480"/>
      <point x="385" y="392" type="curve"/>
      <point x="346" y="392" type="line"/>
      <point x="346" y="333" type="line"/>
      <point x="384" y="333" type="line"/>
      <point x="389" y="252"/>
      <point x="421" y="196"/>
    </contour>
  </outline>
</glyph>
<glyph name="uniA05D" format="2">
  <advance width="614"/>
  <unicode hex="A05D"/>
  <outline>
    <contour>
      <point x="89" y="-5" type="line"/>
      <point x="214" y="75"/>
      <point x="277" y="191"/>
      <point x="280" y="346" type="curve"/>
      <point x="334" y="346" type="line"/>
      <point x="337" y="191"/>
      <point x="400" y="75"/>
      <point x="525" y="-5" type="curve"/>
      <point x="561" y="48" type="line"/>
      <point x="457" y="117"/>
      <point x="405" y="203"/>
      <point x="402" y="346" type="curve"/>
      <point x="531" y="346" type="line"/>
      <point x="531" y="405" type="line"/>
      <point x="404" y="405" type="line"/>
      <point x="415" y="526"/>
      <point x="467" y="607"/>
      <point x="561" y="667" type="curve"/>
      <point x="525" y="720" type="line"/>
      <point x="404" y="640"/>
      <point x="347" y="536"/>
      <point x="336" y="405" type="curve"/>
      <point x="278" y="405" type="line"/>
      <point x="268" y="536"/>
      <point x="210" y="640"/>
      <point x="89" y="720" type="curve"/>
      <point x="54" y="667" type="line"/>
      <point x="147" y="607"/>
      <point x="199" y="526"/>
      <point x="210" y="405" type="curve"/>
      <point x="83" y="405" type="line"/>
      <point x="83" y="346" type="line"/>
      <point x="212" y="346" type="line"/>
      <point x="209" y="203"/>
      <point x="157" y="117"/>
      <point x="54" y="48" type="curve"/>
    </contour>
  </outline>
</glyph>
<glyph name="uniA05E" format="2">
  <advance width="629"/>
  <unicode hex="A05E"/>
  <outline>
    <contour>
      <point x="89" y="-5" type="line"/>
      <point x="153" y="36"/>
      <point x="196" y="86"/>
      <point x="223" y="146" type="curve"/>
      <point x="407" y="146" type="line"/>
      <point x="434" y="86"/>
      <point x="476" y="36"/>
      <point x="540" y="-5" type="curve"/>
      <point x="576" y="48" type="line"/>
      <point x="469" y="119"/>
      <point x="437" y="207"/>
      <point x="437" y="357" type="curve" smooth="yes"/>
      <point x="437" y="505"/>
      <point x="471" y="600"/>
      <point x="576" y="667" type="curve"/>
      <point x="540" y="720" type="line"/>
      <point x="476" y="676"/>
      <point x="434" y="625"/>
      <point x="407" y="566" type="curve"/>
      <point x="222" y="566" type="line"/>
      <point x="196" y="625"/>
      <point x="153" y="676"/>
      <point x="89" y="720" type="curve"/>
      <point x="54" y="667" type="line"/>
      <point x="159" y="600"/>
      <point x="192" y="505"/>
      <point x="192" y="357" type="curve" smooth="yes"/>
      <point x="192" y="207"/>
      <point x="160" y="119"/>
      <point x="54" y="48" type="curve"/>
    </contour>
    <contour>
      <point x="243" y="205" type="line"/>
      <point x="253" y="242"/>
      <point x="258" y="283"/>
      <point x="260" y="327" type="curve"/>
      <point x="369" y="327" type="line"/>
      <point x="371" y="283"/>
      <point x="376" y="242"/>
      <point x="386" y="205" type="curve"/>
    </contour>
    <contour>
      <point x="260" y="385" type="line"/>
      <point x="259" y="429"/>
      <point x="253" y="469"/>
      <point x="243" y="507" type="curve"/>
      <point x="386" y="507" type="line"/>
      <point x="376" y="469"/>
      <point x="371" y="429"/>
      <point x="369" y="385" type="curve"/>
    </contour>
  </outline>
</glyph>
<glyph name="uniA060" format="2">
  <advance width="801"/>
  <unicode hex="A060"/>
  <outline>
    <contour>
      <point x="364" y="-8" type="line"/>
      <point x="525" y="292" type="line"/>
      <point x="691" y="-8" type="line"/>
      <point x="713" y="-8" type="line"/>
      <point x="713" y="719" type="line"/>
      <point x="691" y="719" type="line"/>
      <point x="525" y="418" type="line"/>
      <point x="364" y="719" type="line"/>
      <point x="309" y="687" type="line"/>
      <point x="491" y="355" type="line"/>
      <point x="309" y="24" type="line"/>
    </contour>
    <contour>
      <point x="87" y="138" type="line"/>
      <point x="168" y="297" type="line"/>
      <point x="250" y="138" type="line"/>
      <point x="323" y="162" type="line"/>
      <point x="323" y="553" type="line"/>
      <point x="254" y="578" type="line"/>
      <point x="168" y="413" type="line"/>
      <point x="83" y="578" type="line"/>
      <point x="39" y="553" type="line"/>
      <point x="139" y="356" type="line"/>
      <point x="39" y="165" type="line"/>
    </contour>
    <contour>
      <point x="272" y="213" type="line"/>
      <point x="198" y="356" type="line"/>
      <point x="272" y="503" type="line"/>
    </contour>
    <contour>
      <point x="645" y="198" type="line"/>
      <point x="560" y="355" type="line"/>
      <point x="645" y="513" type="line"/>
    </contour>
  </outline>
</glyph>
<glyph name="uniA061" format="2">
  <advance width="637"/>
  <unicode hex="A061"/>
  <outline>
    <contour>
      <point x="206" y="368" type="curve" smooth="yes"/>
      <point x="259" y="368"/>
      <point x="293" y="390"/>
      <point x="318" y="428" type="curve"/>
      <point x="343" y="390"/>
      <point x="378" y="368"/>
      <point x="431" y="368" type="curve" smooth="yes"/>
      <point x="563" y="368"/>
      <point x="568" y="492"/>
      <point x="568" y="601" type="curve" smooth="yes"/>
      <point x="568" y="714" type="line"/>
      <point x="500" y="714" type="line"/>
      <point x="500" y="611" type="line" smooth="yes"/>
      <point x="500" y="474"/>
      <point x="491" y="427"/>
      <point x="426" y="427" type="curve" smooth="yes"/>
      <point x="382" y="427"/>
      <point x="353" y="459"/>
      <point x="353" y="544" type="curve" smooth="yes"/>
      <point x="353" y="714" type="line"/>
      <point x="284" y="714" type="line"/>
      <point x="284" y="544" type="line" smooth="yes"/>
      <point x="284" y="459"/>
      <point x="255" y="427"/>
      <point x="210" y="427" type="curve" smooth="yes"/>
      <point x="146" y="427"/>
      <point x="137" y="474"/>
      <point x="137" y="611" type="curve" smooth="yes"/>
      <point x="137" y="714" type="line"/>
      <point x="68" y="714" type="line"/>
      <point x="68" y="601" type="line" smooth="yes"/>
      <point x="68" y="492"/>
      <point x="74" y="368"/>
    </contour>
    <contour>
      <point x="114" y="0" type="line"/>
      <point x="534" y="0" type="line"/>
      <point x="534" y="59" type="line"/>
      <point x="114" y="59" type="line"/>
    </contour>
    <contour>
      <point x="124" y="186" type="line"/>
      <point x="524" y="186" type="line"/>
      <point x="524" y="244" type="line"/>
      <point x="124" y="244" type="line"/>
    </contour>
  </outline>
</glyph>
<glyph name="uniA063" format="2">
  <advance width="574"/>
  <unicode hex="A063"/>
  <outline>
    <contour>
      <point x="486" y="-15" type="line"/>
      <point x="486" y="714" type="line"/>
      <point x="417" y="714" type="line"/>
      <point x="417" y="70" type="line"/>
      <point x="111" y="166" type="line"/>
      <point x="91" y="105" type="line"/>
    </contour>
    <contour>
      <point x="73" y="218" type="line"/>
      <point x="356" y="218" type="line"/>
      <point x="356" y="271" type="line"/>
      <point x="73" y="271" type="line"/>
    </contour>
    <contour>
      <point x="73" y="330" type="line"/>
      <point x="356" y="330" type="line"/>
      <point x="356" y="384" type="line"/>
      <point x="73" y="384" type="line"/>
    </contour>
    <contour>
      <point x="361" y="425" type="line"/>
      <point x="361" y="694" type="line"/>
      <point x="298" y="694" type="line"/>
      <point x="298" y="542" type="line"/>
      <point x="63" y="704" type="line"/>
      <point x="63" y="435" type="line"/>
      <point x="127" y="435" type="line"/>
      <point x="127" y="589" type="line"/>
    </contour>
  </outline>
</glyph>
<glyph name="uniA064" format="2">
  <advance width="607"/>
  <unicode hex="A064"/>
  <outline>
    <contour>
      <point x="303" y="-13" type="curve" smooth="yes"/>
      <point x="438" y="-13"/>
      <point x="441" y="146"/>
      <point x="441" y="331" type="curve" smooth="yes"/>
      <point x="441" y="394" type="line"/>
      <point x="441" y="583"/>
      <point x="437" y="727"/>
      <point x="304" y="727" type="curve" smooth="yes"/>
      <point x="170" y="727"/>
      <point x="166" y="584"/>
      <point x="166" y="397" type="curve" smooth="yes"/>
      <point x="166" y="326" type="line" smooth="yes"/>
      <point x="166" y="139"/>
      <point x="170" y="-13"/>
    </contour>
    <contour>
      <point x="59" y="66" type="line"/>
      <point x="122" y="66" type="line"/>
      <point x="122" y="226" type="line"/>
      <point x="59" y="226" type="line"/>
    </contour>
    <contour>
      <point x="303" y="46" type="curve" smooth="yes"/>
      <point x="241" y="46"/>
      <point x="234" y="122"/>
      <point x="234" y="234" type="curve" smooth="yes"/>
      <point x="234" y="489" type="line" smooth="yes"/>
      <point x="234" y="599"/>
      <point x="241" y="668"/>
      <point x="303" y="668" type="curve" smooth="yes"/>
      <point x="366" y="668"/>
      <point x="373" y="596"/>
      <point x="373" y="484" type="curve" smooth="yes"/>
      <point x="373" y="232" type="line"/>
      <point x="373" y="120"/>
      <point x="366" y="46"/>
    </contour>
    <contour>
      <point x="485" y="66" type="line"/>
      <point x="548" y="66" type="line"/>
      <point x="548" y="226" type="line"/>
      <point x="485" y="226" type="line"/>
    </contour>
    <contour>
      <point x="59" y="519" type="line"/>
      <point x="122" y="519" type="line"/>
      <point x="122" y="679" type="line"/>
      <point x="59" y="679" type="line"/>
    </contour>
    <contour>
      <point x="485" y="519" type="line"/>
      <point x="548" y="519" type="line"/>
      <point x="548" y="679" type="line"/>
      <point x="485" y="679" type="line"/>
    </contour>
  </outline>
</glyph>
<glyph name="uniA065" format="2">
  <advance width="609"/>
  <unicode hex="A065"/>
  <outline>
    <contour>
      <point x="339" y="0" type="line"/>
      <point x="407" y="0" type="line"/>
      <point x="407" y="714" type="line"/>
      <point x="339" y="714" type="line"/>
      <point x="339" y="607" type="line"/>
      <point x="185" y="603"/>
      <point x="59" y="525"/>
      <point x="59" y="386" type="curve" smooth="yes"/>
      <point x="59" y="249"/>
      <point x="170" y="176"/>
      <point x="339" y="169" type="curve"/>
    </contour>
    <contour>
      <point x="339" y="228" type="line"/>
      <point x="224" y="229"/>
      <point x="127" y="271"/>
      <point x="127" y="386" type="curve" smooth="yes"/>
      <point x="127" y="500"/>
      <point x="224" y="548"/>
      <point x="339" y="549" type="curve"/>
    </contour>
    <contour>
      <point x="477" y="145" type="line"/>
      <point x="541" y="145" type="line"/>
      <point x="541" y="626" type="line"/>
      <point x="477" y="626" type="line"/>
    </contour>
  </outline>
</glyph>
<glyph name="uniA068" format="2">
  <advance width="612"/>
  <unicode hex="A068"/>
  <outline>
    <contour>
      <point x="68" y="234" type="curve"/>
      <point x="137" y="234" type="line"/>
      <point x="150" y="343"/>
      <point x="221" y="378"/>
      <point x="301" y="378" type="curve" smooth="yes"/>
      <point x="376" y="378"/>
      <point x="452" y="357"/>
      <point x="475" y="234" type="curve"/>
      <point x="544" y="234" type="line"/>
      <point x="524" y="354"/>
      <point x="441" y="421"/>
      <point x="340" y="434" type="curve"/>
      <point x="340" y="550" type="line"/>
      <point x="340" y="636"/>
      <point x="370" y="668"/>
      <point x="414" y="668" type="curve" smooth="yes"/>
      <point x="469" y="668"/>
      <point x="488" y="640"/>
      <point x="488" y="503" type="curve"/>
      <point x="554" y="503" type="line"/>
      <point x="554" y="612"/>
      <point x="541" y="727"/>
      <point x="419" y="727" type="curve" smooth="yes"/>
      <point x="366" y="727"/>
      <point x="331" y="705"/>
      <point x="306" y="667" type="curve"/>
      <point x="281" y="705"/>
      <point x="247" y="727"/>
      <point x="193" y="727" type="curve" smooth="yes"/>
      <point x="72" y="727"/>
      <point x="59" y="612"/>
      <point x="59" y="503" type="curve"/>
      <point x="125" y="503" type="line"/>
      <point x="125" y="640"/>
      <point x="144" y="668"/>
      <point x="198" y="668" type="curve" smooth="yes"/>
      <point x="243" y="668"/>
      <point x="272" y="636"/>
      <point x="272" y="550" type="curve" smooth="yes"/>
      <point x="272" y="435" type="line"/>
      <point x="167" y="424"/>
      <point x="86" y="358"/>
    </contour>
    <contour>
      <point x="306" y="-13" type="curve" smooth="yes"/>
      <point x="406" y="-13"/>
      <point x="472" y="62"/>
      <point x="490" y="183" type="curve"/>
      <point x="423" y="183" type="line"/>
      <point x="411" y="94"/>
      <point x="367" y="46"/>
      <point x="305" y="46" type="curve" smooth="yes"/>
      <point x="244" y="46"/>
      <point x="201" y="94"/>
      <point x="189" y="183" type="curve"/>
      <point x="125" y="183" type="line"/>
      <point x="140" y="64"/>
      <point x="210" y="-13"/>
    </contour>
    <contour>
      <point x="274" y="169" type="line"/>
      <point x="338" y="169" type="line"/>
      <point x="338" y="305" type="line"/>
      <point x="274" y="305" type="line"/>
    </contour>
  </outline>
</glyph>
<glyph name="uniA06A" format="2">
  <advance width="576"/>
  <unicode hex="A06A"/>
  <outline>
    <contour>
      <point x="513" y="229" type="line"/>
      <point x="513" y="499" type="line"/>
      <point x="449" y="499" type="line"/>
      <point x="449" y="321" type="line"/>
      <point x="63" y="533" type="line"/>
      <point x="63" y="238" type="line"/>
      <point x="127" y="238" type="line"/>
      <point x="127" y="433" type="line"/>
    </contour>
    <contour>
      <point x="112" y="0" type="line"/>
      <point x="464" y="0" type="line"/>
      <point x="464" y="59" type="line"/>
      <point x="112" y="59" type="line"/>
    </contour>
    <contour>
      <point x="137" y="142" type="line"/>
      <point x="439" y="142" type="line"/>
      <point x="439" y="200" type="line"/>
      <point x="137" y="200" type="line"/>
    </contour>
    <contour>
      <point x="430" y="507" type="line"/>
      <point x="430" y="714" type="line"/>
      <point x="366" y="714" type="line"/>
      <point x="366" y="603" type="line"/>
      <point x="142" y="724" type="line"/>
      <point x="142" y="531" type="line"/>
      <point x="205" y="531" type="line"/>
      <point x="205" y="625" type="line"/>
    </contour>
  </outline>
</glyph>
<glyph name="uniA06B" format="2">
  <advance width="608"/>
  <unicode hex="A06B"/>
  <outline>
    <contour>
      <point x="416" y="-15" type="line"/>
      <point x="416" y="366" type="line"/>
      <point x="569" y="571" type="line"/>
      <point x="520" y="609" type="line"/>
      <point x="416" y="467" type="line"/>
      <point x="416" y="714" type="line"/>
      <point x="348" y="714" type="line"/>
      <point x="348" y="85" type="line"/>
      <point x="137" y="182" type="line"/>
      <point x="115" y="128" type="line"/>
    </contour>
    <contour>
      <point x="63" y="292" type="line"/>
      <point x="293" y="292" type="line"/>
      <point x="293" y="351" type="line"/>
      <point x="63" y="351" type="line"/>
    </contour>
    <contour>
      <point x="293" y="410" type="line"/>
      <point x="293" y="680" type="line"/>
      <point x="229" y="680" type="line"/>
      <point x="229" y="542" type="line"/>
      <point x="63" y="689" type="line"/>
      <point x="63" y="420" type="line"/>
      <point x="127" y="420" type="line"/>
      <point x="127" y="560" type="line"/>
    </contour>
  </outline>
</glyph>
<glyph name="uniA06C" format="2">
  <advance width="616"/>
  <unicode hex="A06C"/>
  <outline>
    <contour>
      <point x="215" y="0" type="line"/>
      <point x="284" y="0" type="line"/>
      <point x="284" y="335" type="line"/>
      <point x="401" y="280" type="line"/>
      <point x="401" y="714" type="line"/>
      <point x="333" y="714" type="line"/>
      <point x="333" y="377" type="line"/>
      <point x="215" y="435" type="line"/>
    </contour>
    <contour>
      <point x="39" y="49" type="line"/>
      <point x="114" y="65"/>
      <point x="167" y="111"/>
      <point x="167" y="180" type="curve" smooth="yes"/>
      <point x="167" y="244"/>
      <point x="125" y="292"/>
      <point x="39" y="310" type="curve"/>
      <point x="39" y="252" type="line"/>
      <point x="80" y="241"/>
      <point x="105" y="222"/>
      <point x="105" y="180" type="curve" smooth="yes"/>
      <point x="105" y="135"/>
      <point x="73" y="118"/>
      <point x="39" y="107" type="curve"/>
    </contour>
    <contour>
      <point x="460" y="-5" type="curve"/>
      <point x="460" y="52" type="line"/>
      <point x="419" y="64"/>
      <point x="394" y="83"/>
      <point x="394" y="125" type="curve" smooth="yes"/>
      <point x="394" y="169"/>
      <point x="426" y="187"/>
      <point x="460" y="197" type="curve"/>
      <point x="460" y="256" type="line"/>
      <point x="385" y="240"/>
      <point x="333" y="194"/>
      <point x="333" y="125" type="curve" smooth="yes"/>
      <point x="333" y="61"/>
      <point x="374" y="13"/>
    </contour>
    <contour>
      <point x="156" y="453" type="line"/>
      <point x="231" y="469"/>
      <point x="284" y="515"/>
      <point x="284" y="584" type="curve" smooth="yes"/>
      <point x="284" y="647"/>
      <point x="243" y="696"/>
      <point x="156" y="713" type="curve"/>
      <point x="156" y="656" type="line"/>
      <point x="197" y="645"/>
      <point x="223" y="625"/>
      <point x="223" y="584" type="curve" smooth="yes"/>
      <point x="223" y="539"/>
      <point x="190" y="521"/>
      <point x="156" y="511" type="curve"/>
    </contour>
    <contour>
      <point x="577" y="453" type="curve"/>
      <point x="577" y="510" type="line"/>
      <point x="536" y="521"/>
      <point x="511" y="541"/>
      <point x="511" y="582" type="curve" smooth="yes"/>
      <point x="511" y="627"/>
      <point x="543" y="645"/>
      <point x="577" y="655" type="curve"/>
      <point x="577" y="713" type="line"/>
      <point x="502" y="697"/>
      <point x="450" y="651"/>
      <point x="450" y="582" type="curve" smooth="yes"/>
      <point x="450" y="519"/>
      <point x="491" y="470"/>
    </contour>
  </outline>
</glyph>
<glyph name="uniA06E" format="2">
  <advance width="591"/>
  <unicode hex="A06E"/>
  <outline>
    <contour>
      <point x="294" y="0" type="line"/>
      <point x="362" y="0" type="line"/>
      <point x="362" y="575" type="line"/>
      <point x="522" y="500" type="line"/>
      <point x="522" y="714" type="line"/>
      <point x="459" y="714" type="line"/>
      <point x="459" y="595" type="line"/>
      <point x="294" y="681" type="line"/>
      <point x="294" y="473" type="line"/>
      <point x="144" y="582" type="line"/>
      <point x="144" y="225" type="line"/>
      <point x="70" y="275" type="line"/>
      <point x="39" y="227" type="line"/>
      <point x="207" y="107" type="line"/>
      <point x="207" y="465" type="line"/>
      <point x="294" y="403" type="line"/>
    </contour>
    <contour>
      <point x="459" y="149" type="line"/>
      <point x="522" y="149" type="line"/>
      <point x="522" y="422" type="line"/>
      <point x="459" y="422" type="line"/>
    </contour>
  </outline>
</glyph>
<glyph name="uniA06F" format="2">
  <advance width="554"/>
  <unicode hex="A06F"/>
  <outline>
    <contour>
      <point x="68" y="0" type="line"/>
      <point x="137" y="0" type="line"/>
      <point x="137" y="186" type="line"/>
      <point x="345" y="86" type="line"/>
      <point x="345" y="623" type="line"/>
      <point x="465" y="561" type="line"/>
      <point x="495" y="615" type="line"/>
      <point x="277" y="727" type="line"/>
      <point x="277" y="509" type="line"/>
      <point x="68" y="650" type="line"/>
      <point x="68" y="400" type="line"/>
      <point x="132" y="400" type="line"/>
      <point x="132" y="533" type="line"/>
      <point x="277" y="439" type="line"/>
      <point x="277" y="185" type="line"/>
      <point x="68" y="293" type="line"/>
    </contour>
    <contour>
      <point x="413" y="267" type="line"/>
      <point x="476" y="267" type="line"/>
      <point x="476" y="471" type="line"/>
      <point x="413" y="471" type="line"/>
    </contour>
  </outline>
</glyph>
<glyph name="uniA071" format="2">
  <advance width="576"/>
  <unicode hex="A071"/>
  <outline>
    <contour>
      <point x="63" y="15" type="curve"/>
      <point x="127" y="15" type="line"/>
      <point x="144" y="160"/>
      <point x="194" y="255"/>
      <point x="287" y="255" type="curve" smooth="yes"/>
      <point x="385" y="255"/>
      <point x="434" y="160"/>
      <point x="449" y="15" type="curve"/>
      <point x="512" y="15" type="line"/>
      <point x="496" y="171"/>
      <point x="439" y="287"/>
      <point x="329" y="310" type="curve"/>
      <point x="494" y="702" type="line"/>
      <point x="437" y="724" type="line"/>
      <point x="292" y="373" type="line"/>
      <point x="73" y="701" type="line"/>
      <point x="73" y="318" type="line"/>
      <point x="136" y="318" type="line"/>
      <point x="136" y="502" type="line"/>
      <point x="265" y="312" type="line"/>
      <point x="144" y="298"/>
      <point x="81" y="178"/>
    </contour>
    <contour>
      <point x="256" y="0" type="line"/>
      <point x="320" y="0" type="line"/>
      <point x="320" y="154" type="line"/>
      <point x="256" y="154" type="line"/>
    </contour>
  </outline>
</glyph>
<glyph name="uniA072" format="2">
  <advance width="558"/>
  <unicode hex="A072"/>
  <outline>
    <contour>
      <point x="206" y="-10" type="line"/>
      <point x="206" y="222" type="line"/>
      <point x="352" y="222" type="line"/>
      <point x="352" y="113" type="line"/>
      <point x="282" y="162" type="line"/>
      <point x="254" y="111" type="line"/>
      <point x="420" y="-10" type="line"/>
      <point x="420" y="604" type="line"/>
      <point x="490" y="555" type="line"/>
      <point x="519" y="605" type="line"/>
      <point x="352" y="727" type="line"/>
      <point x="352" y="609" type="line"/>
      <point x="137" y="729" type="line"/>
      <point x="137" y="113" type="line"/>
      <point x="67" y="162" type="line"/>
      <point x="39" y="111" type="line"/>
    </contour>
    <contour>
      <point x="255" y="369" type="line"/>
      <point x="307" y="369" type="line"/>
      <point x="307" y="465" type="line"/>
      <point x="255" y="465" type="line"/>
    </contour>
    <contour>
      <point x="206" y="275" type="line"/>
      <point x="206" y="618" type="line"/>
      <point x="352" y="539" type="line"/>
      <point x="352" y="275" type="line"/>
    </contour>
  </outline>
</glyph>
<glyph name="uniA074" format="2">
  <advance width="530"/>
  <unicode hex="A074"/>
  <outline>
    <contour>
      <point x="59" y="0" type="line"/>
      <point x="122" y="0" type="line"/>
      <point x="122" y="116" type="line"/>
      <point x="299" y="15" type="line"/>
      <point x="299" y="588" type="line"/>
      <point x="408" y="530" type="line"/>
      <point x="408" y="416" type="line"/>
      <point x="472" y="416" type="line"/>
      <point x="472" y="714" type="line"/>
      <point x="408" y="714" type="line"/>
      <point x="408" y="598" type="line"/>
      <point x="231" y="699" type="line"/>
      <point x="231" y="126" type="line"/>
      <point x="122" y="183" type="line"/>
      <point x="122" y="298" type="line"/>
      <point x="59" y="298" type="line"/>
    </contour>
  </outline>
</glyph>
<glyph name="uniA076" format="2">
  <advance width="585"/>
  <unicode hex="A076"/>
  <outline>
    <contour>
      <point x="190" y="0" type="line"/>
      <point x="259" y="0" type="line"/>
      <point x="259" y="300" type="line"/>
      <point x="317" y="300" type="line"/>
      <point x="317" y="86" type="line"/>
      <point x="381" y="86" type="line"/>
      <point x="381" y="300" type="line"/>
      <point x="437" y="300" type="line"/>
      <point x="437" y="86" type="line"/>
      <point x="500" y="86" type="line"/>
      <point x="500" y="521" type="line"/>
      <point x="437" y="521" type="line"/>
      <point x="437" y="358" type="line"/>
      <point x="381" y="358" type="line"/>
      <point x="381" y="521" type="line"/>
      <point x="317" y="521" type="line"/>
      <point x="317" y="358" type="line"/>
      <point x="259" y="358" type="line"/>
      <point x="259" y="644" type="line"/>
      <point x="507" y="557" type="line"/>
      <point x="527" y="617" type="line"/>
      <point x="190" y="729" type="line"/>
    </contour>
    <contour>
      <point x="68" y="59" type="line"/>
      <point x="132" y="59" type="line"/>
      <point x="132" y="283" type="line"/>
      <point x="68" y="283" type="line"/>
    </contour>
    <contour>
      <point x="68" y="401" type="line"/>
      <point x="132" y="401" type="line"/>
      <point x="132" y="625" type="line"/>
      <point x="68" y="625" type="line"/>
    </contour>
  </outline>
</glyph>
<glyph name="uniA078" format="2">
  <advance width="568"/>
  <unicode hex="A078"/>
  <outline>
    <contour>
      <point x="364" y="-13" type="curve" smooth="yes"/>
      <point x="436" y="-13"/>
      <point x="488" y="40"/>
      <point x="519" y="104" type="curve"/>
      <point x="464" y="131" type="line"/>
      <point x="439" y="73"/>
      <point x="396" y="46"/>
      <point x="365" y="46" type="curve" smooth="yes"/>
      <point x="335" y="46"/>
      <point x="306" y="63"/>
      <point x="306" y="148" type="curve" smooth="yes"/>
      <point x="306" y="241" type="line"/>
      <point x="411" y="256"/>
      <point x="485" y="342"/>
      <point x="485" y="484" type="curve" smooth="yes"/>
      <point x="485" y="640"/>
      <point x="393" y="727"/>
      <point x="272" y="727" type="curve" smooth="yes"/>
      <point x="153" y="727"/>
      <point x="59" y="641"/>
      <point x="59" y="485" type="curve" smooth="yes"/>
      <point x="59" y="340"/>
      <point x="135" y="256"/>
      <point x="238" y="241" type="curve"/>
      <point x="238" y="144" type="line" smooth="yes"/>
      <point x="238" y="52"/>
      <point x="258" y="-13"/>
    </contour>
    <contour>
      <point x="355" y="118" type="line"/>
      <point x="407" y="118" type="line"/>
      <point x="407" y="214" type="line"/>
      <point x="355" y="214" type="line"/>
    </contour>
    <contour>
      <point x="240" y="300" type="line"/>
      <point x="186" y="311"/>
      <point x="138" y="353"/>
      <point x="128" y="448" type="curve"/>
      <point x="240" y="448" type="line"/>
    </contour>
    <contour>
      <point x="304" y="300" type="curve"/>
      <point x="304" y="448" type="line"/>
      <point x="415" y="448" type="line"/>
      <point x="406" y="355"/>
      <point x="361" y="312"/>
    </contour>
    <contour>
      <point x="127" y="501" type="line"/>
      <point x="132" y="607"/>
      <point x="182" y="654"/>
      <point x="240" y="665" type="curve"/>
      <point x="240" y="501" type="line"/>
    </contour>
    <contour>
      <point x="304" y="501" type="line"/>
      <point x="304" y="665" type="line"/>
      <point x="364" y="653"/>
      <point x="411" y="605"/>
      <point x="417" y="501" type="curve"/>
    </contour>
  </outline>
</glyph>
<glyph name="uniA079" format="2">
  <advance width="553"/>
  <unicode hex="A079"/>
  <outline>
    <contour>
      <point x="88" y="0" type="line"/>
      <point x="151" y="0" type="line"/>
      <point x="151" y="632" type="line"/>
      <point x="291" y="578" type="line"/>
      <point x="291" y="394" type="line"/>
      <point x="203" y="394" type="line"/>
      <point x="203" y="340" type="line"/>
      <point x="291" y="340" type="line"/>
      <point x="291" y="247" type="line"/>
      <point x="203" y="247" type="line"/>
      <point x="203" y="193" type="line"/>
      <point x="291" y="193" type="line"/>
      <point x="291" y="0" type="line"/>
      <point x="359" y="0" type="line"/>
      <point x="359" y="193" type="line"/>
      <point x="452" y="193" type="line"/>
      <point x="452" y="247" type="line"/>
      <point x="359" y="247" type="line"/>
      <point x="359" y="340" type="line"/>
      <point x="452" y="340" type="line"/>
      <point x="452" y="394" type="line"/>
      <point x="359" y="394" type="line"/>
      <point x="359" y="619" type="line"/>
      <point x="489" y="556" type="line"/>
      <point x="514" y="612" type="line"/>
      <point x="291" y="729" type="line"/>
      <point x="291" y="646" type="line"/>
      <point x="88" y="727" type="line"/>
    </contour>
  </outline>
</glyph>
<glyph name="uniA07B" format="2">
  <advance width="589"/>
  <unicode hex="A07B"/>
  <outline>
    <contour>
      <point x="215" y="0" type="line"/>
      <point x="283" y="0" type="line"/>
      <point x="283" y="213" type="line"/>
      <point x="435" y="213" type="line"/>
      <point x="435" y="267" type="line"/>
      <point x="283" y="267" type="line"/>
      <point x="283" y="403" type="line"/>
      <point x="420" y="403" type="line"/>
      <point x="420" y="457" type="line"/>
      <point x="283" y="457" type="line"/>
      <point x="283" y="660" type="line"/>
      <point x="419" y="660" type="line"/>
      <point x="498" y="526" type="line"/>
      <point x="550" y="559" type="line"/>
      <point x="459" y="714" type="line"/>
      <point x="39" y="714" type="line"/>
      <point x="39" y="660" type="line"/>
      <point x="215" y="660" type="line"/>
      <point x="215" y="457" type="line"/>
      <point x="78" y="457" type="line"/>
      <point x="78" y="403" type="line"/>
      <point x="215" y="403" type="line"/>
      <point x="215" y="267" type="line"/>
      <point x="63" y="267" type="line"/>
      <point x="63" y="213" type="line"/>
      <point x="215" y="213" type="line"/>
    </contour>
  </outline>
</glyph>
<glyph name="uniA07C" format="2">
  <advance width="527"/>
  <unicode hex="A07C"/>
  <outline>
    <contour>
      <point x="229" y="0" type="line"/>
      <point x="298" y="0" type="line"/>
      <point x="298" y="213" type="line"/>
      <point x="488" y="213" type="line"/>
      <point x="488" y="267" type="line"/>
      <point x="298" y="267" type="line"/>
      <point x="298" y="481" type="line"/>
      <point x="474" y="481" type="line"/>
      <point x="474" y="535" type="line"/>
      <point x="298" y="535" type="line"/>
      <point x="298" y="714" type="line"/>
      <point x="229" y="714" type="line"/>
      <point x="229" y="535" type="line"/>
      <point x="54" y="535" type="line"/>
      <point x="54" y="481" type="line"/>
      <point x="229" y="481" type="line"/>
      <point x="229" y="267" type="line"/>
      <point x="39" y="267" type="line"/>
      <point x="39" y="213" type="line"/>
      <point x="229" y="213" type="line"/>
    </contour>
  </outline>
</glyph>
<glyph name="uniA07D" format="2">
  <advance width="663"/>
  <unicode hex="A07D"/>
  <outline>
    <contour>
      <point x="167" y="-13" type="curve" smooth="yes"/>
      <point x="200" y="-13"/>
      <point x="220" y="4"/>
      <point x="240" y="42" type="curve"/>
      <point x="255" y="4"/>
      <point x="275" y="-13"/>
      <point x="314" y="-13" type="curve" smooth="yes"/>
      <point x="390" y="-13"/>
      <point x="412" y="76"/>
      <point x="412" y="166" type="curve" smooth="yes"/>
      <point x="412" y="194"/>
      <point x="412" y="273"/>
      <point x="404" y="364" type="curve"/>
      <point x="531" y="364" type="line"/>
      <point x="531" y="137" type="line"/>
      <point x="595" y="137" type="line"/>
      <point x="595" y="635" type="line"/>
      <point x="531" y="635" type="line"/>
      <point x="531" y="422" type="line"/>
      <point x="398" y="422" type="line"/>
      <point x="379" y="571"/>
      <point x="337" y="727"/>
      <point x="240" y="727" type="curve" smooth="yes"/>
      <point x="88" y="727"/>
      <point x="68" y="352"/>
      <point x="68" y="166" type="curve" smooth="yes"/>
      <point x="68" y="76"/>
      <point x="84" y="-13"/>
    </contour>
    <contour>
      <point x="171" y="46" type="curve" smooth="yes"/>
      <point x="142" y="46"/>
      <point x="134" y="105"/>
      <point x="134" y="166" type="curve" smooth="yes"/>
      <point x="134" y="275"/>
      <point x="150" y="668"/>
      <point x="240" y="668" type="curve" smooth="yes"/>
      <point x="324" y="668"/>
      <point x="346" y="311"/>
      <point x="346" y="166" type="curve" smooth="yes"/>
      <point x="346" y="75"/>
      <point x="334" y="46"/>
      <point x="309" y="46" type="curve" smooth="yes"/>
      <point x="289" y="46"/>
      <point x="272" y="78"/>
      <point x="272" y="164" type="curve" smooth="yes"/>
      <point x="272" y="229" type="line"/>
      <point x="208" y="229" type="line"/>
      <point x="208" y="164" type="line" smooth="yes"/>
      <point x="208" y="78"/>
      <point x="191" y="46"/>
    </contour>
    <contour>
      <point x="436" y="184" type="line"/>
      <point x="500" y="184" type="line"/>
      <point x="500" y="320" type="line"/>
      <point x="436" y="320" type="line"/>
    </contour>
    <contour>
      <point x="436" y="466" type="line"/>
      <point x="500" y="466" type="line"/>
      <point x="500" y="603" type="line"/>
      <point x="436" y="603" type="line"/>
    </contour>
  </outline>
</glyph>
<glyph name="uniA07F" format="2">
  <advance width="545"/>
  <unicode hex="A07F"/>
  <outline>
    <contour>
      <point x="120" y="-13" type="line"/>
      <point x="168" y="83" type="line"/>
      <point x="376" y="83" type="line"/>
      <point x="425" y="-13" type="line"/>
      <point x="481" y="15" type="line"/>
      <point x="447" y="83" type="line"/>
      <point x="496" y="83" type="line"/>
      <point x="496" y="142" type="line"/>
      <point x="417" y="142" type="line"/>
      <point x="308" y="357" type="line"/>
      <point x="414" y="566" type="line"/>
      <point x="496" y="566" type="line"/>
      <point x="496" y="625" type="line"/>
      <point x="444" y="625" type="line"/>
      <point x="481" y="699" type="line"/>
      <point x="425" y="727" type="line"/>
      <point x="373" y="625" type="line"/>
      <point x="171" y="625" type="line"/>
      <point x="120" y="727" type="line"/>
      <point x="63" y="699" type="line"/>
      <point x="101" y="625" type="line"/>
      <point x="49" y="625" type="line"/>
      <point x="49" y="566" type="line"/>
      <point x="130" y="566" type="line"/>
      <point x="237" y="357" type="line"/>
      <point x="127" y="142" type="line"/>
      <point x="49" y="142" type="line"/>
      <point x="49" y="83" type="line"/>
      <point x="98" y="83" type="line"/>
      <point x="63" y="15" type="line"/>
    </contour>
    <contour>
      <point x="198" y="142" type="line"/>
      <point x="272" y="287" type="line"/>
      <point x="346" y="142" type="line"/>
    </contour>
    <contour>
      <point x="272" y="426" type="line"/>
      <point x="201" y="566" type="line"/>
      <point x="343" y="566" type="line"/>
    </contour>
  </outline>
</glyph>
<glyph name="uniA080" format="2">
  <advance width="671"/>
  <unicode hex="A080"/>
  <outline>
    <contour>
      <point x="245" y="125" type="line"/>
      <point x="335" y="308" type="line"/>
      <point x="427" y="125" type="line"/>
      <point x="476" y="147" type="line"/>
      <point x="366" y="369" type="line"/>
      <point x="476" y="589" type="line"/>
      <point x="426" y="612" type="line"/>
      <point x="335" y="430" type="line"/>
      <point x="245" y="612" type="line"/>
      <point x="195" y="589" type="line"/>
      <point x="305" y="369" type="line"/>
      <point x="195" y="147" type="line"/>
    </contour>
    <contour>
      <point x="88" y="0" type="line"/>
      <point x="156" y="0" type="line"/>
      <point x="156" y="714" type="line"/>
      <point x="88" y="714" type="line"/>
    </contour>
    <contour>
      <point x="515" y="0" type="line"/>
      <point x="583" y="0" type="line"/>
      <point x="583" y="714" type="line"/>
      <point x="515" y="714" type="line"/>
    </contour>
  </outline>
</glyph>
<glyph name="uniA081" format="2">
  <advance width="603"/>
  <unicode hex="A081"/>
  <outline>
    <contour>
      <point x="466" y="0" type="line"/>
      <point x="535" y="0" type="line"/>
      <point x="535" y="263" type="line"/>
      <point x="258" y="155" type="line"/>
      <point x="258" y="559" type="line"/>
      <point x="535" y="451" type="line"/>
      <point x="535" y="714" type="line"/>
      <point x="466" y="714" type="line"/>
      <point x="466" y="540" type="line"/>
      <point x="189" y="650" type="line"/>
      <point x="189" y="483" type="line"/>
      <point x="85" y="463"/>
      <point x="39" y="366"/>
      <point x="39" y="294" type="curve"/>
      <point x="107" y="283" type="line"/>
      <point x="107" y="342"/>
      <point x="130" y="407"/>
      <point x="189" y="427" type="curve"/>
      <point x="189" y="63" type="line"/>
      <point x="466" y="174" type="line"/>
    </contour>
    <contour>
      <point x="370" y="273" type="line"/>
      <point x="433" y="273" type="line"/>
      <point x="433" y="449" type="line"/>
      <point x="370" y="449" type="line"/>
    </contour>
  </outline>
</glyph>
<glyph name="uniA083" format="2">
  <advance width="637"/>
  <unicode hex="A083"/>
  <outline>
    <contour>
      <point x="206" y="427" type="curve" smooth="yes"/>
      <point x="259" y="427"/>
      <point x="293" y="449"/>
      <point x="318" y="486" type="curve"/>
      <point x="343" y="449"/>
      <point x="378" y="427"/>
      <point x="431" y="427" type="curve" smooth="yes"/>
      <point x="563" y="427"/>
      <point x="568" y="551"/>
      <point x="568" y="660" type="curve" smooth="yes"/>
      <point x="568" y="714" type="line"/>
      <point x="500" y="714" type="line"/>
      <point x="500" y="669" type="line" smooth="yes"/>
      <point x="500" y="533"/>
      <point x="491" y="485"/>
      <point x="426" y="485" type="curve" smooth="yes"/>
      <point x="382" y="485"/>
      <point x="353" y="518"/>
      <point x="353" y="603" type="curve" smooth="yes"/>
      <point x="353" y="714" type="line"/>
      <point x="284" y="714" type="line"/>
      <point x="284" y="603" type="line" smooth="yes"/>
      <point x="284" y="518"/>
      <point x="255" y="485"/>
      <point x="210" y="485" type="curve" smooth="yes"/>
      <point x="146" y="485"/>
      <point x="137" y="533"/>
      <point x="137" y="669" type="curve" smooth="yes"/>
      <point x="137" y="714" type="line"/>
      <point x="68" y="714" type="line"/>
      <point x="68" y="660" type="line" smooth="yes"/>
      <point x="68" y="551"/>
      <point x="74" y="427"/>
    </contour>
    <contour>
      <point x="318" y="-13" type="curve" smooth="yes"/>
      <point x="438" y="-13"/>
      <point x="514" y="61"/>
      <point x="543" y="193" type="curve"/>
      <point x="479" y="217" type="line"/>
      <point x="460" y="110"/>
      <point x="410" y="46"/>
      <point x="318" y="46" type="curve" smooth="yes"/>
      <point x="220" y="46"/>
      <point x="171" y="113"/>
      <point x="155" y="217" type="curve"/>
      <point x="90" y="193" type="line"/>
      <point x="113" y="84"/>
      <point x="178" y="-13"/>
    </contour>
    <contour>
      <point x="287" y="135" type="line"/>
      <point x="350" y="135" type="line"/>
      <point x="350" y="247" type="line"/>
      <point x="453" y="247" type="line"/>
      <point x="453" y="301" type="line"/>
      <point x="350" y="301" type="line"/>
      <point x="350" y="397" type="line"/>
      <point x="287" y="397" type="line"/>
      <point x="287" y="301" type="line"/>
      <point x="184" y="301" type="line"/>
      <point x="184" y="247" type="line"/>
      <point x="287" y="247" type="line"/>
    </contour>
  </outline>
</glyph>
<glyph name="uniA084" format="2">
  <advance width="637"/>
  <unicode hex="A084"/>
  <outline>
    <contour>
      <point x="206" y="397" type="curve" smooth="yes"/>
      <point x="259" y="397"/>
      <point x="293" y="419"/>
      <point x="318" y="457" type="curve"/>
      <point x="343" y="419"/>
      <point x="378" y="397"/>
      <point x="431" y="397" type="curve" smooth="yes"/>
      <point x="563" y="397"/>
      <point x="568" y="521"/>
      <point x="568" y="630" type="curve" smooth="yes"/>
      <point x="568" y="714" type="line"/>
      <point x="500" y="714" type="line"/>
      <point x="500" y="640" type="line" smooth="yes"/>
      <point x="500" y="503"/>
      <point x="491" y="456"/>
      <point x="426" y="456" type="curve" smooth="yes"/>
      <point x="382" y="456"/>
      <point x="353" y="488"/>
      <point x="353" y="574" type="curve" smooth="yes"/>
      <point x="353" y="714" type="line"/>
      <point x="284" y="714" type="line"/>
      <point x="284" y="574" type="line" smooth="yes"/>
      <point x="284" y="488"/>
      <point x="255" y="456"/>
      <point x="210" y="456" type="curve" smooth="yes"/>
      <point x="146" y="456"/>
      <point x="137" y="503"/>
      <point x="137" y="640" type="curve" smooth="yes"/>
      <point x="137" y="714" type="line"/>
      <point x="68" y="714" type="line"/>
      <point x="68" y="630" type="line" smooth="yes"/>
      <point x="68" y="521"/>
      <point x="74" y="397"/>
    </contour>
    <contour>
      <point x="318" y="-13" type="curve" smooth="yes"/>
      <point x="438" y="-13"/>
      <point x="514" y="61"/>
      <point x="543" y="193" type="curve"/>
      <point x="479" y="217" type="line"/>
      <point x="460" y="110"/>
      <point x="410" y="46"/>
      <point x="318" y="46" type="curve" smooth="yes"/>
      <point x="220" y="46"/>
      <point x="171" y="113"/>
      <point x="155" y="217" type="curve"/>
      <point x="90" y="193" type="line"/>
      <point x="113" y="84"/>
      <point x="178" y="-13"/>
    </contour>
    <contour>
      <point x="287" y="135" type="line"/>
      <point x="350" y="135" type="line"/>
      <point x="350" y="354" type="line"/>
      <point x="287" y="354" type="line"/>
    </contour>
  </outline>
</glyph>
<glyph name="uniA085" format="2">
  <advance width="561"/>
  <unicode hex="A085"/>
  <outline>
    <contour>
      <point x="284" y="-13" type="curve" smooth="yes"/>
      <point x="385" y="-13"/>
      <point x="454" y="40"/>
      <point x="502" y="124" type="curve"/>
      <point x="451" y="154" type="line"/>
      <point x="422" y="105"/>
      <point x="388" y="60"/>
      <point x="317" y="48" type="curve"/>
      <point x="317" y="315" type="line"/>
      <point x="479" y="315" type="line"/>
      <point x="479" y="369" type="line"/>
      <point x="317" y="369" type="line"/>
      <point x="317" y="587" type="line"/>
      <point x="358" y="580"/>
      <point x="396" y="558"/>
      <point x="420" y="503" type="curve"/>
      <point x="483" y="503" type="line"/>
      <point x="483" y="714" type="line"/>
      <point x="420" y="714" type="line"/>
      <point x="420" y="597" type="line"/>
      <point x="403" y="619"/>
      <point x="363" y="648"/>
      <point x="284" y="648" type="curve" smooth="yes"/>
      <point x="146" y="648"/>
      <point x="68" y="537"/>
      <point x="68" y="323" type="curve" smooth="yes"/>
      <point x="68" y="109"/>
      <point x="146" y="-13"/>
    </contour>
    <contour>
      <point x="249" y="50" type="line"/>
      <point x="174" y="72"/>
      <point x="137" y="166"/>
      <point x="137" y="323" type="curve" smooth="yes"/>
      <point x="137" y="481"/>
      <point x="174" y="566"/>
      <point x="249" y="585" type="curve"/>
    </contour>
  </outline>
</glyph>
<glyph name="uniA087" format="2">
  <advance width="607"/>
  <unicode hex="A087"/>
  <outline>
    <contour>
      <point x="381" y="-13" type="curve" smooth="yes"/>
      <point x="522" y="-13"/>
      <point x="539" y="161"/>
      <point x="539" y="358" type="curve" smooth="yes"/>
      <point x="539" y="564"/>
      <point x="523" y="727"/>
      <point x="382" y="727" type="curve" smooth="yes"/>
      <point x="275" y="727"/>
      <point x="239" y="632"/>
      <point x="229" y="496" type="curve"/>
      <point x="129" y="494"/>
      <point x="59" y="446"/>
      <point x="59" y="365" type="curve" smooth="yes"/>
      <point x="59" y="284"/>
      <point x="128" y="237"/>
      <point x="228" y="235" type="curve"/>
      <point x="237" y="92"/>
      <point x="270" y="-13"/>
    </contour>
    <contour>
      <point x="128" y="54" type="line"/>
      <point x="191" y="54" type="line"/>
      <point x="191" y="184" type="line"/>
      <point x="128" y="184" type="line"/>
    </contour>
    <contour>
      <point x="226" y="289" type="curve"/>
      <point x="161" y="291"/>
      <point x="122" y="314"/>
      <point x="122" y="366" type="curve" smooth="yes"/>
      <point x="122" y="417"/>
      <point x="161" y="440"/>
      <point x="226" y="441" type="curve"/>
      <point x="225" y="416"/>
      <point x="225" y="389"/>
      <point x="225" y="362" type="curve" smooth="yes"/>
      <point x="225" y="337"/>
      <point x="225" y="313"/>
    </contour>
    <contour>
      <point x="381" y="46" type="curve" smooth="yes"/>
      <point x="298" y="46"/>
      <point x="293" y="183"/>
      <point x="293" y="362" type="curve" smooth="yes"/>
      <point x="293" y="543"/>
      <point x="298" y="668"/>
      <point x="381" y="668" type="curve" smooth="yes"/>
      <point x="465" y="668"/>
      <point x="470" y="539"/>
      <point x="470" y="358" type="curve" smooth="yes"/>
      <point x="470" y="178"/>
      <point x="465" y="46"/>
    </contour>
    <contour>
      <point x="128" y="552" type="line"/>
      <point x="191" y="552" type="line"/>
      <point x="191" y="682" type="line"/>
      <point x="128" y="682" type="line"/>
    </contour>
  </outline>
</glyph>
<glyph name="uniA088" format="2">
  <advance width="563"/>
  <unicode hex="A088"/>
  <outline>
    <contour>
      <point x="250" y="0" type="line"/>
      <point x="313" y="0" type="line"/>
      <point x="313" y="104" type="line"/>
      <point x="423" y="118"/>
      <point x="495" y="210"/>
      <point x="495" y="372" type="curve" smooth="yes"/>
      <point x="495" y="532"/>
      <point x="422" y="622"/>
      <point x="313" y="637" type="curve"/>
      <point x="313" y="714" type="line"/>
      <point x="250" y="714" type="line"/>
      <point x="250" y="636" type="line"/>
      <point x="143" y="622"/>
      <point x="68" y="533"/>
      <point x="68" y="373" type="curve" smooth="yes"/>
      <point x="68" y="208"/>
      <point x="143" y="118"/>
      <point x="250" y="104" type="curve"/>
    </contour>
    <contour>
      <point x="250" y="164" type="line"/>
      <point x="186" y="177"/>
      <point x="137" y="237"/>
      <point x="137" y="373" type="curve" smooth="yes"/>
      <point x="137" y="504"/>
      <point x="186" y="563"/>
      <point x="250" y="577" type="curve"/>
    </contour>
    <contour>
      <point x="313" y="164" type="curve"/>
      <point x="313" y="577" type="line"/>
      <point x="380" y="562"/>
      <point x="427" y="500"/>
      <point x="427" y="370" type="curve" smooth="yes"/>
      <point x="427" y="240"/>
      <point x="380" y="178"/>
    </contour>
    <contour>
      <point x="346" y="326" type="line"/>
      <point x="398" y="326" type="line"/>
      <point x="398" y="432" type="line"/>
      <point x="346" y="432" type="line"/>
    </contour>
  </outline>
</glyph>
<glyph name="uniA08A" format="2">
  <advance width="709"/>
  <unicode hex="A08A"/>
  <outline>
    <contour>
      <point x="188" y="-13" type="curve" smooth="yes"/>
      <point x="304" y="-13"/>
      <point x="309" y="121"/>
      <point x="309" y="307" type="curve" smooth="yes"/>
      <point x="309" y="339" type="line"/>
      <point x="400" y="339" type="line"/>
      <point x="400" y="307" type="line"/>
      <point x="400" y="121"/>
      <point x="406" y="-13"/>
      <point x="521" y="-13" type="curve" smooth="yes"/>
      <point x="635" y="-13"/>
      <point x="641" y="119"/>
      <point x="641" y="307" type="curve" smooth="yes"/>
      <point x="641" y="417" type="line" smooth="yes"/>
      <point x="641" y="604"/>
      <point x="635" y="727"/>
      <point x="521" y="727" type="curve" smooth="yes"/>
      <point x="407" y="727"/>
      <point x="400" y="607"/>
      <point x="400" y="418" type="curve" smooth="yes"/>
      <point x="400" y="397" type="line"/>
      <point x="309" y="397" type="line"/>
      <point x="309" y="418" type="line" smooth="yes"/>
      <point x="309" y="607"/>
      <point x="303" y="727"/>
      <point x="189" y="727" type="curve" smooth="yes"/>
      <point x="75" y="727"/>
      <point x="68" y="604"/>
      <point x="68" y="417" type="curve" smooth="yes"/>
      <point x="68" y="307" type="line" smooth="yes"/>
      <point x="68" y="119"/>
      <point x="75" y="-13"/>
    </contour>
    <contour>
      <point x="329" y="24" type="line"/>
      <point x="381" y="24" type="line"/>
      <point x="381" y="161" type="line"/>
      <point x="329" y="161" type="line"/>
    </contour>
    <contour>
      <point x="188" y="46" type="curve" smooth="yes"/>
      <point x="146" y="46"/>
      <point x="137" y="122"/>
      <point x="137" y="234" type="curve" smooth="yes"/>
      <point x="137" y="489" type="line" smooth="yes"/>
      <point x="137" y="599"/>
      <point x="146" y="668"/>
      <point x="188" y="668" type="curve" smooth="yes"/>
      <point x="231" y="668"/>
      <point x="241" y="596"/>
      <point x="241" y="484" type="curve" smooth="yes"/>
      <point x="241" y="232" type="line"/>
      <point x="241" y="120"/>
      <point x="231" y="46"/>
    </contour>
    <contour>
      <point x="521" y="46" type="curve" smooth="yes"/>
      <point x="478" y="46"/>
      <point x="469" y="120"/>
      <point x="469" y="232" type="curve" smooth="yes"/>
      <point x="469" y="484" type="line"/>
      <point x="469" y="596"/>
      <point x="478" y="668"/>
      <point x="521" y="668" type="curve" smooth="yes"/>
      <point x="563" y="668"/>
      <point x="573" y="599"/>
      <point x="573" y="489" type="curve" smooth="yes"/>
      <point x="573" y="234" type="line" smooth="yes"/>
      <point x="573" y="122"/>
      <point x="563" y="46"/>
    </contour>
    <contour>
      <point x="329" y="566" type="line"/>
      <point x="381" y="566" type="line"/>
      <point x="381" y="703" type="line"/>
      <point x="329" y="703" type="line"/>
    </contour>
  </outline>
</glyph>
<glyph name="uniA08B" format="2">
  <advance width="586"/>
  <unicode hex="A08B"/>
  <outline>
    <contour>
      <point x="225" y="-13" type="curve" smooth="yes"/>
      <point x="295" y="-13"/>
      <point x="334" y="30"/>
      <point x="356" y="98" type="curve"/>
      <point x="403" y="73"/>
      <point x="454" y="55"/>
      <point x="502" y="40" type="curve"/>
      <point x="519" y="94" type="line"/>
      <point x="461" y="111"/>
      <point x="411" y="129"/>
      <point x="370" y="152" type="curve"/>
      <point x="379" y="207"/>
      <point x="382" y="271"/>
      <point x="382" y="339" type="curve"/>
      <point x="527" y="339" type="line"/>
      <point x="527" y="397" type="line"/>
      <point x="382" y="397" type="line"/>
      <point x="381" y="458"/>
      <point x="378" y="513"/>
      <point x="371" y="561" type="curve"/>
      <point x="416" y="586"/>
      <point x="468" y="604"/>
      <point x="519" y="619" type="curve"/>
      <point x="502" y="673" type="line"/>
      <point x="455" y="659"/>
      <point x="404" y="640"/>
      <point x="358" y="615" type="curve"/>
      <point x="337" y="684"/>
      <point x="298" y="727"/>
      <point x="226" y="727" type="curve" smooth="yes"/>
      <point x="87" y="727"/>
      <point x="68" y="566"/>
      <point x="68" y="362" type="curve" smooth="yes"/>
      <point x="68" y="158"/>
      <point x="83" y="-13"/>
    </contour>
    <contour>
      <point x="310" y="198" type="curve"/>
      <point x="276" y="233"/>
      <point x="256" y="277"/>
      <point x="252" y="339" type="curve"/>
      <point x="314" y="339" type="line"/>
      <point x="313" y="287"/>
      <point x="313" y="239"/>
    </contour>
    <contour>
      <point x="225" y="46" type="curve" smooth="yes"/>
      <point x="142" y="46"/>
      <point x="137" y="183"/>
      <point x="137" y="362" type="curve" smooth="yes"/>
      <point x="137" y="543"/>
      <point x="142" y="668"/>
      <point x="225" y="668" type="curve" smooth="yes"/>
      <point x="267" y="668"/>
      <point x="290" y="635"/>
      <point x="301" y="579" type="curve"/>
      <point x="235" y="529"/>
      <point x="188" y="459"/>
      <point x="188" y="362" type="curve" smooth="yes"/>
      <point x="188" y="257"/>
      <point x="235" y="185"/>
      <point x="301" y="134" type="curve"/>
      <point x="289" y="79"/>
      <point x="267" y="46"/>
    </contour>
    <contour>
      <point x="442" y="197" type="line"/>
      <point x="505" y="197" type="line"/>
      <point x="505" y="286" type="line"/>
      <point x="442" y="286" type="line"/>
    </contour>
    <contour>
      <point x="253" y="397" type="line"/>
      <point x="260" y="447"/>
      <point x="281" y="485"/>
      <point x="310" y="515" type="curve"/>
      <point x="313" y="480"/>
      <point x="313" y="440"/>
      <point x="314" y="397" type="curve"/>
    </contour>
    <contour>
      <point x="442" y="446" type="line"/>
      <point x="505" y="446" type="line"/>
      <point x="505" y="535" type="line"/>
      <point x="442" y="535" type="line"/>
    </contour>
  </outline>
</glyph>
<glyph name="uniA08D" format="2">
  <advance width="613"/>
  <unicode hex="A08D"/>
  <outline>
    <contour>
      <point x="305" y="-13" type="curve" smooth="yes"/>
      <point x="506" y="-13"/>
      <point x="525" y="115"/>
      <point x="525" y="273" type="curve" smooth="yes"/>
      <point x="525" y="714" type="line"/>
      <point x="457" y="714" type="line"/>
      <point x="457" y="263" type="line" smooth="yes"/>
      <point x="457" y="146"/>
      <point x="456" y="57"/>
      <point x="332" y="47" type="curve"/>
      <point x="332" y="714" type="line"/>
      <point x="269" y="714" type="line"/>
      <point x="269" y="415" type="line"/>
      <point x="156" y="415" type="line"/>
      <point x="156" y="714" type="line"/>
      <point x="88" y="714" type="line"/>
      <point x="88" y="273" type="line" smooth="yes"/>
      <point x="88" y="115"/>
      <point x="104" y="-13"/>
    </contour>
    <contour>
      <point x="269" y="48" type="line"/>
      <point x="158" y="64"/>
      <point x="156" y="150"/>
      <point x="156" y="263" type="curve"/>
      <point x="156" y="356" type="line"/>
      <point x="269" y="356" type="line"/>
    </contour>
    <contour>
      <point x="366" y="146" type="line"/>
      <point x="423" y="146" type="line"/>
      <point x="423" y="273" type="line"/>
      <point x="366" y="273" type="line"/>
    </contour>
    <contour>
      <point x="366" y="327" type="line"/>
      <point x="423" y="327" type="line"/>
      <point x="423" y="454" type="line"/>
      <point x="366" y="454" type="line"/>
    </contour>
    <contour>
      <point x="366" y="508" type="line"/>
      <point x="423" y="508" type="line"/>
      <point x="423" y="635" type="line"/>
      <point x="366" y="635" type="line"/>
    </contour>
  </outline>
</glyph>
<glyph name="uniA08E" format="2">
  <advance width="570"/>
  <unicode hex="A08E"/>
  <outline>
    <contour>
      <point x="127" y="0" type="line"/>
      <point x="195" y="0" type="line"/>
      <point x="195" y="186" type="line"/>
      <point x="404" y="86" type="line"/>
      <point x="404" y="622" type="line"/>
      <point x="506" y="571" type="line"/>
      <point x="531" y="627" type="line"/>
      <point x="335" y="729" type="line"/>
      <point x="335" y="185" type="line"/>
      <point x="127" y="293" type="line"/>
    </contour>
    <contour>
      <point x="71" y="354" type="line"/>
      <point x="122" y="384"/>
      <point x="153" y="453"/>
      <point x="153" y="511" type="curve" smooth="yes"/>
      <point x="153" y="565"/>
      <point x="127" y="632"/>
      <point x="72" y="671" type="curve"/>
      <point x="39" y="624" type="line"/>
      <point x="72" y="595"/>
      <point x="90" y="549"/>
      <point x="90" y="511" type="curve" smooth="yes"/>
      <point x="90" y="473"/>
      <point x="72" y="430"/>
      <point x="39" y="400" type="curve"/>
    </contour>
    <contour>
      <point x="290" y="306" type="curve"/>
      <point x="302" y="363" type="line"/>
      <point x="267" y="372"/>
      <point x="233" y="389"/>
      <point x="233" y="424" type="curve" smooth="yes"/>
      <point x="233" y="454"/>
      <point x="246" y="477"/>
      <point x="301" y="485" type="curve"/>
      <point x="301" y="542" type="line"/>
      <point x="246" y="550"/>
      <point x="233" y="573"/>
      <point x="233" y="603" type="curve" smooth="yes"/>
      <point x="233" y="638"/>
      <point x="267" y="655"/>
      <point x="302" y="664" type="curve"/>
      <point x="290" y="721" type="line"/>
      <point x="236" y="706"/>
      <point x="170" y="665"/>
      <point x="170" y="603" type="curve" smooth="yes"/>
      <point x="170" y="557"/>
      <point x="199" y="529"/>
      <point x="238" y="513" type="curve"/>
      <point x="199" y="497"/>
      <point x="170" y="470"/>
      <point x="170" y="424" type="curve" smooth="yes"/>
      <point x="170" y="356"/>
      <point x="236" y="321"/>
    </contour>
  </outline>
</glyph>
<glyph name="uniA090" format="2">
  <advance width="564"/>
  <unicode hex="A090"/>
  <outline>
    <contour>
      <point x="248" y="0" type="line"/>
      <point x="316" y="0" type="line"/>
      <point x="316" y="278" type="line"/>
      <point x="486" y="56" type="line"/>
      <point x="486" y="687" type="line"/>
      <point x="316" y="464" type="line"/>
      <point x="316" y="714" type="line"/>
      <point x="248" y="714" type="line"/>
      <point x="248" y="464" type="line"/>
      <point x="78" y="687" type="line"/>
      <point x="78" y="56" type="line"/>
      <point x="248" y="278" type="line"/>
    </contour>
    <contour>
      <point x="138" y="229" type="line"/>
      <point x="138" y="345" type="line"/>
      <point x="230" y="345" type="line"/>
    </contour>
    <contour>
      <point x="138" y="398" type="line"/>
      <point x="138" y="513" type="line"/>
      <point x="229" y="398" type="line"/>
    </contour>
    <contour>
      <point x="427" y="229" type="line"/>
      <point x="334" y="345" type="line"/>
      <point x="427" y="345" type="line"/>
    </contour>
    <contour>
      <point x="335" y="398" type="line"/>
      <point x="427" y="513" type="line"/>
      <point x="427" y="398" type="line"/>
    </contour>
  </outline>
</glyph>
<glyph name="uniA091" format="2">
  <advance width="510"/>
  <unicode hex="A091"/>
  <outline>
    <contour>
      <point x="290" y="-13" type="line"/>
      <point x="290" y="619" type="line"/>
      <point x="441" y="533" type="line"/>
      <point x="471" y="588" type="line"/>
      <point x="221" y="727" type="line"/>
      <point x="221" y="99" type="line"/>
      <point x="69" y="181" type="line"/>
      <point x="39" y="126" type="line"/>
    </contour>
    <contour>
      <point x="77" y="261" type="line"/>
      <point x="140" y="261" type="line"/>
      <point x="140" y="481" type="line"/>
      <point x="77" y="481" type="line"/>
    </contour>
    <contour>
      <point x="370" y="261" type="line"/>
      <point x="433" y="261" type="line"/>
      <point x="433" y="481" type="line"/>
      <point x="370" y="481" type="line"/>
    </contour>
  </outline>
</glyph>
<glyph name="uniA093" format="2">
  <advance width="560"/>
  <unicode hex="A093"/>
  <outline>
    <contour>
      <point x="246" y="0" type="line"/>
      <point x="314" y="0" type="line"/>
      <point x="314" y="241" type="line"/>
      <point x="383" y="223"/>
      <point x="431" y="153"/>
      <point x="451" y="50" type="curve"/>
      <point x="511" y="69" type="line"/>
      <point x="484" y="195"/>
      <point x="416" y="285"/>
      <point x="314" y="301" type="curve"/>
      <point x="314" y="353" type="line"/>
      <point x="490" y="353" type="line"/>
      <point x="490" y="406" type="line"/>
      <point x="314" y="406" type="line"/>
      <point x="314" y="458" type="line"/>
      <point x="416" y="474"/>
      <point x="484" y="563"/>
      <point x="511" y="690" type="curve"/>
      <point x="451" y="708" type="line"/>
      <point x="431" y="605"/>
      <point x="383" y="536"/>
      <point x="314" y="518" type="curve"/>
      <point x="314" y="714" type="line"/>
      <point x="246" y="714" type="line"/>
      <point x="246" y="518" type="line"/>
      <point x="180" y="535"/>
      <point x="130" y="605"/>
      <point x="109" y="708" type="curve"/>
      <point x="49" y="689" type="line"/>
      <point x="77" y="564"/>
      <point x="146" y="474"/>
      <point x="246" y="458" type="curve"/>
      <point x="246" y="406" type="line"/>
      <point x="70" y="406" type="line"/>
      <point x="70" y="353" type="line"/>
      <point x="246" y="353" type="line"/>
      <point x="246" y="301" type="line"/>
      <point x="146" y="284"/>
      <point x="77" y="194"/>
      <point x="49" y="69" type="curve"/>
      <point x="109" y="50" type="line"/>
      <point x="130" y="154"/>
      <point x="180" y="224"/>
      <point x="246" y="241" type="curve"/>
    </contour>
  </outline>
</glyph>
<glyph name="uniA094" format="2">
  <advance width="592"/>
  <unicode hex="A094"/>
  <outline>
    <contour>
      <point x="296" y="-13" type="curve" smooth="yes"/>
      <point x="454" y="-13"/>
      <point x="524" y="148"/>
      <point x="524" y="362" type="curve" smooth="yes"/>
      <point x="524" y="576"/>
      <point x="449" y="727"/>
      <point x="296" y="727" type="curve" smooth="yes"/>
      <point x="140" y="727"/>
      <point x="68" y="574"/>
      <point x="68" y="358" type="curve" smooth="yes"/>
      <point x="68" y="142"/>
      <point x="140" y="-13"/>
    </contour>
    <contour>
      <point x="297" y="46" type="curve" smooth="yes"/>
      <point x="231" y="46"/>
      <point x="188" y="89"/>
      <point x="164" y="161" type="curve"/>
      <point x="242" y="283" type="line"/>
      <point x="257" y="275"/>
      <point x="276" y="271"/>
      <point x="297" y="271" type="curve" smooth="yes"/>
      <point x="317" y="271"/>
      <point x="335" y="274"/>
      <point x="350" y="282" type="curve"/>
      <point x="429" y="160" type="line"/>
      <point x="405" y="89"/>
      <point x="363" y="46"/>
    </contour>
    <contour>
      <point x="144" y="244" type="line"/>
      <point x="139" y="279"/>
      <point x="137" y="317"/>
      <point x="137" y="358" type="curve" smooth="yes"/>
      <point x="137" y="521"/>
      <point x="174" y="641"/>
      <point x="265" y="664" type="curve"/>
      <point x="265" y="521" type="line"/>
      <point x="209" y="505"/>
      <point x="182" y="451"/>
      <point x="182" y="394" type="curve" smooth="yes"/>
      <point x="182" y="370"/>
      <point x="187" y="347"/>
      <point x="197" y="327" type="curve"/>
    </contour>
    <contour>
      <point x="294" y="324" type="curve" smooth="yes"/>
      <point x="261" y="324"/>
      <point x="238" y="355"/>
      <point x="238" y="394" type="curve" smooth="yes"/>
      <point x="238" y="434"/>
      <point x="257" y="470"/>
      <point x="297" y="470" type="curve" smooth="yes"/>
      <point x="335" y="470"/>
      <point x="354" y="437"/>
      <point x="354" y="394" type="curve" smooth="yes"/>
      <point x="354" y="354"/>
      <point x="330" y="324"/>
    </contour>
    <contour>
      <point x="448" y="244" type="curve"/>
      <point x="395" y="327" type="line"/>
      <point x="405" y="347"/>
      <point x="411" y="370"/>
      <point x="411" y="394" type="curve" smooth="yes"/>
      <point x="411" y="450"/>
      <point x="382" y="505"/>
      <point x="328" y="521" type="curve"/>
      <point x="328" y="664" type="line"/>
      <point x="414" y="642"/>
      <point x="456" y="524"/>
      <point x="456" y="362" type="curve" smooth="yes"/>
      <point x="456" y="320"/>
      <point x="453" y="280"/>
    </contour>
  </outline>
</glyph>
<glyph name="uniA096" format="2">
  <advance width="619"/>
  <unicode hex="A096"/>
  <outline>
    <contour>
      <point x="213" y="-8" type="curve" smooth="yes"/>
      <point x="318" y="-8"/>
      <point x="344" y="52"/>
      <point x="344" y="144" type="curve" smooth="yes"/>
      <point x="344" y="358" type="line"/>
      <point x="484" y="373"/>
      <point x="550" y="483"/>
      <point x="561" y="679" type="curve"/>
      <point x="492" y="679" type="line"/>
      <point x="483" y="513"/>
      <point x="438" y="431"/>
      <point x="341" y="417" type="curve"/>
      <point x="341" y="714" type="line"/>
      <point x="278" y="714" type="line"/>
      <point x="278" y="417" type="line"/>
      <point x="173" y="431"/>
      <point x="134" y="519"/>
      <point x="127" y="679" type="curve"/>
      <point x="59" y="679" type="line"/>
      <point x="67" y="498"/>
      <point x="118" y="374"/>
      <point x="275" y="358" type="curve"/>
      <point x="275" y="148" type="line" smooth="yes"/>
      <point x="275" y="63"/>
      <point x="246" y="51"/>
      <point x="217" y="51" type="curve" smooth="yes"/>
      <point x="185" y="51"/>
      <point x="149" y="78"/>
      <point x="135" y="125" type="curve"/>
      <point x="77" y="100" type="line"/>
      <point x="96" y="47"/>
      <point x="141" y="-8"/>
    </contour>
    <contour>
      <point x="175" y="539" type="line"/>
      <point x="234" y="539" type="line"/>
      <point x="234" y="662" type="line"/>
      <point x="175" y="662" type="line"/>
    </contour>
    <contour>
      <point x="385" y="539" type="line"/>
      <point x="444" y="539" type="line"/>
      <point x="444" y="662" type="line"/>
      <point x="385" y="662" type="line"/>
    </contour>
  </outline>
</glyph>
<glyph name="uniA097" format="2">
  <advance width="506"/>
  <unicode hex="A097"/>
  <outline>
    <contour>
      <point x="219" y="0" type="line"/>
      <point x="287" y="0" type="line"/>
      <point x="287" y="575" type="line"/>
      <point x="447" y="500" type="line"/>
      <point x="447" y="714" type="line"/>
      <point x="384" y="714" type="line"/>
      <point x="384" y="595" type="line"/>
      <point x="219" y="681" type="line"/>
    </contour>
    <contour>
      <point x="59" y="149" type="line"/>
      <point x="122" y="149" type="line"/>
      <point x="122" y="422" type="line"/>
      <point x="59" y="422" type="line"/>
    </contour>
    <contour>
      <point x="384" y="149" type="line"/>
      <point x="447" y="149" type="line"/>
      <point x="447" y="422" type="line"/>
      <point x="384" y="422" type="line"/>
    </contour>
  </outline>
</glyph>
<glyph name="uniA098" format="2">
  <advance width="603"/>
  <unicode hex="A098"/>
  <outline>
    <contour>
      <point x="265" y="-13" type="line"/>
      <point x="265" y="361" type="line"/>
      <point x="345" y="354"/>
      <point x="375" y="279"/>
      <point x="375" y="223" type="curve" smooth="yes"/>
      <point x="375" y="201"/>
      <point x="370" y="169"/>
      <point x="363" y="155" type="curve"/>
      <point x="419" y="133" type="line"/>
      <point x="434" y="162"/>
      <point x="438" y="193"/>
      <point x="438" y="223" type="curve" smooth="yes"/>
      <point x="438" y="302"/>
      <point x="401" y="403"/>
      <point x="265" y="415" type="curve"/>
      <point x="265" y="615" type="line"/>
      <point x="419" y="533" type="line"/>
      <point x="447" y="588" type="line"/>
      <point x="197" y="727" type="line"/>
      <point x="197" y="99" type="line"/>
      <point x="66" y="170" type="line"/>
      <point x="39" y="115" type="line"/>
    </contour>
    <contour>
      <point x="480" y="189" type="curve"/>
      <point x="544" y="189" type="line"/>
      <point x="544" y="194"/>
      <point x="544" y="199"/>
      <point x="544" y="204" type="curve" smooth="yes"/>
      <point x="544" y="247"/>
      <point x="538" y="286"/>
      <point x="527" y="320" type="curve"/>
      <point x="470" y="305" type="line"/>
      <point x="477" y="279"/>
      <point x="481" y="251"/>
      <point x="481" y="219" type="curve" smooth="yes"/>
      <point x="481" y="209"/>
      <point x="480" y="199"/>
    </contour>
    <contour>
      <point x="383" y="427" type="curve"/>
      <point x="412" y="474" type="line"/>
      <point x="379" y="495"/>
      <point x="341" y="509"/>
      <point x="303" y="514" type="curve"/>
      <point x="293" y="460" type="line"/>
      <point x="326" y="455"/>
      <point x="356" y="444"/>
    </contour>
    <contour>
      <point x="460" y="334" type="curve"/>
      <point x="512" y="359" type="line"/>
      <point x="495" y="396"/>
      <point x="471" y="427"/>
      <point x="443" y="451" type="curve"/>
      <point x="406" y="410" type="line"/>
      <point x="428" y="391"/>
      <point x="447" y="366"/>
    </contour>
  </outline>
</glyph>
<glyph name="uniA09A" format="2">
  <advance width="595"/>
  <unicode hex="A09A"/>
  <outline>
    <contour>
      <point x="363" y="-13" type="curve" smooth="yes"/>
      <point x="493" y="-13"/>
      <point x="537" y="81"/>
      <point x="537" y="165" type="curve" smooth="yes"/>
      <point x="537" y="232"/>
      <point x="508" y="314"/>
      <point x="427" y="342" type="curve"/>
      <point x="427" y="714" type="line"/>
      <point x="359" y="714" type="line"/>
      <point x="359" y="401" type="line"/>
      <point x="68" y="688" type="line"/>
      <point x="68" y="182" type="line"/>
      <point x="137" y="182" type="line"/>
      <point x="137" y="543" type="line"/>
      <point x="329" y="350" type="line"/>
      <point x="225" y="333"/>
      <point x="189" y="238"/>
      <point x="189" y="165" type="curve" smooth="yes"/>
      <point x="189" y="81"/>
      <point x="234" y="-13"/>
    </contour>
    <contour>
      <point x="363" y="42" type="curve" smooth="yes"/>
      <point x="273" y="42"/>
      <point x="252" y="107"/>
      <point x="252" y="165" type="curve" smooth="yes"/>
      <point x="252" y="224"/>
      <point x="274" y="299"/>
      <point x="363" y="299" type="curve" smooth="yes"/>
      <point x="458" y="299"/>
      <point x="473" y="219"/>
      <point x="473" y="165" type="curve" smooth="yes"/>
      <point x="473" y="112"/>
      <point x="456" y="42"/>
    </contour>
  </outline>
</glyph>
<glyph name="uniA09B" format="2">
  <advance width="576"/>
  <unicode hex="A09B"/>
  <outline>
    <contour>
      <point x="321" y="0" type="line"/>
      <point x="389" y="0" type="line"/>
      <point x="389" y="615" type="line"/>
      <point x="508" y="551" type="line"/>
      <point x="537" y="606" type="line"/>
      <point x="321" y="729" type="line"/>
      <point x="321" y="397" type="line"/>
      <point x="261" y="397" type="line"/>
      <point x="251" y="508"/>
      <point x="193" y="606"/>
      <point x="89" y="667" type="curve"/>
      <point x="59" y="614" type="line"/>
      <point x="138" y="564"/>
      <point x="184" y="496"/>
      <point x="193" y="397" type="curve"/>
      <point x="67" y="397" type="line"/>
      <point x="67" y="339" type="line"/>
      <point x="193" y="339" type="line"/>
      <point x="188" y="231"/>
      <point x="139" y="159"/>
      <point x="59" y="112" type="curve"/>
      <point x="89" y="59" type="line"/>
      <point x="190" y="115"/>
      <point x="254" y="217"/>
      <point x="262" y="339" type="curve"/>
      <point x="321" y="339" type="line"/>
    </contour>
  </outline>
</glyph>
<glyph name="uniA09D" format="2">
  <advance width="587"/>
  <unicode hex="A09D"/>
  <outline>
    <contour>
      <point x="89" y="0" type="line"/>
      <point x="158" y="0" type="line"/>
      <point x="158" y="186" type="line"/>
      <point x="366" y="86" type="line"/>
      <point x="366" y="394" type="line"/>
      <point x="548" y="557" type="line"/>
      <point x="508" y="604" type="line"/>
      <point x="366" y="475" type="line"/>
      <point x="366" y="714" type="line"/>
      <point x="298" y="714" type="line"/>
      <point x="298" y="185" type="line"/>
      <point x="89" y="293" type="line"/>
    </contour>
    <contour>
      <point x="143" y="395" type="curve" smooth="yes"/>
      <point x="237" y="395"/>
      <point x="246" y="471"/>
      <point x="246" y="569" type="curve" smooth="yes"/>
      <point x="246" y="688" type="line"/>
      <point x="182" y="688" type="line"/>
      <point x="182" y="573" type="line" smooth="yes"/>
      <point x="182" y="500"/>
      <point x="179" y="453"/>
      <point x="140" y="453" type="curve" smooth="yes"/>
      <point x="120" y="453"/>
      <point x="104" y="483"/>
      <point x="98" y="505" type="curve"/>
      <point x="39" y="482" type="line"/>
      <point x="49" y="441"/>
      <point x="81" y="395"/>
    </contour>
  </outline>
</glyph>
<glyph name="uniA09E" format="2">
  <advance width="534"/>
  <unicode hex="A09E"/>
  <outline>
    <contour>
      <point x="59" y="0" type="line"/>
      <point x="127" y="0" type="line"/>
      <point x="127" y="196" type="line"/>
      <point x="314" y="111" type="line"/>
      <point x="314" y="396" type="line"/>
      <point x="465" y="310" type="line"/>
      <point x="495" y="366" type="line"/>
      <point x="314" y="469" type="line"/>
      <point x="314" y="619" type="line"/>
      <point x="465" y="533" type="line"/>
      <point x="495" y="588" type="line"/>
      <point x="246" y="727" type="line"/>
      <point x="246" y="209" type="line"/>
      <point x="59" y="293" type="line"/>
    </contour>
    <contour>
      <point x="59" y="428" type="line"/>
      <point x="122" y="428" type="line"/>
      <point x="122" y="632" type="line"/>
      <point x="59" y="632" type="line"/>
    </contour>
  </outline>
</glyph>
<glyph name="uniA09F" format="2">
  <advance width="607"/>
  <unicode hex="A09F"/>
  <outline>
    <contour>
      <point x="365" y="0" type="curve" smooth="yes"/>
      <point x="435" y="0" type="line"/>
      <point x="435" y="619" type="line"/>
      <point x="548" y="560" type="line"/>
      <point x="568" y="619" type="line"/>
      <point x="367" y="729" type="line"/>
      <point x="367" y="468" type="line"/>
      <point x="353" y="468" type="line" smooth="yes"/>
      <point x="193" y="468"/>
      <point x="59" y="390"/>
      <point x="59" y="231" type="curve" smooth="yes"/>
      <point x="59" y="73"/>
      <point x="182" y="0"/>
    </contour>
    <contour>
      <point x="343" y="59" type="line" smooth="yes"/>
      <point x="227" y="59"/>
      <point x="127" y="115"/>
      <point x="127" y="231" type="curve" smooth="yes"/>
      <point x="127" y="348"/>
      <point x="227" y="409"/>
      <point x="343" y="409" type="curve" smooth="yes"/>
      <point x="367" y="409" type="line"/>
      <point x="367" y="59" type="line"/>
    </contour>
    <contour>
      <point x="261" y="125" type="curve" smooth="yes"/>
      <point x="321" y="125"/>
      <point x="344" y="175"/>
      <point x="344" y="232" type="curve" smooth="yes"/>
      <point x="344" y="289"/>
      <point x="321" y="344"/>
      <point x="261" y="344" type="curve" smooth="yes"/>
      <point x="198" y="344"/>
      <point x="176" y="289"/>
      <point x="176" y="232" type="curve" smooth="yes"/>
      <point x="176" y="174"/>
      <point x="198" y="125"/>
    </contour>
    <contour>
      <point x="258" y="172" type="curve" smooth="yes"/>
      <point x="231" y="172"/>
      <point x="221" y="199"/>
      <point x="221" y="232" type="curve" smooth="yes"/>
      <point x="221" y="266"/>
      <point x="228" y="297"/>
      <point x="261" y="297" type="curve" smooth="yes"/>
      <point x="292" y="297"/>
      <point x="298" y="269"/>
      <point x="298" y="232" type="curve" smooth="yes"/>
      <point x="298" y="197"/>
      <point x="287" y="172"/>
    </contour>
  </outline>
</glyph>
<glyph name="uniA0A2" format="2">
  <advance width="556"/>
  <unicode hex="A0A2"/>
  <outline>
    <contour>
      <point x="267" y="-12" type="curve" smooth="yes"/>
      <point x="421" y="-12"/>
      <point x="487" y="95"/>
      <point x="487" y="209" type="curve" smooth="yes"/>
      <point x="487" y="467"/>
      <point x="138" y="412"/>
      <point x="138" y="559" type="curve" smooth="yes"/>
      <point x="138" y="628"/>
      <point x="192" y="668"/>
      <point x="280" y="668" type="curve" smooth="yes"/>
      <point x="354" y="668"/>
      <point x="403" y="624"/>
      <point x="429" y="569" type="curve"/>
      <point x="482" y="604" type="line"/>
      <point x="438" y="682"/>
      <point x="369" y="727"/>
      <point x="280" y="727" type="curve" smooth="yes"/>
      <point x="130" y="727"/>
      <point x="69" y="646"/>
      <point x="69" y="563" type="curve" smooth="yes"/>
      <point x="69" y="349"/>
      <point x="419" y="438"/>
      <point x="419" y="208" type="curve" smooth="yes"/>
      <point x="419" y="107"/>
      <point x="355" y="46"/>
      <point x="267" y="46" type="curve" smooth="yes"/>
      <point x="205" y="46"/>
      <point x="129" y="88"/>
      <point x="108" y="159" type="curve"/>
      <point x="49" y="131" type="line"/>
      <point x="92" y="29"/>
      <point x="188" y="-12"/>
    </contour>
    <contour>
      <point x="266" y="106" type="curve" smooth="yes"/>
      <point x="336" y="106"/>
      <point x="373" y="155"/>
      <point x="373" y="212" type="curve" smooth="yes"/>
      <point x="373" y="269"/>
      <point x="336" y="325"/>
      <point x="266" y="325" type="curve" smooth="yes"/>
      <point x="193" y="325"/>
      <point x="156" y="270"/>
      <point x="156" y="212" type="curve" smooth="yes"/>
      <point x="156" y="155"/>
      <point x="193" y="106"/>
    </contour>
    <contour>
      <point x="263" y="152" type="curve" smooth="yes"/>
      <point x="227" y="152"/>
      <point x="207" y="179"/>
      <point x="207" y="212" type="curve" smooth="yes"/>
      <point x="207" y="247"/>
      <point x="223" y="278"/>
      <point x="266" y="278" type="curve" smooth="yes"/>
      <point x="306" y="278"/>
      <point x="323" y="249"/>
      <point x="323" y="212" type="curve" smooth="yes"/>
      <point x="323" y="178"/>
      <point x="302" y="152"/>
    </contour>
  </outline>
</glyph>
<glyph name="uniA0A3" format="2">
  <advance width="549"/>
  <unicode hex="A0A3"/>
  <outline>
    <contour>
      <point x="54" y="0" type="line"/>
      <point x="427" y="0" type="line"/>
      <point x="273" y="360" type="line"/>
      <point x="427" y="714" type="line"/>
      <point x="54" y="714" type="line"/>
      <point x="208" y="360" type="line"/>
    </contour>
    <contour>
      <point x="142" y="59" type="line"/>
      <point x="240" y="285" type="line"/>
      <point x="339" y="59" type="line"/>
    </contour>
    <contour>
      <point x="240" y="438" type="line"/>
      <point x="147" y="655" type="line"/>
      <point x="333" y="655" type="line"/>
    </contour>
    <contour>
      <point x="427" y="255" type="line"/>
      <point x="491" y="255" type="line"/>
      <point x="491" y="518" type="line"/>
      <point x="427" y="518" type="line"/>
    </contour>
  </outline>
</glyph>
<glyph name="uniA0A5" format="2">
  <advance width="542"/>
  <unicode hex="A0A5"/>
  <outline>
    <contour>
      <point x="454" y="-15" type="line"/>
      <point x="454" y="714" type="line"/>
      <point x="385" y="714" type="line"/>
      <point x="385" y="70" type="line"/>
      <point x="79" y="166" type="line"/>
      <point x="59" y="105" type="line"/>
    </contour>
    <contour>
      <point x="49" y="249" type="line"/>
      <point x="112" y="249" type="line"/>
      <point x="112" y="404" type="line"/>
      <point x="49" y="404" type="line"/>
    </contour>
    <contour>
      <point x="217" y="249" type="line"/>
      <point x="280" y="249" type="line"/>
      <point x="280" y="404" type="line"/>
      <point x="217" y="404" type="line"/>
    </contour>
    <contour>
      <point x="49" y="498" type="line"/>
      <point x="112" y="498" type="line"/>
      <point x="112" y="653" type="line"/>
      <point x="49" y="653" type="line"/>
    </contour>
    <contour>
      <point x="217" y="498" type="line"/>
      <point x="280" y="498" type="line"/>
      <point x="280" y="653" type="line"/>
      <point x="217" y="653" type="line"/>
    </contour>
  </outline>
</glyph>
<glyph name="uniA0A6" format="2">
  <advance width="592"/>
  <unicode hex="A0A6"/>
  <outline>
    <contour>
      <point x="296" y="-13" type="curve" smooth="yes"/>
      <point x="453" y="-13"/>
      <point x="524" y="142"/>
      <point x="524" y="358" type="curve" smooth="yes"/>
      <point x="524" y="574"/>
      <point x="453" y="727"/>
      <point x="296" y="727" type="curve" smooth="yes"/>
      <point x="143" y="727"/>
      <point x="68" y="576"/>
      <point x="68" y="362" type="curve" smooth="yes"/>
      <point x="68" y="148"/>
      <point x="138" y="-13"/>
    </contour>
    <contour>
      <point x="181" y="207" type="line"/>
      <point x="233" y="207" type="line"/>
      <point x="233" y="311" type="line"/>
      <point x="181" y="311" type="line"/>
    </contour>
    <contour>
      <point x="264" y="49" type="line"/>
      <point x="171" y="72"/>
      <point x="137" y="200"/>
      <point x="137" y="362" type="curve" smooth="yes"/>
      <point x="137" y="524"/>
      <point x="178" y="642"/>
      <point x="264" y="664" type="curve"/>
    </contour>
    <contour>
      <point x="358" y="207" type="line"/>
      <point x="411" y="207" type="line"/>
      <point x="411" y="311" type="line"/>
      <point x="358" y="311" type="line"/>
    </contour>
    <contour>
      <point x="181" y="431" type="line"/>
      <point x="233" y="431" type="line"/>
      <point x="233" y="536" type="line"/>
      <point x="181" y="536" type="line"/>
    </contour>
    <contour>
      <point x="328" y="50" type="curve"/>
      <point x="328" y="664" type="line"/>
      <point x="417" y="641"/>
      <point x="456" y="521"/>
      <point x="456" y="358" type="curve" smooth="yes"/>
      <point x="456" y="196"/>
      <point x="417" y="73"/>
    </contour>
    <contour>
      <point x="358" y="431" type="line"/>
      <point x="411" y="431" type="line"/>
      <point x="411" y="536" type="line"/>
      <point x="358" y="536" type="line"/>
    </contour>
  </outline>
</glyph>
<glyph name="uniA0AA" format="2">
  <advance width="520"/>
  <unicode hex="A0AA"/>
  <outline>
    <contour>
      <point x="288" y="-15" type="line"/>
      <point x="288" y="361" type="line"/>
      <point x="368" y="354"/>
      <point x="397" y="279"/>
      <point x="397" y="223" type="curve" smooth="yes"/>
      <point x="397" y="201"/>
      <point x="393" y="169"/>
      <point x="386" y="155" type="curve"/>
      <point x="442" y="133" type="line"/>
      <point x="457" y="162"/>
      <point x="461" y="193"/>
      <point x="461" y="223" type="curve" smooth="yes"/>
      <point x="461" y="302"/>
      <point x="424" y="403"/>
      <point x="288" y="415" type="curve"/>
      <point x="288" y="714" type="line"/>
      <point x="220" y="714" type="line"/>
      <point x="220" y="83" type="line"/>
      <point x="90" y="147" type="line"/>
      <point x="69" y="91" type="line"/>
    </contour>
    <contour>
      <point x="59" y="350" type="line"/>
      <point x="122" y="350" type="line"/>
      <point x="122" y="578" type="line"/>
      <point x="59" y="578" type="line"/>
    </contour>
    <contour>
      <point x="386" y="438" type="line"/>
      <point x="449" y="438" type="line"/>
      <point x="449" y="642" type="line"/>
      <point x="386" y="642" type="line"/>
    </contour>
  </outline>
</glyph>
